<svg width="292" height="292" viewBox="0 0 292 292" fill="none" xmlns="http://www.w3.org/2000/svg"><path fill-rule="evenodd" clip-rule="evenodd" d="M170.834 168.972c-11.809 8.731-28.985 13.383-43.8 13.383-20.755 0-39.362-7.658-53.533-20.397-1.074-1.002-.143-2.362 1.217-1.574 15.244 8.874 34.066 14.17 53.533 14.17 13.097 0 27.554-2.719 40.866-8.373 2.004-.788 3.721 1.359 1.717 2.791z" fill="#F90"/><path fill-rule="evenodd" clip-rule="evenodd" d="M175.773 163.391c-1.503-1.933-10.02-.931-13.813-.43-1.145.143-1.36-.859-.286-1.574 6.799-4.795 17.892-3.364 19.18-1.79 1.288 1.575-.358 12.74-6.728 18.036-1.002.787-1.932.358-1.502-.716 1.431-3.65 4.651-11.594 3.149-13.526z" fill="#F90"/><path fill-rule="evenodd" clip-rule="evenodd" d="M162.175 127.676v-4.652c0-.716.5-1.145 1.145-1.145h20.755c.644 0 1.216.501 1.216 1.145v3.936c0 .644-.572 1.503-1.574 2.935l-10.736 15.315c4.008-.071 8.231.501 11.809 2.505.787.43 1.002 1.145 1.074 1.789v4.939c0 .715-.716 1.503-1.503 1.073-6.37-3.364-14.886-3.721-21.9.072-.716.358-1.503-.358-1.503-1.074v-4.723c0-.716 0-2.004.787-3.149l12.525-17.821h-10.807a1.258 1.258 0 01-1.288-1.145zm-75.649 28.916h-6.298c-.572-.072-1.073-.501-1.145-1.074v-32.349c0-.644.573-1.145 1.217-1.145h5.869c.644 0 1.073.501 1.145 1.074v4.222h.143c1.503-4.079 4.437-6.011 8.302-6.011 3.936 0 6.441 1.932 8.159 6.011 1.503-4.079 5.009-6.011 8.731-6.011 2.648 0 5.511 1.073 7.3 3.578 2.004 2.72 1.575 6.656 1.575 10.163v20.468c0 .645-.573 1.145-1.217 1.145h-6.298c-.644-.071-1.145-.572-1.145-1.145v-17.176c0-1.36.143-4.795-.143-6.083-.501-2.147-1.861-2.792-3.722-2.792-1.503 0-3.149 1.002-3.793 2.648-.644 1.647-.573 4.366-.573 6.227v17.176c0 .645-.572 1.145-1.216 1.145h-6.298c-.644-.071-1.145-.572-1.145-1.145v-17.176c0-3.579.572-8.946-3.865-8.946-4.509 0-4.366 5.153-4.366 8.946v17.176c0 .501-.5 1.074-1.216 1.074zm116.657-35.358c9.376 0 14.386 8.088 14.386 18.322 0 9.876-5.583 17.749-14.457 17.749-9.161-.072-14.171-8.087-14.171-18.107 0-10.091 5.082-17.964 14.242-17.964zm.072 6.656c-4.652 0-4.938 6.37-4.938 10.306 0 3.936-.072 12.382 4.866 12.382 4.867 0 5.153-6.8 5.153-10.95 0-2.72-.143-6.012-.93-8.589-.787-2.29-2.147-3.149-4.151-3.149zm26.48 28.702h-6.298c-.644-.072-1.145-.573-1.145-1.145v-32.421a1.238 1.238 0 011.217-1.073h5.869c.572 0 1.001.429 1.145.93v4.938h.143c1.789-4.437 4.222-6.512 8.588-6.512 2.791 0 5.582 1.002 7.372 3.793 1.646 2.576 1.646 6.942 1.646 10.091v20.397c-.072.573-.573 1.002-1.217 1.002h-6.298c-.573-.072-1.074-.501-1.145-1.002v-17.606c0-3.578.429-8.731-3.936-8.731-1.503 0-2.935 1.002-3.65 2.576-.859 2.004-1.002 3.936-1.002 6.155v17.463c-.072.572-.573 1.145-1.289 1.145zm-84.093-15.532c0 2.433.072 4.509-1.145 6.727-1.002 1.79-2.576 2.863-4.366 2.863-2.433 0-3.864-1.861-3.864-4.58 0-5.368 4.795-6.37 9.375-6.37v1.36zm6.37 15.387c-.43.358-1.002.43-1.503.143-2.076-1.717-2.505-2.576-3.65-4.222-3.435 3.507-5.94 4.58-10.378 4.58-5.296 0-9.447-3.292-9.447-9.805 0-5.153 2.791-8.588 6.728-10.306 3.435-1.502 8.23-1.789 11.88-2.218v-.787c0-1.503.143-3.293-.787-4.581-.787-1.145-2.219-1.646-3.507-1.646-2.433 0-4.58 1.217-5.081 3.793-.143.573-.501 1.145-1.074 1.145l-6.083-.644c-.501-.143-1.074-.501-.931-1.288 1.36-7.443 8.088-9.662 14.099-9.662 3.078 0 7.086.787 9.519 3.149 3.077 2.863 2.791 6.728 2.791 10.879v9.805c0 2.934 1.217 4.222 2.362 5.868.429.573.501 1.288 0 1.646-1.36 1.074-3.65 3.078-4.938 4.151zM62.98 141.06c0 2.433.072 4.509-1.145 6.727-1.002 1.79-2.576 2.863-4.365 2.863-2.434 0-3.865-1.861-3.865-4.58 0-5.368 4.795-6.37 9.375-6.37v1.36zm6.37 15.387c-.43.358-1.002.43-1.503.143-2.075-1.717-2.505-2.576-3.65-4.222-3.435 3.507-5.94 4.58-10.377 4.58-5.297.072-9.447-3.22-9.447-9.805 0-5.153 2.79-8.588 6.727-10.306 3.435-1.502 8.23-1.789 11.88-2.218v-.787c0-1.503.144-3.293-.787-4.581-.787-1.145-2.218-1.574-3.507-1.574-2.433 0-4.58 1.216-5.081 3.793-.143.572-.501 1.145-1.074 1.145l-6.083-.644c-.5-.143-1.074-.501-.93-1.288 1.288-7.515 8.015-9.734 14.027-9.734 3.078 0 7.085.787 9.519 3.149 3.077 2.863 2.79 6.728 2.79 10.879v9.805c0 2.934 1.218 4.222 2.363 5.868.43.573.5 1.288 0 1.646-1.36 1.074-3.65 3.078-4.867 4.151z" fill="#fff"/></svg>