<svg width="292" height="292" viewBox="0 0 292 292" fill="none" xmlns="http://www.w3.org/2000/svg"><path d="M118.213 134.914l8.925 23.873h-5.433l-1.807-5.317h-8.925l-1.857 5.317h-5.298l9.027-23.873h5.368zm.302 14.646l-2.995-8.762h-.065l-3.112 8.757 6.172.005zm14.687-8.058v2.401h.103a5.444 5.444 0 012.321-2.192 6.77 6.77 0 012.944-.687 8.073 8.073 0 013.126.52 4.64 4.64 0 011.922 1.439c.49.664.826 1.429.984 2.239.198.962.293 1.943.284 2.925v10.634h-4.727v-9.77c0-1.427-.223-2.492-.669-3.195-.446-.703-1.237-1.054-2.373-1.054-1.294 0-2.223.384-2.786 1.152-.564.767-.853 2.032-.869 3.793v9.06h-4.773v-17.265h4.513zm31.201 18.563a5.864 5.864 0 01-1.221 2.489 7.288 7.288 0 01-2.708 1.955 11.677 11.677 0 01-4.745.803 11.097 11.097 0 01-2.592-.316 8.263 8.263 0 01-2.405-.984 5.904 5.904 0 01-1.806-1.723 4.995 4.995 0 01-.818-2.526h4.714a2.715 2.715 0 001.305 1.857c.691.357 1.46.536 2.238.52 1.337 0 2.312-.4 2.925-1.202a4.721 4.721 0 00.887-3.042v-2.275h-.065a4.699 4.699 0 01-2.192 2.024 7.094 7.094 0 01-2.99.651 7.541 7.541 0 01-3.343-.688 6.328 6.328 0 01-2.322-1.857 7.798 7.798 0 01-1.319-2.786 13.147 13.147 0 01-.418-3.362c-.01-1.093.147-2.182.464-3.228a8.43 8.43 0 011.421-2.739 6.86 6.86 0 012.322-1.89 6.967 6.967 0 013.195-.702 6.695 6.695 0 012.99.637 5.164 5.164 0 012.155 2.14h.065V141.5h4.514v16.183c-.002.8-.086 1.598-.251 2.382zm-6.501-5.749a3.717 3.717 0 001.272-1.068c.341-.458.596-.974.752-1.523a6.29 6.29 0 00.251-1.788 9.842 9.842 0 00-.199-2.025 5.088 5.088 0 00-.669-1.69 3.47 3.47 0 00-1.235-1.17 3.91 3.91 0 00-1.941-.437 3.478 3.478 0 00-1.723.4 3.62 3.62 0 00-1.203 1.086 4.57 4.57 0 00-.701 1.57 7.698 7.698 0 00-.218 1.857c0 .624.062 1.246.185 1.858.113.584.328 1.144.637 1.653a3.72 3.72 0 001.188 1.203 3.364 3.364 0 001.858.464 3.776 3.776 0 001.746-.395v.005zm15.268.323c.712.691 1.737 1.036 3.074 1.036a4.237 4.237 0 002.475-.72 2.982 2.982 0 001.272-1.523h4.18c-.669 2.074-1.694 3.557-3.074 4.448a9.055 9.055 0 01-5.015 1.338 9.889 9.889 0 01-3.678-.65 7.64 7.64 0 01-2.786-1.858 8.362 8.362 0 01-1.756-2.874 10.52 10.52 0 01-.617-3.678 10.066 10.066 0 01.654-3.608 8.358 8.358 0 014.598-4.815 8.956 8.956 0 013.594-.702 8.224 8.224 0 013.845.855 7.68 7.68 0 012.688 2.289 9.436 9.436 0 011.524 3.279c.314 1.255.427 2.553.334 3.844H172c.068 1.536.458 2.649 1.17 3.339zm5.368-9.092c-.57-.619-1.433-.929-2.591-.929a4.135 4.135 0 00-1.89.386 3.596 3.596 0 00-1.203.952 3.503 3.503 0 00-.636 1.198c-.113.37-.186.752-.218 1.137h7.722a5.49 5.49 0 00-1.184-2.744zm13.211-10.633v23.873h-4.75v-23.873h4.75zm9.032 0v19.457h11.632v4.411h-16.879v-23.868h5.247zm13.601 3.918v-3.91h4.746v3.91h-4.746zm4.746 2.675v17.283h-4.746v-17.283h4.746zm7.406 12.981c.203.357.482.665.818.901.349.242.739.418 1.151.52a5.44 5.44 0 001.356.168 5.043 5.043 0 001.054-.117 3.584 3.584 0 001.003-.366 2.28 2.28 0 00.753-.669c.21-.31.316-.68.302-1.054 0-.712-.474-1.248-1.421-1.607a28.554 28.554 0 00-3.961-1.068 22.822 22.822 0 01-2.025-.552 6.904 6.904 0 01-1.755-.836 4.057 4.057 0 01-1.236-1.305 3.69 3.69 0 01-.464-1.923 5.198 5.198 0 01.65-2.739 4.806 4.806 0 011.723-1.691 7.567 7.567 0 012.405-.868 14.906 14.906 0 012.74-.251c.915-.001 1.829.089 2.726.27a7.22 7.22 0 012.359.9 5.423 5.423 0 011.723 1.691c.488.804.769 1.716.817 2.656h-4.514a2.08 2.08 0 00-1.035-1.858 4.749 4.749 0 00-2.206-.464c-.29.002-.58.019-.868.051a2.94 2.94 0 00-.855.218 1.759 1.759 0 00-.65.465 1.283 1.283 0 00-.269.854 1.302 1.302 0 00.464 1.036 3.62 3.62 0 001.222.65c.564.188 1.139.343 1.722.464.647.133 1.305.279 1.974.437.684.153 1.36.342 2.024.566a6.714 6.714 0 011.756.887c.508.368.93.844 1.235 1.393a4.03 4.03 0 01.464 2.025 5.25 5.25 0 01-2.484 4.676 7.307 7.307 0 01-2.526.984 14.718 14.718 0 01-5.837-.018 7.775 7.775 0 01-2.559-1.003 5.714 5.714 0 01-1.857-1.858 5.799 5.799 0 01-.785-2.893h4.514c-.004.467.118.926.352 1.328zm23.219-12.989v3.176h-3.479v8.558c0 .802.135 1.337.404 1.607.27.269.805.402 1.607.399.269 0 .525 0 .771-.032.235-.022.469-.056.701-.103v3.678a11.11 11.11 0 01-1.337.135c-.492.022-.972.032-1.44.032a13.903 13.903 0 01-2.089-.148 4.927 4.927 0 01-1.737-.585 3.094 3.094 0 01-1.189-1.236 4.41 4.41 0 01-.436-2.108v-10.216h-2.875v-3.176h2.875v-5.164h4.745v5.183h3.479zm-163.239-1.055c3.132.592 5.337 1.911 6.615 3.957 1.277 2.047 1.92 5.277 1.926 9.69 0 8.753-2.631 15.916-7.894 21.488-5.262 5.572-11.991 8.356-20.188 8.353a26.096 26.096 0 01-9.397-1.744 23.273 23.273 0 01-7.83-4.871 24.663 24.663 0 01-5.629-7.267 17.636 17.636 0 01-1.874-7.831c0-2.986.642-5.295 1.926-6.927 1.285-1.633 3.314-2.753 6.088-3.363a27.87 27.87 0 01-1.149-3.074 7.479 7.479 0 01-.365-1.927c0-1.563.825-3.16 2.474-4.792 1.65-1.633 3.204-2.449 4.662-2.449a6.435 6.435 0 011.979.339 12.98 12.98 0 012.396 1.123c-2.676-7.57-4.622-13.414-5.836-17.531-1.215-4.117-1.82-6.954-1.817-8.51 0-2.154.555-3.865 1.665-5.132a5.75 5.75 0 014.532-1.9c3.264 0 7.394 7.293 12.388 21.88a549.122 549.122 0 011.979 5.784c.383-1.075.92-2.603 1.613-4.583C79.79 116.706 84.1 109.48 87.71 109.48a5.385 5.385 0 014.244 1.796c1.044 1.198 1.566 2.804 1.566 4.819 0 1.528-.581 4.323-1.743 8.384-1.163 4.062-2.917 9.384-5.263 15.965zm-37.301 21.253a83.696 83.696 0 012.03 2.611c2.294 3.16 4.412 4.74 6.354 4.74a2.758 2.758 0 001.77-.627 1.71 1.71 0 00.783-1.299c0-.523-.348-1.393-1.044-2.611a33.683 33.683 0 00-2.866-4.114 30.991 30.991 0 00-3.467-3.879c-.919-.814-1.657-1.221-2.214-1.221-1.214 0-2.335.651-3.362 1.952a7.238 7.238 0 00-1.534 4.61c.04 1.641.394 3.259 1.044 4.767a22.97 22.97 0 003.1 5.288 20.678 20.678 0 007.633 6.328 22.737 22.737 0 0010.092 2.192 21.998 21.998 0 0017.009-7.58c4.566-5.054 6.85-11.383 6.85-18.988a23.547 23.547 0 00-.523-5.549 5.31 5.31 0 00-1.718-2.997c-1.423-1.18-4.193-2.239-8.31-3.179a57.9 57.9 0 00-12.896-1.405c-1.25 0-2.135.209-2.657.627-.522.418-.783 1.129-.783 2.135 0 2.363 1.319 4.074 3.957 5.132 2.638 1.058 6.91 1.58 12.817 1.566h2.135a1.443 1.443 0 011.175.522c.34.484.548 1.05.6 1.64-.592.556-1.81 1.19-3.654 1.9a19.598 19.598 0 00-4.219 2.088 18.715 18.715 0 00-4.996 5.503 11.618 11.618 0 00-1.9 5.967c.05 1.414.323 2.811.809 4.14.376.967.647 1.972.81 2.997v.365l-.105.47c-1.528-.105-2.734-.999-3.618-2.684-.884-1.684-1.326-3.932-1.326-6.745v-.47a2.882 2.882 0 01-.81.523c-.274.106-.566.16-.86.156a4.803 4.803 0 01-.888-.078 9.204 9.204 0 01-.94-.235c.102.369.18.744.235 1.122.045.285.072.573.078.862a4.331 4.331 0 01-1.509 3.31 5.153 5.153 0 01-3.596 1.378c-2.19 0-4.412-1.069-6.667-3.206-2.256-2.137-3.385-4.225-3.388-6.264a3.606 3.606 0 01.13-1.018c.08-.286.23-.546.439-.757v.015zm15.63 1.248a2.148 2.148 0 001.613-.809 2.56 2.56 0 00.731-1.744c0-.658-.477-2.194-1.43-4.61a46.227 46.227 0 00-3.571-7.11 16.622 16.622 0 00-3.075-3.931c-1.01-.884-1.965-1.326-2.866-1.326-.731 0-1.539.459-2.423 1.378-.884.919-1.326 1.778-1.326 2.579 0 .832.434 2.081 1.3 3.748a35.412 35.412 0 003.493 5.315 28.985 28.985 0 004.323 4.792c1.353 1.135 2.43 1.702 3.231 1.702v.016zm5.106-25.163l-5.628-16.268c-1.458-4.131-2.588-6.832-3.388-8.102-.8-1.271-1.67-1.904-2.61-1.901a2.179 2.179 0 00-1.755.836 3.443 3.443 0 00-.678 2.239c0 1.598.607 4.382 1.822 8.353 1.214 3.971 3.038 9.164 5.471 15.579a1.74 1.74 0 01.887-.81 4.234 4.234 0 011.567-.234c.209 0 .624.017 1.248.052.622.035 1.644.116 3.064.245v.011zm5.884 15.771a32.001 32.001 0 01-4.245-.47 22.437 22.437 0 01-3.826-1.044 41.736 41.736 0 011.482 3.336c.413 1.073.761 2.17 1.044 3.284a25.994 25.994 0 012.61-2.84 21.932 21.932 0 012.935-2.266zm6.927-14.012c2.325-6.321 4.14-11.541 5.445-15.662 1.306-4.121 1.957-6.648 1.953-7.58a3.726 3.726 0 00-.653-2.344 2.154 2.154 0 00-1.796-.836c-.97 0-1.96.808-2.97 2.423-1.01 1.615-2.121 4.211-3.336 7.789l-5.22 15.056 6.577 1.154z" fill="#fff"/></svg>