<svg width="292" height="292" viewBox="0 0 292 292" fill="none" xmlns="http://www.w3.org/2000/svg"><path d="M65.882 159.492c.765 2.035 1.824 3.775 3.178 5.219a13.664 13.664 0 004.812 3.317c1.854.767 3.87 1.15 6.047 1.15 2.12 0 4.106-.398 5.96-1.194a14.664 14.664 0 004.855-3.361c1.383-1.445 2.458-3.17 3.223-5.175.765-2.005 1.147-4.246 1.147-6.723v-38.213h9.27v61.92h-9.181v-5.75a21.27 21.27 0 01-7.284 5.042c-2.796 1.179-5.812 1.769-9.05 1.769-3.295 0-6.37-.575-9.225-1.725-2.855-1.15-5.327-2.786-7.416-4.909-2.09-2.123-3.738-4.673-4.944-7.652-1.207-2.978-1.81-6.295-1.81-9.951v-38.744h9.27v38.213c0 2.477.383 4.733 1.148 6.767zm54.471-44.98v22.556a23.607 23.607 0 017.152-4.909c2.707-1.209 5.65-1.813 8.828-1.813 3.296 0 6.386.619 9.27 1.857 2.884 1.238 5.385 2.919 7.504 5.042 2.119 2.123 3.797 4.629 5.033 7.519 1.236 2.89 1.853 5.956 1.853 9.2 0 3.243-.617 6.295-1.853 9.155-1.236 2.86-2.914 5.352-5.033 7.474-2.119 2.123-4.62 3.804-7.504 5.043-2.884 1.238-5.974 1.857-9.27 1.857-3.178 0-6.136-.604-8.873-1.813-2.737-1.209-5.135-2.846-7.195-4.91v5.662h-8.828v-61.92h8.916zm1.016 45.555a15.392 15.392 0 003.31 4.954 15.979 15.979 0 004.944 3.361c1.884.826 3.914 1.239 6.092 1.239 2.119 0 4.12-.413 6.003-1.239 1.884-.825 3.517-1.946 4.9-3.361 1.383-1.415 2.487-3.067 3.311-4.954.824-1.887 1.236-3.921 1.236-6.103s-.412-4.232-1.236-6.148c-.824-1.917-1.928-3.583-3.311-4.998a14.857 14.857 0 00-4.9-3.317c-1.883-.796-3.884-1.194-6.003-1.194s-4.12.398-6.003 1.194a15.351 15.351 0 00-4.944 3.317c-1.413 1.415-2.531 3.081-3.355 4.998-.824 1.916-1.236 3.966-1.236 6.148 0 2.182.397 4.216 1.192 6.103zm43.656-15.215c1.177-2.831 2.796-5.322 4.856-7.475 2.059-2.152 4.502-3.848 7.327-5.086 2.826-1.238 5.886-1.857 9.182-1.857 3.237 0 6.239.589 9.005 1.769 2.767 1.179 5.15 2.816 7.151 4.909 2.002 2.093 3.561 4.57 4.679 7.43 1.119 2.861 1.678 5.971 1.678 9.333v2.919h-36.639a15.153 15.153 0 001.766 5.086 15.332 15.332 0 003.311 4.069 15.117 15.117 0 004.502 2.698c1.678.649 3.458.973 5.342.973 5.356 0 9.682-2.211 12.978-6.634l6.445 4.776c-2.237 3.008-5.003 5.367-8.299 7.077-3.296 1.71-7.004 2.565-11.124 2.565-3.355 0-6.489-.59-9.402-1.769-2.914-1.179-5.445-2.831-7.593-4.954-2.148-2.123-3.84-4.614-5.076-7.474-1.236-2.86-1.854-5.971-1.854-9.333-.001-3.184.588-6.191 1.765-9.022zm12.404-3.494c-2.501 2.093-4.164 4.88-4.988 8.359h27.457c-.765-3.479-2.399-6.266-4.9-8.359-2.501-2.094-5.43-3.14-8.784-3.14-3.355 0-6.283 1.046-8.785 3.14zm48.159 1.018c-1.883 2.064-2.825 4.865-2.825 8.403v25.653h-8.917v-45.113h8.829v5.573c1.118-1.828 2.575-3.273 4.37-4.335 1.795-1.061 3.929-1.592 6.401-1.592h3.09v8.315h-3.708c-2.943 0-5.356 1.032-7.24 3.096z" fill="#fff"/></svg>