<svg width="292" height="292" viewBox="0 0 292 292" fill="none" xmlns="http://www.w3.org/2000/svg"><path fill-rule="evenodd" clip-rule="evenodd" d="M119.687 169.778a.95.95 0 01-.946-.946v-45.597a.95.95 0 01.946-.946h6.162l.006.002.043.002h.002l.021.002h.002l.045.008.02.004h.004c.043.011.084.021.125.037h.004l.004.002.017.007.006.002.016.006.025.012.016.006.006.004.015.006.006.005.014.006.004.004.037.018.004.004.015.008.004.005.016.008.004.004.014.01.005.002.014.012.004.002.016.011.002.002.015.014h.002l.016.014.002.002.017.013v.002l.016.014v.002l.016.015h.002l.015.018.014.014.004.002.012.017.003.002.012.016.002.004.012.013.004.006.011.012.014.016 35.039 45.661c.357.465.195 1.326-.538 1.327l-8.101.017c-.25 0-.475-.069-.637-.281l-25.589-33.344v32.766a.95.95 0 01-.946.946h-6.115z" fill="#E0E0E0"/><path fill-rule="evenodd" clip-rule="evenodd" d="M207.25 145.989a24.198 24.198 0 013.307-12.264 24.604 24.604 0 013.787-4.912 23.945 23.945 0 014.929-3.822 25.134 25.134 0 015.782-2.447c2.116-.6 4.293-.876 6.488-.876 2.181 0 4.345.283 6.444.876a24.713 24.713 0 015.791 2.45 24.372 24.372 0 014.909 3.794 24.112 24.112 0 013.794 4.933 24.884 24.884 0 012.449 5.816 23.9 23.9 0 01.877 6.481c0 2.187-.281 4.354-.877 6.459a24.816 24.816 0 01-2.451 5.768 23.997 23.997 0 01-3.798 4.904 24.673 24.673 0 01-4.903 3.768 24.26 24.26 0 01-5.803 2.445 24.218 24.218 0 01-6.461.862c-2.185 0-4.347-.28-6.454-.862a24.252 24.252 0 01-5.802-2.445 24.277 24.277 0 01-4.908-3.793 24.28 24.28 0 01-6.236-10.687 24.01 24.01 0 01-.864-6.448zm8.036-.028c0 2.187.401 4.3 1.269 6.31a16.477 16.477 0 003.485 5.163 16.447 16.447 0 005.179 3.484c2.015.867 4.133 1.271 6.324 1.271a15.87 15.87 0 004.298-.576 16.26 16.26 0 003.876-1.64 16.595 16.595 0 003.297-2.547 16.034 16.034 0 002.542-3.271 16.312 16.312 0 001.638-3.884c.391-1.407.577-2.85.577-4.31 0-2.175-.407-4.278-1.275-6.273-.848-1.939-2.003-3.686-3.5-5.183-1.495-1.494-3.24-2.649-5.181-3.497-1.994-.87-4.095-1.276-6.272-1.276-1.46 0-2.904.186-4.313.58-1.368.38-2.68.923-3.907 1.64-1.204.7-2.296 1.55-3.276 2.537a16.8 16.8 0 00-2.548 3.297 16.268 16.268 0 00-1.636 3.882 16.015 16.015 0 00-.577 4.293z" fill="#46BDC4"/><path fill-rule="evenodd" clip-rule="evenodd" d="M100.617 122.289a.95.95 0 01.948.946v45.598a.952.952 0 01-.948.946h-6.112a.952.952 0 01-.948-.946v-45.598a.95.95 0 01.948-.946h6.112zm-55.395 28.009c0 1.675.281 3.303.895 4.862.568 1.442 1.372 2.75 2.45 3.867 1.072 1.112 2.334 1.957 3.749 2.574 1.52.665 3.129.95 4.784.95 1.677 0 3.319-.282 4.863-.951 1.413-.613 2.672-1.46 3.733-2.578a11.813 11.813 0 002.43-3.866c.609-1.556.877-3.189.877-4.858v-20.477a.97.97 0 01-.028-.232v-6.354a.95.95 0 01.946-.946h6.114a.95.95 0 01.946.946v27.498c0 2.726-.516 5.378-1.605 7.883-1.02 2.348-2.433 4.456-4.266 6.244-1.822 1.78-3.948 3.149-6.303 4.118-2.457 1.013-5.053 1.493-7.707 1.493a19.9 19.9 0 01-5.29-.709 19.34 19.34 0 01-4.757-2.009 20.272 20.272 0 01-4.005-3.114 19.913 19.913 0 01-3.103-4.015 20.191 20.191 0 01-2.008-4.735 19.485 19.485 0 01-.721-5.302v-27.352a.95.95 0 01.946-.946h6.112a.95.95 0 01.948.946v27.063z" fill="#E0E0E0"/><path fill-rule="evenodd" clip-rule="evenodd" d="M192.509 122.289a.95.95 0 01.946.946v45.598a.95.95 0 01-.946.946h-6.139l-.004-.001-.019-.001h-.006l-.043-.004h-.002l-.02-.002h-.003l-.045-.008-.02-.004h-.004a.89.89 0 01-.125-.035l-.004-.001-.004-.003-.017-.006-.006-.002-.016-.006-.004-.002-.017-.007-.004-.002-.016-.008-.006-.003-.015-.007-.006-.002-.014-.008-.004-.003-.017-.008-.004-.004-.016-.008-.004-.003-.014-.009-.005-.003-.016-.009-.002-.004-.016-.01-.004-.002-.015-.011-.004-.003-.014-.011-.004-.003-.015-.012-.002-.002-.016-.013-.002-.002-.017-.014v-.001l-.016-.015v-.001l-.016-.016h-.002l-.015-.016-.014-.016-.002-.002-.014-.015-.002-.003-.013-.015-.002-.004-.012-.013-.004-.006-.01-.012-.013-.018-35.039-45.66c-.359-.466-.197-1.326.538-1.326l8.099-.017c.25-.002.475.068.637.281L185.448 156v-32.765a.95.95 0 01.946-.946h6.115z" fill="#46BDC4"/></svg>