<svg width="32" height="32" viewBox="0 0 32 32" fill="none" xmlns="http://www.w3.org/2000/svg"><path fill="#fff" d="M0 0h32v32H0z"/><path fill-rule="evenodd" clip-rule="evenodd" d="M7.794 13.49a.335.335 0 00-.158-.273L5.05 11.739a.321.321 0 00-.141-.039h-.024a.295.295 0 00-.141.04l-2.587 1.477A.315.315 0 002 13.49l.008 3.98c0 .055.031.11.078.133.048.031.11.031.158 0l1.533-.876a.312.312 0 00.157-.266v-1.86c0-.11.063-.212.157-.266l.653-.376a.278.278 0 01.157-.039.36.36 0 01.157.04l.652.375a.312.312 0 01.158.265v1.861c0 .11.063.211.157.266l1.533.876c.047.031.11.031.157 0a.151.151 0 00.079-.133v-3.98zM21.59 8.018a.184.184 0 00-.157 0 .161.161 0 00-.079.132v3.95a.108.108 0 01-.055.094.135.135 0 01-.11 0l-.644-.368a.321.321 0 00-.315 0l-2.586 1.486a.312.312 0 00-.157.265v2.971c0 .11.063.211.157.266L20.23 18.3a.322.322 0 00.315 0l2.586-1.486a.312.312 0 00.157-.266V9.136a.325.325 0 00-.157-.274l-1.54-.844zm-.236 7.544a.082.082 0 01-.039.07l-.888.509a.071.071 0 01-.079 0l-.888-.508a.082.082 0 01-.04-.07v-1.017a.08.08 0 01.04-.07l.888-.509a.071.071 0 01.079 0l.888.508c.024.016.04.04.04.07v1.017zm9.489-1.048A.312.312 0 0031 14.25v-.72a.312.312 0 00-.157-.265l-2.57-1.486a.321.321 0 00-.315 0l-2.587 1.486a.312.312 0 00-.157.265v2.97c0 .11.063.212.157.274l2.571 1.454a.307.307 0 00.307 0l1.556-.86a.151.151 0 00.079-.133.151.151 0 00-.079-.133l-2.602-1.485a.161.161 0 01-.079-.133v-.938a.15.15 0 01.08-.133l.809-.461a.143.143 0 01.157 0l.81.46a.161.161 0 01.078.134v.735c0 .054.032.11.079.133.047.03.11.03.157 0l1.549-.9zm-18.348-2.752a.322.322 0 01.314 0l2.586 1.486a.312.312 0 01.158.266v2.97c0 .11-.063.212-.158.267l-2.586 1.485a.322.322 0 01-.314 0l-2.587-1.485a.312.312 0 01-.157-.266v-2.971c0-.11.063-.211.157-.266l2.587-1.486z" fill="#000"/><path fill-rule="evenodd" clip-rule="evenodd" d="M28.084 14.382a.087.087 0 01.062 0l.496.281a.066.066 0 01.031.055v.57c0 .024-.008.04-.031.055l-.496.282a.087.087 0 01-.063 0l-.495-.282a.066.066 0 01-.031-.054v-.571c0-.024.008-.04.031-.055l.495-.281z" fill="#000"/><path d="M16.59 24a.518.518 0 01-.259-.07l-.818-.477c-.117-.07-.063-.094-.023-.102.165-.055.196-.07.37-.164.015-.008.039-.008.062.008l.63.367a.072.072 0 00.078 0l2.437-1.4c.023-.015.039-.038.039-.062v-2.814a.082.082 0 00-.04-.07l-2.436-1.4a.071.071 0 00-.079 0l-2.437 1.4c-.024.015-.04.038-.04.062v2.799c0 .023.017.054.04.062l.668.383c.362.18.582-.03.582-.242v-2.752c0-.04.031-.07.07-.07h.307c.04 0 .071.03.071.07v2.76c0 .485-.26.758-.723.758-.142 0-.252 0-.558-.148l-.637-.368a.518.518 0 01-.26-.446v-2.798c0-.18.095-.352.26-.446l2.437-1.4a.538.538 0 01.511 0l2.437 1.4a.52.52 0 01.26.446v2.798c0 .18-.095.352-.26.446l-2.437 1.4a.49.49 0 01-.252.07z" fill="#000"/><path d="M17.337 22.069c-1.069 0-1.289-.485-1.289-.9a.07.07 0 01.07-.07h.315c.032 0 .063.024.07.063.048.32.19.477.834.477.511 0 .731-.117.731-.383 0-.157-.063-.274-.857-.352-.668-.063-1.077-.211-1.077-.743 0-.492.417-.782 1.109-.782.778 0 1.163.266 1.218.845 0 .023-.008.039-.015.055a.071.071 0 01-.055.023h-.315a.076.076 0 01-.07-.055c-.08-.336-.26-.445-.763-.445-.558 0-.629.195-.629.336 0 .18.079.226.833.328.747.102 1.109.235 1.109.758 0 .54-.44.845-1.219.845zm3.569-2.689a.472.472 0 01-.943 0 .472.472 0 01.943 0zm-.857 0c0 .218.173.39.393.39.22 0 .393-.18.393-.39 0-.22-.18-.392-.393-.392a.383.383 0 00-.393.391zm.213-.266h.18c.063 0 .181 0 .181.14 0 .094-.063.118-.102.125.07.008.079.055.086.118.008.039.016.117.024.14h-.11c0-.023-.024-.156-.024-.164-.008-.031-.015-.047-.055-.047h-.094v.211h-.102v-.523h.016zm.102.234h.078c.071 0 .079-.047.079-.07 0-.07-.047-.07-.079-.07h-.086v.14h.008z" fill="#000"/></svg>