<svg width="32" height="32" fill="none" xmlns="http://www.w3.org/2000/svg"><circle cx="16" cy="16" r="16" fill="#121212"/><path fill-rule="evenodd" clip-rule="evenodd" d="M8.42407 8.66717V7.36886C8.42407 7.16635 8.59023 6.99999 8.79315 6.99999H9.70868H9.72695H10.2215H10.2369H11.1773C11.3802 6.99999 11.5464 7.16635 11.5464 7.36886V8.29623V8.31388V9.84668V9.85603V12.7704C11.5387 13.3474 11.591 13.3136 11.2465 12.8552L8.88723 9.71604C8.52106 9.22878 8.42407 9.26866 8.42407 8.66717" fill="#46BDC4"/><path fill-rule="evenodd" clip-rule="evenodd" d="M11.5463 17.923C11.5463 18.5756 11.6558 19.2107 11.8954 19.8186C12.1168 20.3811 12.4309 20.8908 12.8506 21.3265C13.2687 21.7604 13.7612 22.0898 14.3126 22.3303C14.9054 22.5895 15.533 22.7009 16.1779 22.7009C16.832 22.7009 17.4729 22.591 18.075 22.3297C18.6257 22.0906 19.1164 21.7606 19.5306 21.3244C19.946 20.886 20.2586 20.3798 20.4781 19.8172C20.7159 19.2103 20.8204 18.5735 20.8204 17.923V9.93727C20.8131 9.90798 20.8092 9.87808 20.8092 9.84671V7.36889C20.8092 7.16639 20.9751 7.00002 21.178 7.00002H22.1399H22.1567H22.5837H22.5995H23.5624C23.7653 7.00002 23.9315 7.16639 23.9315 7.36889V8.29605V8.31391V9.84671V9.85606V18.0916C23.9315 19.1553 23.7298 20.1896 23.3057 21.1662C22.9078 22.0819 22.3563 22.904 21.6416 23.6016C20.9309 24.2951 20.1024 24.8293 19.1842 25.2071C18.2256 25.602 17.2135 25.7893 16.1779 25.7893C15.4801 25.7893 14.7885 25.6983 14.1159 25.5127C13.4642 25.3336 12.8411 25.074 12.2604 24.7294C11.69 24.3915 11.1675 23.9836 10.6987 23.515C10.2295 23.046 9.82428 22.5218 9.48926 21.949C9.14926 21.3689 8.88756 20.7502 8.70541 20.103C8.51537 19.429 8.42419 18.7357 8.42419 18.0358V13.5254C8.43167 12.9487 8.37954 12.9825 8.7239 13.4409L11.0831 16.58C11.4493 17.0673 11.5463 17.0274 11.5463 17.6289V17.923Z" fill="white"/></svg>