<svg width="98" height="56" fill="none" xmlns="http://www.w3.org/2000/svg"><path d="M55.9494 31.408V36.06C53.5155 37.3536 51.2013 38 48.8887 38C42.4979 38 38.6623 33.9937 38.6623 28.9526C38.6623 23.5224 43.0453 19 48.6447 19C50.0443 19 51.0794 19.2573 52.1754 19.6472C52.9674 19.9045 53.4538 20.2281 53.9401 20.2281C54.3669 20.2281 54.4889 19.4522 54.5499 19H55.1589L55.707 25.2683H54.976C54.6703 24.041 54.1246 23.0063 53.392 22.2959C52.2364 21.0687 50.6533 20.4214 48.8277 20.4214C44.9928 20.4214 42.7404 23.6535 42.7404 28.5004C42.7404 33.2818 45.4798 36.5793 49.1318 36.5793C50.2287 36.5793 51.2013 36.3205 52.4194 35.7388V30.955C52.4194 29.4033 52.1755 28.8224 50.106 28.8224V28.1129H57.8367V28.8224C55.8899 28.8224 55.9494 29.4681 55.9494 31.408ZM34.7054 23.7822V37.6772H33.6711L20.5817 23.3291C20.6427 23.7166 20.6427 24.041 20.6427 24.4278V33.1532C20.6427 35.8658 20.6427 36.8366 22.9569 36.8366V37.5462H16.8093V36.8366C19.1213 36.8366 19.1213 35.674 19.1213 33.1532V23.2013C19.1213 21.7142 19.1213 20.0986 16.6874 20.0986V19.3882H22.4705L33.245 31.1483C33.1833 30.8272 33.1833 30.6322 33.1833 30.1807V23.7822C33.1833 21.1966 33.245 20.0986 30.9308 20.0986V19.3882H37.0798V20.0986C34.8274 20.0986 34.7054 21.1325 34.7054 23.7821V23.7822ZM4.93878 37.5462V36.8366C6.40078 36.8366 7.43436 36.7072 7.43436 34.4452V22.4901C7.43436 20.1626 6.6432 20.0986 4.93878 20.0986V19.3882H13.5835V20.0986C11.8181 20.0986 11.0872 20.1626 11.0872 22.4901V34.4452C11.0872 36.7072 12.0002 36.8366 13.5835 36.8366V37.5462H4.93878Z" fill="#005BBB"/><path d="M62.1475 37H88.4165L89.5875 35.1025L90.3108 31.3005L88.9256 27.18L87.0913 24.645L86.1565 24.3564L85.4019 24.6731L85.1016 25.8257L81.4844 26.344L79.5888 24.9903L77.9006 20.9559L76.8777 18.1604L76.6655 17.009L76.1837 16.4608L73.5621 16.0574L71.9667 16.8061L70.0385 16.0574L68.3516 16L67.7203 17.009L67.3281 17.729L66.7855 19.0259L66.3345 20.8985L66.6655 23.895L66.8476 26.1142L66.7255 27.4098L67.2981 29.5422L66.6955 31.2705L65.762 33.5478L65.1588 33.8363L64.2855 33.4609L63.3519 33.9511L62.3577 34.3258L61.7551 35.1899L61.8453 36.5149L62.1475 37ZM89.4553 19.9488L88.7361 19.3424L86.8812 18.9525L86.7957 18.3028L88.0641 17.9562L88.8622 18.5619L89.5808 18.6921L89.9598 18.7349L91.1429 20.1645L89.4553 19.9488Z" fill="white"/><path d="M73.9142 23.4228V23.0782H73.279L73.2224 23.1922L73.9142 23.4228ZM70.6861 23.0782C70.5134 22.9067 70.284 23.0782 69.9954 23.0206C69.9954 23.0783 69.938 23.2505 70.1101 23.3639C70.3414 23.1923 70.6268 23.0783 70.6861 23.0783V23.0782ZM74.6622 19.8124C74.6622 19.8124 74.7769 19.8123 74.6622 19.7547L73.3364 19.6401C73.1637 19.7547 72.9331 19.7547 72.8758 19.9276L72.7605 19.9846C72.8758 20.4438 72.8758 20.9587 72.8758 21.4735C73.1064 21.5311 73.3937 21.7034 73.3937 22.0473C73.625 22.1619 73.9142 22.2183 74.0856 22.3906C74.2009 22.3336 74.3163 22.1619 74.3736 21.9903C74.0856 21.7034 73.5664 21.8756 73.5664 21.3602L73.2224 21.1885C73.2224 20.8428 73.2224 20.5002 73.1064 20.2709L73.2224 20.1563C73.2224 20.2709 73.279 20.3279 73.3937 20.4438C73.625 20.4438 73.9142 20.5002 74.0856 20.3279C74.2009 20.2709 74.2009 19.9846 74.3736 19.9846C74.4316 19.9846 74.6042 19.9846 74.6622 19.8124ZM71.1472 19.9276C71.1472 19.8124 71.0319 19.6977 70.8587 19.6401H69.4182C69.4182 19.8124 69.5915 19.9847 69.7641 19.9847C69.7641 20.1563 69.938 20.2709 70.0527 20.3279C70.1674 20.4438 70.284 20.4438 70.4561 20.3279C70.6268 20.4438 70.6861 20.1563 70.744 20.3279C70.744 20.6718 70.744 20.8428 70.6861 21.1302C70.6268 21.5311 70.2254 21.4735 69.9954 21.7034C69.938 21.8168 69.7641 22.1619 69.938 22.3335C70.1101 22.2183 70.284 22.1619 70.5134 22.0473C70.5134 21.8756 70.744 21.7034 70.9734 21.5312C70.9734 21.0157 71.1472 20.5002 71.1472 19.9276ZM71.6659 18.5528C71.4938 18.4369 71.1472 18.6092 70.9734 18.7244C70.744 18.7814 70.5134 18.9524 70.5134 19.1253H71.2046C71.3193 18.9524 71.4938 18.7244 71.666 18.5528H71.6659ZM73.6823 19.1253C73.6823 18.9524 73.625 18.9524 73.5664 18.8967C73.279 18.8967 73.279 18.4369 73.049 18.5528C72.8757 18.5528 72.7605 18.4369 72.6464 18.5528C72.5877 18.6092 72.6464 18.6092 72.7037 18.6092C73.049 18.6092 72.8758 19.0677 73.1065 19.1252L73.6823 19.1253ZM75.6987 18.7814C75.8153 18.4369 75.8734 17.922 75.6414 17.5787C75.4687 17.4072 75.1802 17.2349 74.8922 17.0627L74.4316 17.2349C74.2009 17.4072 74.0856 17.5788 74.0856 17.922C74.4895 18.0943 74.9508 18.5528 75.1228 18.9524H75.2955C75.4688 18.7814 75.6414 18.9524 75.6987 18.7814ZM70.3414 17.922C70.284 17.3489 69.5914 17.2349 69.2468 17.0627H69.0735C68.5549 17.1773 68.439 17.6921 68.3816 18.0943C68.555 18.6092 68.9002 18.2653 69.1875 18.6092C69.4182 18.4369 70.0527 18.0366 70.3414 17.922ZM63.2541 35.4534C63.1961 35.4534 63.0229 35.2811 62.8514 35.2811C62.6769 35.6244 62.8514 35.9119 62.8514 36.3115C62.8514 36.4274 62.7935 36.658 62.7935 36.658C62.6769 36.658 62.4468 36.3691 62.3322 36.1982V35.2248L62.9075 34.5365C63.2542 34.765 63.3689 35.1095 63.2542 35.4534H63.2541ZM64.8672 34.7651C64.8672 35.0506 64.8099 35.2811 64.6366 35.4534C64.5793 35.2248 64.4066 34.9373 64.118 34.9373C63.888 35.3945 63.8295 35.5662 64.0601 36.3115C63.888 36.4274 63.7141 36.4857 63.5408 36.658C63.4267 36.3691 63.3688 35.9683 63.3688 35.7397C63.3688 35.3388 63.4829 34.9373 63.5982 34.5934C63.7141 34.3661 63.888 34.0786 64.0601 33.9051L64.6946 33.8493C64.464 33.9051 64.464 34.1938 64.464 34.3661C64.5793 34.4218 64.8672 34.4782 64.8672 34.765V34.7651ZM66.9411 35.1096C66.9411 35.6244 66.1918 36.3115 66.1918 36.3115C66.1918 35.9683 66.3077 35.6244 66.3652 35.2811C66.3652 35.2811 66.1345 35.0506 65.8465 35.0506C65.6738 35.1095 65.6738 35.2812 65.6165 35.4534C65.4432 35.7973 65.0973 36.1387 64.9832 36.4857C64.9265 36.4857 64.9265 36.4274 64.9265 36.4274C64.9265 35.912 64.9832 34.822 65.3859 34.4218C65.7325 34.0786 65.9038 34.0786 66.2498 34.0203L66.5964 34.0786L66.3651 34.4218C66.5964 34.5364 66.9411 34.765 66.9411 35.1095V35.1096ZM76.6792 35.2811L76.5071 35.4534C76.3339 35.2811 76.4479 34.7651 76.1606 34.7074C75.8733 34.7074 75.6413 34.4218 75.5267 34.3661L75.6986 34.2502C75.6986 34.2502 75.8733 34.1938 75.9873 34.2502C76.1033 34.3661 76.2179 34.4218 76.2179 34.5934C76.3339 34.7074 76.5071 34.5934 76.6212 34.7074C76.6792 34.8797 76.7365 35.1095 76.6792 35.2811ZM78.7542 34.4218C78.6955 34.5934 78.6383 34.8796 78.5803 35.1095C78.4083 34.765 78.2923 34.2502 77.8891 34.2502C77.8317 34.0203 77.7744 33.8493 77.5431 33.7334L77.0251 33.6764C77.0825 33.8493 77.4284 33.9051 77.2564 34.2502C77.4284 34.4218 77.6584 34.4218 77.7744 34.7074C77.8891 34.8797 77.7744 35.1095 77.8317 35.2811L77.4284 35.4534C77.4284 35.1095 77.5431 34.5934 77.0825 34.4218C76.7365 34.5364 76.6792 34.0786 76.4479 33.9051C76.3339 33.8493 76.3339 33.5618 76.1606 33.7334C75.8733 33.9051 75.4687 33.7334 75.1801 33.9051L75.4687 33.3901C75.6986 33.2185 75.9873 33.3325 76.2179 33.2185L76.6792 33.1609C77.1984 33.1609 77.6011 33.3901 78.063 33.5618C78.2924 33.7334 78.4083 33.9051 78.4083 34.1938C78.5803 34.2502 78.8122 34.2502 78.7542 34.4218ZM88.0859 34.3661C87.9706 34.5364 87.9177 34.5934 87.8578 34.7074C87.8578 34.4218 87.5112 34.2502 87.2832 33.7334L87.5113 33.3325C87.7437 33.3901 87.9177 33.5617 87.9177 33.8493C87.9177 33.905 87.8578 34.0786 87.9177 34.1939C87.9177 34.2502 88.0859 34.2502 88.0859 34.3661ZM68.6121 34.5364L68.4388 35.1095L68.0363 34.0786C67.5176 33.5618 66.9997 33.5047 66.653 33.3325C66.4804 33.2185 66.4804 33.3901 66.3077 33.3325C66.3077 33.1609 66.3651 32.9893 66.5384 32.8177H66.8837L67.229 32.9893C67.4597 33.1609 67.8629 33.1609 67.8629 33.5047C67.8629 33.62 67.8063 33.6764 67.9216 33.8493L68.5548 34.0786L68.6121 34.5364ZM86.2441 33.9051C86.2441 33.9634 86.1294 34.0786 86.1294 34.0786C85.8427 33.9051 85.612 33.7923 85.2648 33.7923C85.2648 33.62 85.1501 33.3325 85.0348 33.3325C84.6315 33.3325 84.6882 33.5048 84.4015 33.5048L84.9208 32.9893C84.9762 32.8753 85.0348 32.8753 85.1502 32.8753C85.3221 32.9893 85.3795 33.0469 85.5534 33.0469C85.5534 33.1609 85.5534 33.2185 85.4974 33.3901C85.6121 33.5047 85.784 33.3901 85.8987 33.5047C86.0721 33.5617 86.244 33.6764 86.244 33.9051H86.2441ZM79.4449 34.2502H79.3881C79.2722 34.0786 79.2162 33.9051 79.0996 33.9051C79.2722 33.2185 78.9269 32.7024 78.8122 32.1293L78.7542 31.9589C78.983 32.2446 79.4449 32.5307 79.3881 32.8753C79.4449 33.3901 79.5035 33.8493 79.4449 34.2502ZM69.534 33.6764L69.1308 34.0785C69.0167 33.9051 69.1308 33.5618 68.9001 33.3901C68.9001 33.3325 69.0734 33.2185 69.0167 33.1609C68.9001 33.0469 68.2095 32.8177 68.2095 32.8177C67.9215 32.6454 67.6903 32.4731 67.4597 32.1876C67.1723 32.1293 66.9997 32.3028 66.7104 32.3592C66.6531 32.3028 66.6531 32.1876 66.6531 32.1876C66.827 32.0147 66.827 31.6726 67.1723 31.6726C67.345 31.6726 67.5756 31.6726 67.7476 31.8431C67.9789 31.8431 68.0948 32.0736 68.2656 32.1293C68.5548 32.4732 68.7855 32.5308 69.0167 32.7024C68.9574 32.8753 69.0734 32.9893 69.1874 33.0469C69.5341 33.0469 69.4181 33.3901 69.5341 33.6764H69.534ZM88.4924 32.7601C88.4924 33.1045 88.4924 33.2185 88.3197 33.5047L87.9177 32.9893C88.0859 32.8177 88.0859 32.5307 88.2618 32.3028C88.3197 32.3028 88.4924 32.7024 88.4924 32.76V32.7601ZM78.2356 33.1609C77.9476 32.9893 77.601 32.9893 77.4285 32.7024C77.2564 32.6454 77.0251 32.6454 76.7365 32.6454C76.5071 32.7024 76.2179 32.7024 75.9873 32.7024C75.9299 32.7024 75.9873 32.6454 75.8733 32.5308C75.5266 32.7024 75.1228 32.7024 74.7768 33.0469L75.0654 32.3592C75.2954 32.3592 75.4687 32.1876 75.6413 32.1876C75.8152 32.1293 76.0452 32.1293 76.2179 32.1293V32.1876C76.9104 32.1876 77.6584 32.1293 78.1776 32.7024L78.2356 33.1609ZM86.8798 32.6454C86.8798 32.8753 86.8225 32.931 86.7651 33.2185C86.302 33.1609 86.3619 32.7025 86.244 32.6454C86.0134 32.3028 85.5534 32.5308 85.2074 32.5308C85.1501 32.1876 85.3221 32.1876 85.3221 32.0147C85.4974 32.0147 85.6693 31.8431 85.8427 31.9589C86.1293 31.8431 86.302 32.1293 86.5912 32.1293C86.7059 32.3028 86.8225 32.5308 86.8798 32.6454ZM69.8221 31.7866C69.8221 31.9589 69.764 32.7024 69.764 32.7024C69.6487 32.2446 69.3608 31.8431 69.0167 31.8431C68.7855 31.6726 68.6122 31.4997 68.5548 31.3281C68.3815 31.1565 68.2095 31.2705 67.9789 31.1565C67.7476 31.1565 67.4597 31.1565 67.1723 31.2705V31.1565L67.5756 30.6398C68.0363 30.7544 68.5548 30.6398 68.7281 30.9836C68.9575 31.1565 69.2468 31.2705 69.3608 31.4409V31.6144C69.4768 31.6727 69.7074 31.7296 69.8221 31.7867V31.7866ZM72.3577 31.6727C72.1265 31.8431 71.8958 31.8431 71.6658 31.7867L71.3192 31.2705C71.5492 31.3281 71.8958 31.3281 72.185 31.2705L72.3577 31.6727ZM82.4437 31.9589C82.4437 32.2446 82.0378 32.6454 81.9251 32.8753C82.0378 32.5307 82.0965 31.9589 81.9251 31.9589C81.8085 31.9007 81.5759 32.0147 81.5759 31.8431C81.5759 31.6726 81.6346 31.4409 81.6346 31.2705C81.6346 31.0995 81.4619 30.9836 81.4619 30.8133C81.4619 30.4682 81.8652 30.4112 81.9812 30.1819C82.0965 30.4112 82.0378 30.6974 82.0378 30.9266C82.0965 31.0995 82.2105 31.4409 82.0965 31.7296C82.0965 31.9007 82.4437 31.7866 82.4437 31.9589ZM78.0629 31.9589C77.7744 31.9589 77.5431 31.9589 77.371 31.6726C77.3124 31.6726 77.1984 31.4997 77.0825 31.6144C76.8525 31.8431 76.5071 31.4409 76.1606 31.4997C75.9873 31.6726 75.756 31.7866 75.5267 31.8431L75.4687 31.7866C75.4687 31.6144 75.6413 31.4409 75.8153 31.2706C76.2179 31.4409 76.5071 30.6397 76.9104 31.0995C77.0251 31.1565 77.2564 31.1565 77.371 31.1565C77.7744 31.2705 77.8891 31.6726 78.063 31.9589L78.0629 31.9589ZM73.9708 31.6144H73.9141C73.7976 31.6144 73.3936 31.4409 73.2789 31.2705C73.2223 31.1565 73.2223 30.9836 73.2223 30.9836C73.3936 30.9836 73.5102 30.9266 73.6823 30.9266L73.9708 31.6144ZM87.0519 31.9589C86.6479 31.9589 86.8798 31.1566 86.0134 31.1566C85.784 31.1566 85.6693 31.4409 85.4387 31.4997C85.4387 31.4409 85.4974 31.0995 85.4974 31.0995C85.4974 30.9266 85.5534 30.7544 85.784 30.5835C86.244 30.5835 86.1293 30.7544 86.4753 30.869C86.7059 30.9266 86.8225 31.0996 87.0519 31.0996V31.9589ZM81.0006 31.3281C81.0006 31.6727 80.8286 32.0147 80.7694 32.3592C80.7694 31.9589 80.656 31.6726 80.4247 31.4409C80.4247 31.3281 80.5974 31.2705 80.4827 31.1565C80.4827 31.1565 80.1367 30.9836 80.1367 30.7544C80.1367 30.4681 80.3674 30.2953 80.4827 30.123C80.4827 30.0673 80.7121 30.2402 80.7121 30.5834C80.7121 30.6974 80.7121 30.8133 80.656 30.9837C80.5974 31.1565 81.0006 31.1565 81.0006 31.3281ZM83.8249 30.1819C83.8249 30.4112 83.709 30.5834 83.7682 30.8133C83.5943 30.4682 83.4191 30.123 83.2483 29.781C83.1904 29.781 83.1343 29.781 83.1343 29.724L83.3038 29.6094C83.4191 29.6094 83.5943 29.6094 83.5943 29.724C83.709 29.8393 83.8249 30.0097 83.8249 30.1819ZM87.3399 30.6398C87.1647 30.5834 86.7651 30.5245 86.7651 30.3542C86.7651 30.123 86.6479 30.0673 86.3619 30.0673C86.072 30.0673 85.8987 30.123 85.5534 30.2402C85.5534 30.2402 85.3795 30.0096 85.3221 29.781C85.4387 29.724 85.8987 29.5505 86.1293 29.5505C86.5351 29.5505 86.9932 29.5505 86.9932 29.781C86.9932 29.9527 87.3399 30.0674 87.3399 30.6398ZM72.2411 29.4378C72.185 29.781 72.0117 29.8951 71.7231 30.2953C71.4937 30.4112 71.1472 30.4682 70.8013 30.6398C70.8586 30.4682 71.0319 30.4112 71.1472 30.2402C71.3192 30.0673 71.4938 29.781 71.5492 29.5505C71.8398 29.4378 72.0118 29.4378 72.2411 29.4378ZM82.9617 30.2402C82.9617 30.5834 82.9024 31.0425 82.9024 31.4409C82.7304 31.4409 82.7304 31.2705 82.7304 31.0995C82.6157 30.7544 82.5577 30.4112 82.4437 30.0673C82.2691 29.5505 81.9812 29.1515 81.7512 28.6341C81.6932 28.3486 81.4033 28.2333 81.1746 28.0617C81.4619 28.0617 81.7512 28.1187 81.9812 28.2916C81.9812 28.4632 82.0378 28.5208 82.2105 28.6931C82.6157 28.6931 82.5577 29.2072 82.9024 29.4948C82.9024 29.5505 82.789 29.5505 82.7304 29.6676C82.6157 29.6676 82.5577 29.8951 82.5577 29.8951C82.7304 30.0097 82.9024 30.0674 82.9617 30.2402ZM71.1472 28.9217C70.9733 29.2662 70.8013 29.6094 70.456 29.781C70.2253 29.781 69.9379 29.8951 69.5914 29.781C69.764 29.6094 69.938 29.5505 70.1673 29.4378L70.686 28.9217H71.1472ZM74.6041 29.781C74.4315 29.8951 74.0855 29.9527 73.9141 29.9527C73.4516 29.724 73.4516 29.2662 73.0489 29.0939C72.9903 29.0356 72.933 28.9216 72.933 28.8647L73.9141 29.0356C73.8555 29.2072 73.9708 29.2662 74.0855 29.2662C74.2588 29.4378 74.4315 29.6094 74.6041 29.781ZM81.4033 29.781C81.3472 29.8951 81.2306 29.9527 81.1746 29.9527C81.1746 29.9527 80.8853 29.6676 80.8286 29.4378C80.7694 29.1515 80.9433 28.75 80.9433 28.75C81.0006 28.75 81.058 28.8647 81.1746 28.8647C81.2306 28.9217 81.1746 29.0939 81.2306 29.2662C81.3472 29.4378 81.5199 29.6094 81.4033 29.781ZM69.534 28.75L69.2468 29.6094C68.9574 29.8951 68.5548 29.781 68.2095 29.781C68.7281 29.6094 69.0734 29.0939 69.2468 28.75C69.3608 28.6931 69.4181 28.75 69.534 28.75ZM76.6792 29.4378H76.5071C75.8152 29.6094 75.2954 29.2072 74.7768 28.8647C75.1228 28.75 75.4113 28.75 75.6413 28.6931H75.8152L76.0452 29.0356C76.2179 29.0939 76.5071 29.2662 76.6792 29.4378ZM87.8578 29.3801C87.4571 29.3801 87.0519 29.2072 86.9932 29.0356C86.8798 28.9216 86.9372 28.6931 86.7059 28.6931C86.5351 28.6931 86.4185 28.8647 86.4185 28.8647C86.244 28.9217 85.8987 28.6931 85.8987 28.8647C85.8987 29.1515 85.612 29.2662 85.3795 29.2662C85.2074 29.2662 85.1501 29.2662 84.9762 29.2072V28.6341C85.784 28.6341 85.7261 28.3486 86.072 28.3486C86.302 28.3486 86.4753 28.5209 86.7059 28.5209C86.9932 28.5209 86.8225 28.4069 87.1098 28.4069C87.3998 28.4069 87.5113 28.6341 87.7437 28.6931C87.7437 28.8647 87.8578 29.0939 87.8578 29.3801ZM68.7281 28.0047C68.7281 28.2333 68.5548 28.5778 68.2656 28.8647C68.2095 28.9217 68.0362 29.0356 68.0362 29.0356C68.0362 28.6931 68.2095 28.3486 68.2095 28.0617C68.3815 28.0047 68.5548 27.8894 68.7281 28.0047ZM77.7176 28.75C77.4284 28.75 77.0251 28.75 76.7957 28.5777C76.4479 28.3486 76.3339 28.2333 76.1606 28.0617C76.3925 27.8894 76.6792 27.8894 76.8525 27.833C77.0251 28.0617 77.3125 28.5208 77.7176 28.75ZM80.5974 28.4632C80.5974 28.6341 80.4827 28.6931 80.3674 28.807C80.3674 28.807 80.1367 28.5208 80.1367 28.3486C80.1367 28.1763 80.1367 28.0047 80.1941 27.833C80.3674 28.0047 80.5974 28.2333 80.5974 28.4631V28.4632ZM83.2483 28.5778C82.7304 28.2332 82.3851 27.7178 81.9251 27.2035C82.3851 27.2035 82.5577 27.6601 82.9024 27.7178C83.019 27.833 83.1343 27.8894 83.2483 28.0616V28.5778ZM72.5297 27.1453C72.5297 27.5473 72.4718 28.0617 72.0703 28.2333L71.8958 27.6601C72.1265 27.5474 72.3003 27.3751 72.5297 27.1453ZM71.2625 28.0617C70.9166 27.7178 70.6267 27.3751 70.6267 27.0319C70.8013 27.0319 70.9733 27.0319 71.1472 27.2035C71.1472 27.4898 71.3192 27.7178 71.2625 28.0616V28.0617ZM87.7437 28.0047C87.2246 27.7754 86.4752 27.5474 86.072 27.5474C85.8426 27.5474 85.1501 27.833 84.8628 28.1187L84.7481 27.5474C85.1501 27.4898 85.1501 27.2035 85.3795 27.2035C85.5534 27.2035 85.784 27.1452 85.9586 27.1452C86.1293 27.1452 86.244 26.9737 86.3619 26.9737C86.5913 26.9737 86.4753 27.3169 86.706 27.3169C86.8798 27.3169 86.9372 27.2035 87.1098 27.2035C87.3998 27.2035 87.6858 27.6601 87.7437 28.0047ZM73.8555 28.0617C73.5663 27.8894 73.0489 27.833 73.1063 27.4898C73.2789 27.2035 73.4516 27.1452 73.5663 26.9737C73.6249 27.3751 73.6823 27.7178 73.8555 28.0617ZM79.1575 27.7178L78.8695 27.833C78.2356 27.833 77.889 27.6601 77.601 27.3751C77.8317 27.3751 78.1776 27.1453 78.1776 27.1453C78.4662 27.3751 78.8696 27.6601 79.1575 27.7178ZM67.9216 27.1453C67.6903 27.3751 67.4016 27.5473 67.2291 27.8894C67.2291 27.7178 67.1723 27.5473 67.1144 27.3751C67.1723 27.2035 67.345 27.0319 67.4597 26.9737C67.5756 27.032 67.7476 27.032 67.9216 27.1453ZM75.2954 27.833C75.0654 27.8894 74.6621 28.0047 74.4894 27.7178C74.1429 27.2035 74.3735 26.6868 74.5468 26.2878C74.6621 26.6304 74.7201 26.9737 74.7768 27.3169C74.8354 27.5474 75.1801 27.6601 75.2954 27.833V27.833ZM79.8481 26.859C79.6175 26.9737 79.1575 27.0319 78.8122 26.8014L79.2722 26.5158C79.4449 26.6868 79.6761 26.8014 79.8481 26.859ZM86.3619 26.6867C86.0134 26.6867 85.8987 26.6304 85.612 26.6304C85.3795 26.6304 85.0348 26.8014 84.8042 27.0319C84.6882 26.859 84.7481 26.6868 84.8042 26.5159C84.9762 26.3429 85.2648 26.115 85.5534 26.115C85.9586 26.115 86.3619 26.4582 86.3619 26.6867ZM69.3608 27.3169C68.9574 27.2035 68.5548 26.859 68.3815 26.5158C68.2656 26.2878 68.2095 25.9997 68.2095 25.7698C68.4389 25.8274 68.6122 25.9997 68.7281 26.115V26.1707C68.9575 26.5158 69.3034 26.859 69.3608 27.3169ZM70.11 26.3429L69.9953 27.1452C69.764 26.8014 69.5914 26.4582 69.534 25.9997L70.11 26.3429ZM76.0452 27.0319C75.6986 27.1453 75.4686 26.859 75.2381 26.6868C75.0654 26.3429 75.0654 25.9997 74.9507 25.7698C75.2381 25.9997 75.6986 25.9997 75.6413 26.5158C75.6413 26.6868 75.8733 26.859 76.0452 27.0319ZM77.4285 26.3429C77.0825 26.3429 76.6792 26.5158 76.5071 26.1706C76.6212 26.1149 76.7365 25.9433 76.9104 25.8274L77.4285 26.3429ZM86.4186 25.7698C86.0133 25.6564 85.7261 25.5411 85.3795 25.5411C85.2074 25.5411 84.6882 25.6564 84.6315 25.7698C84.4569 25.5981 84.7481 25.0846 84.9762 24.9693C85.2074 24.8547 85.3795 24.9123 85.4974 24.9693C85.4974 25.3132 85.8987 25.1416 86.1293 25.2549C86.244 25.4259 86.3619 25.5981 86.4185 25.7698H86.4186ZM78.5242 25.4841C78.4083 25.6564 78.2356 25.4841 78.1197 25.4841H77.601C77.5431 25.3132 77.4857 25.2549 77.4284 25.1415C77.7176 25.0846 77.8891 24.9692 78.063 25.0846C78.2356 25.2549 78.2924 25.4841 78.5242 25.4841ZM73.5663 24.5684C73.5102 24.9123 73.3936 25.4841 73.0489 25.6564C73.0489 25.4841 72.8756 25.3132 72.7604 25.1415C72.7036 25.1415 72.7604 25.3132 72.7036 25.3132C72.7036 25.4841 72.6463 25.6564 72.6463 25.9433C72.4718 25.9997 72.2411 26.115 72.0118 25.9997V25.8274C71.8958 25.6564 71.8958 25.4841 71.8958 25.3132L71.8397 25.2549C71.7231 25.3132 71.7231 25.4841 71.7231 25.5981C71.6658 25.6564 71.4937 25.8274 71.4937 25.9997C71.3192 25.9997 71.1472 25.9433 70.9733 25.8274V25.2549C70.9733 25.1415 70.9733 25.1415 70.9166 25.1415L70.6267 25.4841C70.3992 25.2549 70.3413 24.797 70.3413 24.4525C71.3192 23.9377 72.4718 24.1093 73.2223 24.3975C73.3363 24.4525 73.4517 24.4525 73.5664 24.5684H73.5663ZM78.063 24.1093C77.7176 24.1093 77.5431 23.9376 77.371 23.5938C77.371 23.4228 77.3124 23.1923 77.371 22.9067C77.4284 23.0783 77.4857 23.2505 77.601 23.3639C77.8317 23.2505 77.8317 23.5355 77.8891 23.5938C77.9477 23.766 78.063 23.9376 78.063 24.1093ZM76.7957 21.3012C76.7957 21.3602 76.6792 21.8168 76.6792 21.8168L76.2179 21.9903L76.5071 20.6718C76.6212 20.9004 76.7957 21.1303 76.7957 21.3012ZM67.6336 20.3279L67.4017 20.6718C67.4598 21.3012 67.1723 21.7034 67.1723 22.2183L66.8838 21.3012C66.9411 21.0157 66.9998 20.7864 67.1724 20.5002L67.6336 20.3279ZM76.6792 23.9376C75.9874 23.5355 75.1802 23.2505 74.3163 23.1923C74.3163 23.3639 74.3163 23.5355 74.2589 23.5938C74.9508 23.9376 75.6414 24.2809 76.218 24.797V25.3132C75.6414 24.74 74.9508 24.1093 74.1429 23.9376C74.0856 24.0523 73.9142 24.224 73.7976 24.3975C73.3937 24.1093 72.9331 23.8806 72.4158 23.766C72.2412 23.766 72.1851 23.5354 72.1851 23.3639L72.1265 23.0783C72.4158 23.0206 72.6465 22.7914 72.7037 22.5058C72.7605 22.5628 72.8758 22.5628 72.9905 22.5628C73.1064 22.5058 73.1064 22.3905 73.1064 22.2183C73.1064 21.8756 72.3578 21.8756 72.0119 21.8756C71.6085 21.8756 71.3194 21.8168 71.0319 22.0473C70.9166 22.0473 70.9733 22.2183 70.9733 22.3336C70.9733 22.3906 71.1472 22.5059 71.1472 22.5059C71.3193 22.5059 71.3779 22.3906 71.4939 22.3906C71.4346 22.7344 71.6086 22.963 71.8959 23.0783L71.8398 23.5938C71.6659 23.766 71.3779 23.6507 71.1473 23.766C70.8014 23.9376 70.4561 24.1093 70.1101 24.2809C69.938 24.1093 69.822 23.9376 69.7074 23.766C69.1309 23.9376 68.7855 24.2809 68.2096 24.6254C68.0363 24.74 67.7477 24.9693 67.7477 24.9693C67.6904 24.9123 67.7477 24.74 67.7477 24.5684C68.2656 24.0523 68.9576 23.8806 69.5341 23.5354V23.0783C69.3035 23.0206 69.0735 23.0783 68.7856 23.0783C68.2656 23.1923 67.7477 23.4228 67.3451 23.7077C67.3451 23.5354 67.2291 23.3639 67.4017 23.2505C68.0363 22.9067 68.7856 22.6774 69.5915 22.7345V22.5058C69.5341 22.3906 69.5341 22.2183 69.4181 22.2183C69.0735 21.8168 68.7282 21.3602 68.7282 20.9587L68.9002 20.8428C68.7855 20.5002 68.7282 19.6401 68.9002 19.2399C68.5549 19.1253 68.2096 18.7814 68.0949 18.5528C67.979 18.2653 67.863 18.0943 67.8064 17.7504C67.9217 17.4072 68.0949 17.2349 68.2656 16.891C68.3816 16.891 68.5549 16.8341 68.6123 16.7187C68.9002 16.6618 69.1309 16.375 69.4768 16.5472C69.7074 16.5472 69.938 16.6618 70.1101 16.7188C70.1101 16.8341 70.1101 16.8911 70.284 17.0057C70.6268 17.0627 70.6268 17.4072 70.8013 17.6921C70.9734 17.7504 71.1472 17.7504 71.3193 17.7504C71.666 17.8644 71.8959 17.8644 72.0704 18.0367C72.5298 17.7504 73.049 17.6921 73.5664 17.7504C73.625 17.5211 73.7409 17.3489 73.7976 17.0627C73.9142 17.1773 73.8556 17.0057 73.971 17.0057C74.2589 16.8341 74.5469 16.5471 74.9508 16.6618C75.2381 16.8341 75.6414 16.7188 75.8153 17.0627C76.0453 17.2349 76.1607 17.5787 76.334 17.922C76.1606 18.2653 76.334 18.7814 75.9874 18.9524L75.6414 19.2975C75.5267 19.2975 75.4687 19.4109 75.2955 19.4109C75.4688 19.8124 75.3534 20.4439 75.1802 20.8428C75.2955 20.7864 75.4687 20.7864 75.5268 20.6148C75.5841 20.6718 75.5268 20.7864 75.5268 20.8428C75.4687 20.9587 75.4687 21.0157 75.4687 21.0157C75.5268 21.3602 75.2954 21.6451 75.0655 21.8756C74.9508 22.2183 74.6622 22.6774 74.2589 22.7344V22.9067C75.1228 22.9067 75.8733 23.0783 76.6792 23.5355V23.9376ZM89.643 20.1563C89.4697 19.9846 89.2977 19.8124 89.0671 19.8124C88.8957 19.5831 88.667 19.2975 88.4325 19.2975C88.6071 19.2399 88.8371 19.1252 89.1251 19.1252C89.2977 19.4109 89.4698 19.6401 89.5284 19.8124L89.643 20.1563ZM67.5177 19.4691L67.1144 19.6401L67.1724 19.2975C67.2871 19.1252 67.3451 18.9524 67.5177 18.7815V19.4691ZM87.8018 18.8967C87.5712 18.8967 87.3998 18.9524 87.1648 18.8967C87.052 18.7814 86.8799 18.8967 86.7652 18.9524C86.648 18.9524 86.5352 18.8967 86.362 18.7814C86.7061 18.7814 86.8799 18.5528 87.1648 18.4369C87.3998 18.6092 87.6272 18.7244 87.8018 18.8967ZM75.0655 35.4534C75.0655 35.2248 74.8922 35.1095 74.6622 35.1095C74.4895 35.1095 74.2589 35.3388 74.2589 35.4534C74.2589 35.6833 74.0856 36.9999 74.0856 36.9999H74.547C74.7202 36.4274 75.0655 35.7397 75.0655 35.4534ZM73.7409 35.3945H73.6823L73.2224 34.9373H73.1637C73.049 35.0506 72.9904 35.2248 72.8757 35.3945C72.8757 35.9119 73.049 36.4858 73.1637 36.9999H73.6823C73.6823 36.4274 73.741 35.9119 73.741 35.3945H73.7409ZM83.0191 34.7074L82.4438 34.765C82.6158 34.9373 82.6158 35.1665 82.6158 35.2811C82.6158 35.4534 82.5578 35.6244 82.4438 35.7397C82.2692 35.6244 82.2692 35.4534 82.1532 35.2811C82.0379 35.2811 81.9812 35.5662 81.9812 35.6833C81.9812 36.2558 82.2106 36.658 82.3852 37H82.9618C82.9025 36.4857 82.7891 36.0829 82.7891 35.5662C82.7891 35.2811 82.9618 34.9373 83.0191 34.7074ZM96.0408 29.2072C96.0408 26.8014 95.235 24.2239 93.0439 22.0473C92.6948 21.7034 92.2386 21.3012 91.7754 21.0157C90.9109 20.4438 90.1069 19.6401 89.643 18.7814C89.3551 18.4369 89.1251 18.2654 88.7779 18.0943C88.8371 18.2653 88.9505 18.4369 89.0085 18.6092H88.9505C88.6072 18.6092 88.3198 18.4369 88.0859 18.2653L88.3198 18.0366C88.2618 17.922 88.0859 17.922 87.9706 17.922C86.9373 17.7504 86.0721 18.2653 85.1502 18.4369V18.5528C85.7262 18.7814 85.8427 19.4691 86.1861 19.8124H86.5352C86.706 19.8124 86.8799 19.9847 86.9933 19.9276C86.9933 19.8124 86.8799 19.6401 86.8799 19.5831C86.9933 19.4691 87.1099 19.4691 87.2246 19.5831C87.5113 19.7547 87.9706 19.4691 88.2006 19.9277C87.8579 19.9277 87.5113 19.9846 87.2246 20.0987C87.2246 20.1563 87.3998 20.3279 87.3399 20.4438C87.0519 20.3279 86.7061 20.4438 86.5353 20.1563L86.4754 20.2709C86.8799 20.6718 87.3998 21.0157 87.9178 21.1885C88.7224 21.3602 89.4137 20.9587 90.1635 21.1302C91.0288 21.5311 91.7187 22.0473 92.2953 22.6204C94.1971 24.6254 94.8902 26.7438 94.8902 28.6341C94.8902 30.9837 94.1971 32.6454 93.1605 33.6764C92.5247 34.3085 91.7187 34.8796 90.7388 34.8796C90.5094 34.8796 90.047 34.822 89.7596 34.5934C89.9317 33.9051 90.047 33.1609 90.047 32.0736C90.047 31.4409 90.047 29.781 89.2417 27.833C89.0671 27.4321 88.4325 26.1707 87.6273 25.3132C86.9933 24.6824 86.2441 24.1093 85.4975 24.1093C85.1502 24.1093 84.8043 24.167 84.515 24.3975C84.2283 24.6824 84.055 25.1415 84.1136 25.4841C83.5944 25.7698 82.8446 25.9997 82.2106 25.9997C81.462 25.9997 80.656 25.5981 79.9629 25.1416V24.281C79.5596 24.1093 79.4449 23.9376 79.3882 23.5938L79.4449 23.5355C79.6176 23.5938 79.7348 23.7078 79.8482 23.766C79.7909 23.3639 79.7348 22.9067 79.5036 22.5628C79.3302 22.5628 79.1576 22.5058 78.9831 22.3905C78.7543 22.2183 78.6384 21.9903 78.6384 21.7034C78.8123 21.9903 79.0996 21.8757 79.2722 22.0473C78.9831 21.3602 79.0996 21.0157 78.5804 19.9276C78.4084 19.4109 77.8891 19.1253 77.5432 18.7814C77.3711 18.6091 77.3126 18.4369 77.0252 18.4369C76.8526 18.3793 76.8526 18.0943 76.7958 17.922C76.9105 17.922 77.0252 18.0366 77.1405 18.0943C76.8525 17.2349 76.5645 16.3749 75.7561 15.8594L75.6414 15.9746C75.2955 16.0304 74.9508 16.0304 74.6622 16.0304C74.7769 15.8594 75.0075 15.8023 75.2381 15.6883C75.0075 15.5161 74.8354 15.4586 74.4896 15.4586C74.3736 15.5161 74.0856 15.6883 73.8556 15.6883H73.7976C73.7976 15.5161 73.7409 15.2856 74.0857 15.1723C73.7409 15.114 73.4517 15.114 73.0491 15.1723C72.9905 15.4586 72.7605 15.6308 72.7605 15.8594C72.5877 16.0304 72.5298 16.2027 72.3578 16.3749C72.3578 15.9746 72.5298 15.6308 72.5877 15.2856C72.3578 15.3433 72.0704 15.5162 71.8959 15.5162C71.4346 15.2856 70.8587 15 70.6268 15C70.9734 15.2856 70.8014 15.6883 70.8587 16.0304L70.6267 15.8594C70.5134 15.6308 70.284 15.4585 70.1674 15.1723C69.8221 15.1723 69.5915 15.2856 69.3035 15.4586L69.2468 15.5161C69.4768 15.5161 69.7074 15.6884 69.8221 15.8594C69.4182 15.8594 69.1309 15.6884 68.7282 15.6884C68.7282 15.6884 68.7282 15.6308 68.6122 15.6308C68.4389 15.6884 68.2656 15.8594 68.1504 15.9746C67.7476 16.3173 67.4598 16.6618 67.2291 17.1773C67.3451 17.1773 67.5177 17.1773 67.5758 17.2349C67.4017 17.3489 67.2291 17.5788 66.9997 17.6921V18.5528C66.827 18.7814 66.5964 18.9524 66.4805 19.2399C66.1919 20.2709 66.1346 21.3602 66.1346 22.5628C66.0193 22.7344 65.9039 22.7914 65.7905 22.8497V23.8806C65.7905 23.8806 66.1919 23.4791 66.3652 23.3639C66.3652 23.5938 66.3078 23.9376 66.3078 24.167C66.1345 24.167 65.9039 24.3975 65.9039 24.6254C65.9039 24.8547 65.9612 25.0846 65.9612 25.3132C65.9612 25.4259 65.9612 25.4841 66.0193 25.5981C66.0772 25.4841 66.1919 25.3132 66.3078 25.2549C66.3652 25.2549 66.4805 25.1415 66.6532 25.1415C66.5385 25.3132 66.4805 25.5981 66.3652 25.8274L66.1918 25.9997C66.1918 25.9997 66.1346 26.115 66.1346 26.1707C66.3079 27.3751 66.7105 28.5208 67.1724 29.724C66.7685 30.5245 66.3653 31.3851 66.1919 32.0147C66.0193 32.4732 65.7905 33.3901 65.7905 33.3901C65.5019 33.1045 65.0973 33.0469 64.7513 33.0469C64.3488 33.1045 64.0028 33.2185 63.7142 33.5618C63.3689 33.3901 62.9076 33.4471 62.677 33.7334C62.1591 34.1938 62.1591 34.4218 62.1591 34.765C61.9857 34.9373 61.7551 35.2248 61.7551 35.6244C61.7551 36.1982 61.871 36.5401 62.1591 36.9999H71.3193C71.2046 36.8283 71.0887 36.5991 70.9734 36.4274C70.8013 36.0829 70.9167 35.6244 70.9167 35.2811C71.0887 34.9373 71.3194 34.5934 71.4938 34.2502C71.5493 34.0786 71.4938 34.0786 71.6085 34.0203L72.0119 33.8493C72.2412 33.8493 72.4158 33.7334 72.7037 33.7334C72.9331 34.0203 72.9331 33.5047 73.2224 33.3901C73.9142 33.3325 74.4895 33.3901 74.8355 33.9051C74.8355 34.0203 74.9508 34.0203 74.9508 34.0786H74.6622C74.3163 33.9051 73.8556 33.7334 73.4517 33.9051C73.4517 34.0786 73.3937 34.0786 73.3937 34.2502V34.5365C73.625 34.5934 73.7976 34.765 74.0282 34.9373C74.1429 34.7074 74.4896 34.5364 74.7769 34.5364C75.0655 34.5364 75.5268 34.7074 75.5268 35.2247C75.5268 35.4534 75.4687 35.6833 75.4687 35.912C75.6987 36.0829 76.0453 36.1387 76.334 36.3115C76.218 36.4857 76.0453 36.4857 75.8734 36.4857H75.3534C75.2955 36.4274 75.1801 36.4274 75.1801 36.3115C75.0075 36.4857 74.8922 36.7707 74.7769 36.9999H81.8086C81.6933 36.7707 81.576 36.5991 81.52 36.4274C81.3473 36.0829 81.4034 35.6244 81.3473 35.2811L82.0379 34.3661C82.3852 34.3661 82.7305 34.2502 83.3638 34.1938C83.4778 34.0203 83.3638 33.9051 83.8811 33.8493C84.3417 33.8493 84.6316 34.0203 84.7481 34.0786C84.8042 34.1938 84.8042 34.1938 84.7481 34.3085C84.6316 34.4218 84.4016 34.1938 84.2283 34.2502C84.1136 34.3661 84.2863 34.4218 84.2863 34.5365C84.4016 34.6505 83.7683 34.4218 83.7683 34.4218C83.7683 34.4218 83.5944 34.765 83.537 34.9373C83.537 34.9373 83.8251 35.1096 83.8811 35.2811C83.9977 35.4534 83.7683 35.6244 83.7683 35.7973C83.5944 35.7397 83.4192 35.5662 83.3638 35.6244C83.2484 36.0829 83.3638 36.4857 83.3039 36.9999H83.9397L84.055 35.9683C84.1136 35.3945 84.8043 34.3085 85.2075 34.3085C85.4975 34.3085 85.6121 34.4218 85.8428 34.5934C86.0135 34.765 86.2441 34.9373 86.2441 35.0506C86.2441 35.1095 86.0721 35.2248 85.7841 35.2248C85.6694 35.2248 85.6121 35.0506 85.4975 34.9373L85.1502 35.2811C85.1502 35.2811 85.5535 35.6244 85.5535 35.912C85.5535 36.1387 85.4975 36.3115 85.2649 36.4274L84.9208 35.7397C84.7481 35.7397 84.457 36.0829 84.457 36.3115C84.457 36.5401 84.3417 36.658 84.3417 36.9999H88.0859C88.4925 36.9999 88.8371 36.884 89.2417 36.6579H89.9896C91.0288 36.6579 92.354 36.4857 93.7345 35.1665C95.9249 33.1045 96.0408 30.2953 96.0408 29.2072ZM72.7037 36.9999C72.4157 36.4274 72.3578 35.6244 72.3578 35.4534C72.3578 35.1095 72.3578 34.7074 72.5298 34.4218L71.8399 34.5934C71.7232 34.765 71.6659 34.9373 71.6659 35.0506L71.8959 34.9373C72.0119 34.9373 72.0704 35.0506 72.1265 35.1096C72.0705 35.4533 71.7232 35.4533 71.5493 35.5662C71.3779 36.1387 71.896 36.4857 72.0119 36.9999H72.7037Z" fill="#EB6606"/></svg>