<svg width="98" height="56" fill="none" xmlns="http://www.w3.org/2000/svg"><path fill-rule="evenodd" clip-rule="evenodd" d="M33.6817 15.5264H44.0111L38.9918 39.494H28.6584L33.6817 15.5264Z" fill="#ED1C2E"/><path fill-rule="evenodd" clip-rule="evenodd" d="M41.9122 39.494H51.6482L53.582 30.2489C57.2688 30.1304 58.5227 30.5491 58.1257 32.4289L56.6478 39.494H66.3405L67.9638 31.7299C68.18 30.6991 68.7146 28.1756 64.4657 27.0185C68.7892 25.8337 69.7208 23.3576 70.0785 21.6358C70.9235 17.6115 67.6455 15.5264 62.6104 15.5264H46.9315L41.9122 39.494ZM54.6747 25.0399L55.7634 19.8428C58.5581 19.8744 60.7827 19.7559 60.2796 22.161C59.6272 25.2729 58.5384 24.9847 54.6747 25.0399Z" fill="#ED1C2E"/><path fill-rule="evenodd" clip-rule="evenodd" d="M61.2819 41.0428C58.7608 42.3711 56.1109 43.4364 53.3736 44.2219C39.2552 48.2777 26.2962 44.0876 24.4292 34.8623C23.3601 29.5585 26.1861 23.7532 31.457 18.9984L31.9522 16.6289C23.1203 22.3078 17.8848 29.8271 19.2016 36.3511C21.1393 45.9437 36.4959 49.7586 53.5073 44.8735C56.9045 43.8983 60.2056 42.612 63.369 41.0309L61.2819 41.0428Z" fill="#ED1C2E"/><path fill-rule="evenodd" clip-rule="evenodd" d="M80.797 18.658C78.8592 9.06547 63.5026 5.23081 46.4912 10.1357C43.0937 11.1101 39.7926 12.3964 36.6295 13.9783H38.7127C41.2344 12.6564 43.8843 11.5977 46.6209 10.8189C60.7473 6.75915 73.7023 10.9492 75.5693 20.1824C76.6385 25.4743 73.8242 31.2717 68.5691 36.0187L68.0738 38.3882C76.8939 32.7132 82.1176 25.2018 80.797 18.6817V18.658Z" fill="#ED1C2E"/></svg>