<svg width="98" height="56" fill="none" xmlns="http://www.w3.org/2000/svg"><g clip-path="url(#clip0)"><path fill-rule="evenodd" clip-rule="evenodd" d="M70.2248 24.7729C71.3266 25.4432 69.7075 28.0232 69.2574 28.8358C67.9797 31.0704 66.2157 32.6041 66.7123 32.9292C67.3227 33.3355 68.6108 31.3497 69.0557 31.7865C69.5005 32.2232 69.0246 33.0104 67.8348 34.1023C66.8635 34.9278 65.7764 35.6119 64.6069 36.1338C64.0585 36.403 63.474 37.4542 62.9205 38.1652C61.4824 39.9918 59.6295 41.4631 57.5095 42.4618C57.0104 42.7245 56.4565 42.8711 55.8906 42.8905C55.3247 42.9099 54.7618 42.8014 54.2453 42.5735C53.9866 42.4166 53.7805 42.1886 53.6527 41.9177C53.5248 41.6469 53.4809 41.3451 53.5262 41.0499C53.7073 38.6426 56.568 36.794 58.8338 35.7834C60.008 35.2755 61.2599 34.9048 62.4549 34.468C62.6771 34.3437 62.8672 34.171 63.0107 33.9632C63.1542 33.7554 63.2472 33.5181 63.2826 33.2694C63.2826 33.1983 63.2101 33.1374 63.1481 33.112C61.9531 33.6199 60.4943 34.3867 59.1286 33.7011C58.8459 33.5478 58.6008 33.3356 58.4104 33.0794C58.2201 32.8232 58.0891 32.5293 58.0268 32.2182C57.8147 30.2984 59.1441 28.8002 60.4633 27.6829C60.5047 27.5661 60.6805 27.3884 60.5305 27.2919C60.1011 27.0379 59.4959 27.1903 59.0562 27.0278C58.6165 26.8653 58.063 26.6266 57.6543 26.8907C57.2767 27.2614 57.375 27.8505 57.1939 28.3025C56.5473 30.7809 54.8816 33.2694 52.5796 34.5645C51.4881 35.1181 49.8999 35.3771 48.7412 34.7422C48.2321 34.4603 47.8074 34.0519 47.5097 33.5582C47.2119 33.0644 47.0515 32.5025 47.0444 31.9287C47.1572 30.4055 47.694 28.9421 48.5963 27.6982V27.6372H48.6377C49.5086 26.5679 50.5886 25.6804 51.814 25.0268C53.2831 24.2548 54.9954 23.9451 55.2799 24.8744C55.4816 25.5499 55.1971 25.4331 53.3452 26.6774C51.695 27.7591 50.2052 30.5422 51.5863 31.3649C52.683 32.015 54.6333 30.0039 55.1764 27.5864C55.373 26.7078 55.373 26.657 55.4558 26.1543C55.6472 24.9303 56.4128 24.7526 56.9766 24.7881C57.5067 24.8584 58.0272 24.9862 58.5285 25.169C60.1599 25.6125 61.8876 25.579 63.4998 25.0725C64.6845 24.7475 66.2571 23.7521 67.5658 24.4986C68.0831 24.7932 67.6952 25.5499 67.1779 25.7327C65.2627 26.3513 63.6047 27.5654 62.4549 29.1913C62.16 29.6534 61.86 30.4152 62.3411 30.9434C62.5221 31.1415 62.8584 31.0907 63.1222 31.0298C63.893 30.8368 65.4035 29.7195 66.0501 27.9419C66.5674 26.5707 69.0764 24.0923 70.1886 24.7576L70.2248 24.7729ZM72.744 36.9616C72.744 38.0637 69.7282 41.0245 68.9419 40.2373C68.2745 39.5619 71.3421 36.9616 72.744 36.9616ZM49.6051 20.0701C48.2601 22.1828 45.1097 26.0578 44.0803 26.4488C44.2044 25.2503 45.7719 21.9085 48.2601 19.3387C49.9465 17.5968 50.8104 18.191 49.6051 20.0701ZM88.8218 27.5966C88.8413 29.0326 88.4036 30.4388 87.5699 31.6189C87.3295 31.9566 86.9733 32.1982 86.5664 32.2994C86.4631 32.3116 86.3585 32.2928 86.2662 32.2457C86.1739 32.1986 86.0983 32.1253 86.0491 32.0353C85.8784 31.6341 85.8266 31.1009 85.3352 30.9079C85.1127 30.7657 84.7765 30.8418 84.6679 30.5727C84.7196 30.1816 85.1283 29.9988 85.3766 29.7347C86.3594 28.9526 87.4458 28.0689 88.5114 27.3833C88.5831 27.3723 88.6563 27.3882 88.7167 27.4277C88.777 27.4672 88.8201 27.5274 88.8373 27.5966H88.8218ZM28.4422 26.073C29.1302 26.6367 26.5696 29.7956 26.073 29.4554C25.3953 28.9983 27.5007 25.296 28.4422 26.073ZM87.0526 35.4786C86.4513 35.7092 85.8044 35.8025 85.1609 35.7515C84.5175 35.7005 83.8942 35.5064 83.3384 35.1841C82.5211 34.6305 82.2676 33.696 82.3038 32.7006C82.2477 32.6007 82.1553 32.5253 82.0449 32.4895C81.9346 32.4537 81.8146 32.4602 81.7089 32.5076C80.4829 33.0155 79.5414 33.8332 78.3775 34.4883C77.8212 34.7327 77.2996 35.0468 76.8255 35.4228C74.4615 38.6883 72.8268 41.2988 69.5419 42.6852C68.6315 42.9899 67.4158 43.1931 66.5933 42.5887C65.8742 42.0809 65.8225 41.1413 66.0243 40.349C66.8933 36.9311 71.399 35.6056 74.596 34.1023C74.7506 34.0118 74.8793 33.8841 74.9698 33.7313C75.0603 33.5785 75.1097 33.4055 75.1133 33.2288C74.7667 33.0307 74.4356 33.4421 74.0787 33.5183C73.7486 33.7413 73.375 33.8948 72.9815 33.9691C72.588 34.0434 72.183 34.0369 71.7922 33.95C71.4472 33.8878 71.1218 33.747 70.8424 33.5388C70.5629 33.3306 70.3372 33.0609 70.1834 32.7514C69.6299 31.37 70.3851 30.0293 71.0111 28.9069C71.8875 27.6599 73.0057 26.5947 74.3016 25.7721C75.5975 24.9495 77.0458 24.3856 78.5637 24.1127C79.1793 24.1127 79.8983 23.9857 80.2501 24.59C80.2839 24.7079 80.2834 24.8327 80.2487 24.9503C80.214 25.0679 80.1463 25.1736 80.0535 25.2553C78.9931 25.88 77.6998 26.1035 76.6548 26.7281C75.6099 27.3528 74.4615 28.3432 74.1304 29.6027C74.0865 29.7814 74.0891 29.9681 74.1379 30.1455C74.1868 30.323 74.2802 30.4856 74.4098 30.6184C75.2271 31.0958 75.9617 30.3645 76.5928 30.0039C77.7929 28.8713 78.2792 27.0176 79.8207 26.0628C80.0363 25.9357 80.2831 25.8685 80.5346 25.8685C80.7861 25.8685 81.0329 25.9357 81.2485 26.0628C81.4104 26.2066 81.5303 26.3902 81.5958 26.5946C81.6613 26.7991 81.67 27.017 81.621 27.2259C81.1761 28.6682 80.0328 29.8566 79.4379 31.2075C79.4379 31.3091 79.5 31.3396 79.5776 31.3802C79.9768 31.2419 80.3506 31.0413 80.6846 30.786C84.0005 28.5615 86.944 25.4483 90.5755 23.5946C91.4808 23.2137 92.8464 22.8582 93.6793 23.6556C93.8379 23.8285 93.9422 24.0427 93.9798 24.2724C94.0175 24.5021 93.9867 24.7376 93.8914 24.9506C93.4413 25.9664 91.9567 25.1893 91.5894 26.3219C91.2997 28.1146 91.7497 30.1004 90.9221 31.7052C90.3864 33.0501 89.4136 34.1837 88.1545 34.9301C87.8493 35.1181 87.0475 35.499 87.0475 35.499L87.0526 35.4786ZM87.4872 19.42C87.7028 19.6745 87.8518 19.9769 87.9212 20.3009C87.9907 20.6248 87.9784 20.9605 87.8855 21.2788C87.6686 21.9918 87.2778 22.6421 86.7468 23.1731C86.2158 23.7042 85.5607 24.0999 84.8386 24.326C84.6679 24.3818 84.3937 24.5037 84.3213 24.0873C84.192 23.5134 84.9058 23.0258 84.6989 22.3758C84.492 21.7257 83.804 21.6495 83.804 20.9182C83.7916 20.5939 83.854 20.2711 83.9866 19.9738C84.1192 19.6766 84.3185 19.4126 84.5696 19.2016C85.0046 18.8901 85.538 18.7401 86.075 18.7782C86.612 18.8164 87.1179 19.0401 87.5027 19.4098L87.4872 19.42ZM40.1488 21.2229C38.8038 23.3305 36.0931 26.4031 35.0637 26.8094C35.1878 25.6108 36.3104 23.0817 38.7986 20.5119C40.485 18.7699 41.3489 19.3641 40.1488 21.2432V21.2229ZM22.4518 15.8243C22.9691 16.3322 22.576 16.84 22.3484 17.1701C18.6859 22.2488 16.5805 26.3117 13.8491 30.9688C12.7472 32.5178 11.6195 34.3613 9.75723 34.986C9.45897 35.1196 9.13117 35.1769 8.80429 35.1528C8.4774 35.1287 8.16202 35.0239 7.88745 34.848C7.61288 34.6722 7.38804 34.4311 7.2338 34.1471C7.07955 33.8632 7.0009 33.5455 7.00517 33.2237C7.00517 31.2583 9.84 29.0694 10.8022 28.1908C13.1663 26.0324 14.3767 24.9811 16.058 22.3554C16.7356 21.2991 16.1563 21.0807 15.4269 21.5124C13.7094 22.5281 12.0178 25.7988 9.9745 26.4133C9.65536 26.4923 9.32129 26.4929 9.00187 26.4149C8.68246 26.337 8.38754 26.1829 8.14324 25.9664C7.94484 25.735 7.81061 25.4574 7.75351 25.1602C7.69642 24.8631 7.7184 24.5565 7.81734 24.2701C8.17945 22.8938 10.3418 21.614 10.9574 21.2991C14.682 19.3844 17.7444 17.9015 19.6998 16.6217C21.0551 15.738 21.9087 15.2961 22.4518 15.8243ZM32.8858 12.3099C34.4636 13.4323 33.0307 15.738 31.6753 17.1448C28.7319 20.1919 25.297 22.4113 21.6242 24.524C21.1069 24.8237 21.0603 24.7881 21.4172 25.8089C21.5529 26.5701 21.579 27.3463 21.4948 28.1146C21.2931 29.5214 20.7447 30.8063 20.7654 31.8119C21.3448 31.6646 22.8346 31.6544 22.8346 30.6793C22.8346 28.6479 24.3297 26.3117 26.3006 24.6307C27.3352 23.7267 29.0681 22.909 30.439 23.8232C31.0856 24.2548 31.1839 25.0268 31.0908 25.748C30.8063 27.9623 28.7888 30.207 26.7765 31.4259C26.7451 31.4485 26.7186 31.4769 26.6985 31.5096C26.6784 31.5423 26.6651 31.5786 26.6593 31.6163C26.6535 31.6541 26.6555 31.6926 26.6649 31.7297C26.6744 31.7667 26.6912 31.8015 26.7144 31.8322C27.0558 32.2943 27.7801 31.9795 28.2301 31.8322C29.4145 31.406 30.4872 30.7259 31.3701 29.8414C31.5512 28.6174 33.7704 20.0497 40.7178 16.5861C43.6768 15.1133 45.0735 16.7334 43.6716 19.3997C40.8471 24.8084 36.9363 28.1959 35.1827 29.7753C35.1033 29.8488 35.0448 29.9413 35.013 30.0437C34.9813 30.1462 34.9773 30.255 35.0016 30.3594C35.0585 30.5458 35.1566 30.7176 35.2889 30.8625C35.4213 31.0073 35.5846 31.1217 35.7672 31.1973C36.5846 31.5732 37.9813 30.8926 38.9279 30.3898C39.4939 30.1054 39.99 29.7034 40.3816 29.2116C41.6386 24.0009 45.2028 18.3433 50.0913 15.1387C53.6711 12.7873 55.3006 14.8949 53.04 18.7953C49.8327 24.326 45.4615 28.1349 43.7026 29.9683C43.6938 30.2739 43.7683 30.5762 43.9184 30.8441C44.0684 31.1119 44.2886 31.3356 44.5562 31.4919C45.0476 31.8322 45.7667 31.6189 46.2943 31.6341C46.5219 31.8779 46.3357 32.2131 46.2943 32.4873C46.1002 33.1646 45.698 33.7665 45.1425 34.211C44.587 34.6554 43.9053 34.9208 43.1905 34.9708C42.7354 35.0209 42.2752 34.9441 41.8626 34.7491C41.4499 34.5542 41.1016 34.2491 40.8575 33.8687C40.454 33.4827 40.6557 32.3959 39.8229 32.6448C37.8261 33.8179 35.1672 35.4532 32.8134 33.9601C32.3633 33.6299 31.9688 33.2323 31.6443 32.7819C31.5253 32.6702 31.3339 32.7311 31.1994 32.7463C29.2233 33.9093 26.5437 35.499 24.1486 34.1125C23.7192 33.8992 23.4709 33.2136 22.9278 33.3507C22.1208 33.5691 21.1534 33.6554 20.4809 33.1171C20.0567 33.371 20.1447 33.9652 20.1085 34.3969C20.1085 35.2349 20.3412 36.1541 21.1741 36.5604C21.2931 36.6315 21.2362 36.7889 21.2258 36.8905C20.9174 37.2409 20.5173 37.5019 20.0686 37.6451C19.62 37.7883 19.1401 37.8084 18.6807 37.7031C18.1274 37.6332 17.6026 37.4213 17.1594 37.0887C16.7161 36.7561 16.3701 36.3146 16.1563 35.8088C15.5717 34.3867 16.0476 32.7616 16.3735 31.3853C16.8132 29.6738 17.9979 28.2365 17.9254 26.3726L17.822 25.3569C17.822 25.3975 19.0842 23.3255 19.0842 23.3255C21.6086 21.9695 22.4001 21.0451 24.5055 18.9324C26.135 17.2971 27.5628 15.1082 28.9699 13.5948C29.8648 12.6349 31.5253 11.3703 32.8496 12.315L32.8858 12.3099ZM60.5046 37.1495C60.2305 38.3887 57.4008 41.1413 56.6818 40.151C56.0145 39.2521 59.2373 37.2917 60.5046 37.1495Z" fill="#ED1C24"/></g><defs><clipPath id="clip0"><rect width="87" height="31" fill="white" transform="translate(7 12)"/></clipPath></defs></svg>