<svg width="98" height="56" fill="none" xmlns="http://www.w3.org/2000/svg"><g clip-path="url(#clip0)"><path d="M20.6923 43.9352C17.0526 43.1205 14.6428 40.4312 14.1422 36.6224L14.0707 36.0674H30.3719L30.3028 36.8153C30.1417 38.0602 29.7149 39.2559 29.0514 40.3217C27.924 42.0462 25.9528 43.4421 24.0745 43.8375C23.3261 43.9971 21.2357 44.0567 20.6923 43.9352Z" fill="#009996"/><path d="M13.0315 35.8367C11.2746 35.6436 9.6409 34.8412 8.41459 33.569C6.55064 31.6801 5.85464 29.8054 6.03103 27.1376C6.1026 25.2981 6.86915 23.554 8.17623 22.2568C9.60637 20.7633 11.2415 19.9558 13.1817 19.7748L14.0755 19.6914V20.2702C14.0755 21.6399 14.824 23.5431 15.8918 24.8818C16.8953 26.1419 18.7092 27.2638 20.3634 27.6473L21.2668 27.8546L20.6875 27.9451C18.9976 28.2095 16.8738 29.5029 15.7798 30.9298C14.7358 32.2947 14.2281 33.5309 14.0946 35.0244C14.016 35.9939 14.0469 35.9725 13.0315 35.8367Z" fill="#009996"/><path d="M30.453 35.5127C30.453 34.6671 30.105 33.4284 29.5711 32.3517C28.91 31.0294 27.9099 29.9058 26.6727 29.0955C25.7431 28.481 24.2152 27.9045 23.4978 27.8807C23.0616 27.8807 23.0782 27.8593 23.7361 27.714C24.7599 27.4635 25.7457 27.0783 26.6679 26.5682C28.589 25.351 30.0454 23.0333 30.3672 20.6775L30.5007 19.708H30.9774C32.3169 19.708 34.2667 20.5203 35.6349 21.647C36.781 22.6126 37.6367 23.8771 38.1068 25.2998C38.5768 26.7224 38.6428 28.2475 38.2973 29.7053C37.4416 33.0402 34.9007 35.315 31.435 35.8271C30.9726 35.8962 30.565 35.951 30.5293 35.951C30.4935 35.951 30.453 35.7533 30.453 35.5127Z" fill="#009996"/><path d="M70.2108 36.4227C68.8069 36.2631 67.6794 35.8224 66.7618 35.0745C65.8441 34.3265 65.1838 32.7878 65.1838 31.4276V30.8107H68.4088L68.5399 31.5682C68.7044 32.521 69.0381 33.0665 69.7317 33.4738C70.2084 33.7525 70.3991 33.793 71.2119 33.7882C73.1187 33.7882 74.4178 32.6949 74.127 31.3585C73.9291 30.4439 73.1735 29.9579 71.1499 29.4315C69.572 29.0218 68.7449 28.6764 67.7843 28.0237C66.9409 27.4846 66.2771 26.7068 65.8775 25.7894C65.5349 24.7029 65.5907 23.53 66.0348 22.4808C66.645 21.1707 68.2205 20.013 69.9819 19.5819C70.983 19.3437 72.9304 19.3984 73.7814 19.7033C75.7192 20.3965 76.9586 21.9091 77.1875 23.8647L77.2637 24.5031H75.6715C73.9339 24.5031 74.0793 24.5674 73.8958 23.7456C73.6884 22.819 72.99 22.2497 71.8816 22.102C69.6673 21.809 68.1919 24.0076 69.6578 25.4106C70.0987 25.8323 70.4229 25.968 72.5491 26.6159C75.3617 27.4711 76.532 28.1881 77.2089 29.4744C77.4949 30.0175 77.5188 30.1747 77.5188 31.4681C77.5188 32.8187 77.5045 32.8973 77.1398 33.6453C76.3008 35.3484 74.5179 36.3155 71.896 36.468C71.331 36.4955 70.7648 36.4852 70.2012 36.437L70.2108 36.4227Z" fill="white"/><path d="M52.8608 30.4534C51.526 27.3401 50.3843 24.7366 50.3247 24.6818C50.2651 24.627 50.2151 26.7803 50.2151 30.2629V35.9583L46.7661 35.8916L46.7065 19.7058L49.2903 19.6724C50.9111 19.651 51.9122 19.6724 51.9694 19.7558C52.0266 19.8391 52.7869 21.6757 53.6689 23.879C54.5508 26.0824 55.2945 27.8642 55.3207 27.838C55.3469 27.8118 56.0953 25.98 56.9892 23.7719L58.5981 19.7558L63.9063 19.6915V35.9392H60.3881V30.2843C60.3881 27.1662 60.35 24.6175 60.2999 24.6222C60.2499 24.627 59.2202 26.9518 58.0069 29.7912C56.7937 32.6306 55.6973 35.2174 55.5471 35.5366L55.2921 36.1155L52.8608 30.4534Z" fill="white"/><path fill-rule="evenodd" clip-rule="evenodd" d="M79.0967 19.5657V35.9826L82.5171 35.9278C85.5919 35.8777 86.0377 35.8468 86.9267 35.6086C87.4388 35.4728 87.9432 35.3098 88.4379 35.1203C89.9658 34.4652 91.5032 33.0026 92.1896 31.5734C93.3433 29.17 93.2575 25.9686 91.9847 23.7128C91.2963 22.4286 90.2192 21.3947 88.9075 20.7591C87.0507 19.8063 86.3904 19.6896 82.4599 19.6229L79.0967 19.5657ZM88.2329 31.2852C87.5961 32.0057 86.7519 32.5116 85.816 32.7334C85.1745 32.8638 84.5208 32.9245 83.8662 32.9145H82.6053V22.6313H83.6874C86.0758 22.6361 87.587 23.2888 88.5714 24.737C89.2388 25.7208 89.4223 26.4521 89.3603 28.048C89.2984 29.644 89.0433 30.3753 88.2329 31.2852Z" fill="white"/><path d="M14.2543 18.8725C14.4688 16.9669 15.5128 15.1494 17.1837 13.7583C18.1372 13.0495 19.2077 12.5133 20.3466 12.1743C21.4788 11.966 22.6374 11.9442 23.7766 12.11C26.06 12.5435 28.3697 14.2657 29.3899 16.2975C29.919 17.3456 30.3433 18.6295 30.3433 19.1965V19.5919H14.1708L14.2543 18.8725Z" fill="#009996"/></g><defs><clipPath id="clip0"><rect width="87" height="32" fill="white" transform="translate(6 12)"/></clipPath></defs></svg>