<svg width="98" height="56" fill="none" xmlns="http://www.w3.org/2000/svg"><path d="M37.81 20.4531H46.3942C49.5445 20.4531 50.9819 22.5157 50.9819 24.3995C50.9819 25.7546 50.4515 26.6329 49.0262 27.4476C50.824 28.0994 51.8039 29.2757 51.8039 31.0919C51.8039 33.2658 50.1842 35.5708 46.4064 35.5708H37.806L37.81 20.4531ZM42.4989 32.157H45.6046C45.8109 32.1747 46.0187 32.15 46.2147 32.0844C46.4108 32.0189 46.5907 31.914 46.7431 31.7764C46.8955 31.6387 47.017 31.4715 47.0999 31.2852C47.1827 31.0989 47.2251 30.8978 47.2243 30.6945C47.2167 30.518 47.1729 30.3447 47.0954 30.1852C47.0179 30.0257 46.9083 29.8832 46.7733 29.7663C46.6383 29.6493 46.4806 29.5604 46.3097 29.5048C46.1388 29.4492 45.9582 29.428 45.7788 29.4427H42.5151L42.4989 32.157ZM42.4989 26.4064H44.9973C46.1351 26.4064 46.5926 25.8818 46.5926 25.1188C46.5987 24.9574 46.5694 24.7966 46.5068 24.6472C46.4441 24.4979 46.3495 24.3634 46.2293 24.2531C46.1092 24.1427 45.9663 24.0589 45.8103 24.0074C45.6544 23.9558 45.4889 23.9378 45.3253 23.9544H42.4908L42.4989 26.4064Z" fill="white"/><path d="M56.6832 20.4531H61.6475L67.3163 35.5549H62.2063L61.4572 33.2896H56.7035L56.0718 35.543H51.0144L56.6832 20.4531ZM58.9467 24.936L57.655 29.9752H60.453L58.9467 24.936Z" fill="white"/><path d="M75.2161 24.9438H79.9455C79.9455 22.3805 77.9817 20 73.3171 20C68.1989 20 66.6157 22.7819 66.6157 24.7968C66.6157 28.0675 70.6973 28.9379 70.8228 28.9776C71.4301 29.1684 73.9609 29.8321 74.5925 30.0546C75.1392 30.2454 75.6656 30.6746 75.6656 31.2469C75.6656 32.1291 74.5925 32.5544 73.7017 32.5544C73.1308 32.5544 71.2034 32.3676 71.2034 30.3646H66.312C66.312 33.0233 68.1787 35.9999 73.4061 35.9999C79.1924 36.0158 80.4071 32.6259 80.4071 30.8494C80.3978 29.9945 80.1208 29.1631 79.6138 28.4678C79.1068 27.7726 78.3942 27.2471 77.5727 26.9627C76.3985 26.4977 74.4508 26.0884 73.475 25.8062C72.981 25.6671 71.337 25.3413 71.337 24.3557C71.337 23.0959 73.4547 23.2588 73.147 23.2588C74.1026 23.2588 75.204 23.7874 75.204 24.9438" fill="white"/><path d="M81.1886 20.4482H93V24.4383H85.9059V27.097H92.2306V30.9082H85.8816V35.5659H81.1643L81.1886 20.4482Z" fill="white"/><path d="M7 35.5696H22.407V20.4678H7V35.5696ZM17.6655 30.9198H11.7416V25.1016H17.6655V30.9198Z" fill="white"/><path d="M33.0684 25.1025H27.1445V30.9167H33.0684V25.1025Z" fill="white"/></svg>