<svg width="98" height="56" fill="none" xmlns="http://www.w3.org/2000/svg"><path fill-rule="evenodd" clip-rule="evenodd" d="M9.00891 30.1403C9.19349 34.2701 12.7795 35.6279 16.4534 35.6279C20.1273 35.6279 23.6825 34.3003 23.6825 30.2009C23.6825 27.3122 21.1996 26.4041 18.6551 25.8333C16.1765 25.2582 13.7287 25.0506 13.7287 23.5111C13.7287 22.2484 15.1658 22.0668 16.1458 22.0668C17.7103 22.0668 18.9935 22.4992 19.1165 24.1771H23.2519C22.9135 20.35 19.7362 19.2041 16.2688 19.2041C12.8015 19.2041 9.37806 20.229 9.37806 24.2073C9.37806 26.949 11.8874 27.8225 14.4011 28.363C17.5257 29.0247 19.3319 29.4787 19.3319 30.776C19.3319 32.2809 17.741 32.7652 16.4842 32.7652C14.7703 32.7652 13.175 32.0084 13.1442 30.1403H9.00891Z" fill="#005BBB"/><path fill-rule="evenodd" clip-rule="evenodd" d="M36.2116 29.176C36.2116 30.1144 36.0886 32.7652 32.6959 32.7652C31.2897 32.7652 30.0328 32.376 30.0328 30.776C30.0328 29.176 31.2589 28.7565 32.6037 28.4841C33.9484 28.2117 35.4821 28.216 36.2204 27.5803V29.176H36.2116ZM30.4986 24.4192C30.6524 22.7284 31.7203 22.0668 33.3771 22.0668C34.9064 22.0668 36.194 22.3349 36.194 24.1771C36.194 25.9068 33.7111 25.8333 31.048 26.2268C28.3848 26.6203 25.6602 27.429 25.6602 30.9576C25.6602 34.1533 28.0464 35.6279 31.048 35.6279C32.9772 35.6279 35.0031 35.1176 36.3742 33.6992C36.4143 34.2113 36.5176 34.7166 36.6819 35.2041H41.0765C40.6766 34.5727 40.5228 33.1587 40.5228 31.7446V23.6322C40.5228 19.896 36.7258 19.2041 33.5705 19.2041C30.0196 19.2041 26.3765 20.4106 26.1304 24.4192H30.4986Z" fill="#005BBB"/><path fill-rule="evenodd" clip-rule="evenodd" d="M44.0692 40.6917H48.4155V33.2755H48.477C49.0093 34.0226 49.7213 34.6285 50.5495 35.039C51.3776 35.4495 52.2962 35.6518 53.2232 35.6279C57.8463 35.6279 60.1755 31.736 60.1755 27.5803C60.1755 23.1522 57.943 19.2041 52.9771 19.2041C51.0215 19.2041 49.3032 19.9565 48.2617 21.6171H48.2046V19.6279H44.0692V40.6917ZM52.0586 32.4019C49.2417 32.4019 48.2617 29.9933 48.2617 27.4636C48.2617 24.9338 49.1845 22.4301 52.0323 22.4301C54.88 22.4301 55.8292 24.99 55.8292 27.4636C55.8292 29.9371 54.9063 32.4019 52.0586 32.4019Z" fill="#005BBB"/><path fill-rule="evenodd" clip-rule="evenodd" d="M62.9221 40.6917H67.2728V33.2755H67.3343C67.8657 34.0235 68.5776 34.63 69.406 35.0406C70.2343 35.4512 71.1533 35.653 72.0805 35.6279C76.7036 35.6279 79.0284 31.736 79.0284 27.5803C79.0284 23.1522 76.7959 19.2041 71.8344 19.2041C69.8744 19.2041 68.1605 19.9565 67.119 21.6171H67.0575V19.6279H62.9221V40.6917ZM70.9159 32.4019C68.099 32.4019 67.119 29.9933 67.119 27.4636C67.119 24.9338 68.0374 22.4301 70.8852 22.4301C73.7329 22.4301 74.6821 24.99 74.6821 27.4636C74.6821 29.9371 73.7636 32.4019 70.9159 32.4019Z" fill="#005BBB"/><path fill-rule="evenodd" clip-rule="evenodd" d="M81.8981 35.2039H86.2443V19.6364H81.8981V35.2039ZM81.8981 17.2148H86.2443V13.6904H81.8981V17.2148Z" fill="#005BBB"/></svg>