<svg width="99" height="99" fill="none" xmlns="http://www.w3.org/2000/svg"><path fill-rule="evenodd" clip-rule="evenodd" d="M80.9233 49.5L76.0709 49.3226C61.7234 48.7979 50.2169 37.4389 49.6925 23.2822L49.5 18.0849L49.3075 23.2822C48.7831 37.4389 37.2766 48.7979 22.9291 49.3226L18.0767 49.5L22.9291 49.6774C37.2766 50.2021 48.7831 61.5611 49.3075 75.7178L49.5 80.9151L49.6925 75.7178C50.2169 61.5611 61.7234 50.2021 76.0709 49.6774L80.9233 49.5ZM99 48.8408L99 50.1592L76.1205 50.9959C62.4728 51.495 51.5276 62.2999 51.0288 75.766L50.1681 99L48.8319 99L47.9712 75.766C47.4724 62.2999 36.5272 51.495 22.8795 50.9959L5.43686e-06 50.1592L5.4945e-06 48.8408L22.8795 48.0041C36.5272 47.505 47.4724 36.7001 47.9712 23.234L48.8319 -2.18555e-06L50.1681 -2.13451e-06L51.0288 23.234C51.5276 36.7001 62.4728 47.505 76.1205 48.0041L99 48.8408Z" fill="white"/></svg>