<svg width="34" height="40" fill="none" xmlns="http://www.w3.org/2000/svg"><path fill-rule="evenodd" clip-rule="evenodd" d="M0 3.54906V0.785282C0 0.354357 0.364223 0 0.809107 0H2.81664H2.85643H3.94085H3.9742H6.03657C6.48181 0 6.84568 0.354357 6.84568 0.785282V2.75926V2.7972V6.06048V6.08031V12.2845C6.82882 13.5126 6.94319 13.4405 6.18786 12.4648L1.01524 5.782C0.212584 4.74506 0 4.82966 0 3.54906Z" fill="#46BDC4"/><path fill-rule="evenodd" clip-rule="evenodd" d="M6.84604 23.2537C6.84604 24.6429 7.08586 25.9952 7.6114 27.289C8.09679 28.4864 8.78509 29.5717 9.70533 30.4994C10.6223 31.4228 11.7017 32.1242 12.9109 32.6366C14.2104 33.188 15.5867 33.4247 17.0005 33.4247C18.4345 33.4247 19.8401 33.1911 21.1601 32.6352C22.3675 32.1263 23.4433 31.4235 24.351 30.4948C25.2622 29.5616 25.9473 28.484 26.4288 27.2859C26.95 25.9941 27.1791 24.638 27.1791 23.2537V6.25296C27.1629 6.19065 27.1543 6.12696 27.1543 6.06048V0.785282C27.1543 0.354357 27.5185 0 27.9634 0H30.0724H30.1094H31.0454H31.0801H33.1909C33.6361 0 34 0.354357 34 0.785282V2.75891V2.7972V6.06048V6.08031V23.6129C34 25.8768 33.5583 28.0791 32.6281 30.1579C31.7559 32.1075 30.5463 33.8577 28.9801 35.3426C27.4214 36.8191 25.605 37.956 23.5913 38.7608C21.4902 39.6012 19.2708 40 17.0005 40C15.4705 40 13.9541 39.8063 12.4793 39.411C11.0511 39.0298 9.68489 38.4774 8.41119 37.744C7.16078 37.0242 6.01506 36.1557 4.98763 35.1585C3.95877 34.1601 3.07009 33.0439 2.33555 31.8245C1.5899 30.5895 1.01667 29.272 0.616961 27.8947C0.2004 26.4599 0.000362322 24.9836 0.000362322 23.4938L9.15527e-05 13.892C0.0169494 12.664 -0.0974109 12.736 0.657921 13.7117L5.83053 20.3945C6.63318 21.4318 6.84576 21.3472 6.84576 22.6275L6.84604 23.2537Z" fill="white"/></svg>