<svg width="98" height="56" fill="none" xmlns="http://www.w3.org/2000/svg"><path d="M82.2411 31.0826C82.3579 27.4929 80.6214 25.4411 77.4599 25.4214C74.3374 25.4214 72.2887 27.4331 72.2887 30.9244C72.2887 34.5141 74.5329 36.5856 77.9092 36.5856C79.2705 36.6131 80.6197 36.3227 81.8517 35.7372L81.2078 34.1198C80.259 34.5314 79.2342 34.7332 78.202 34.7116C76.2312 34.7116 75.3528 34.0033 75.1379 32.0294L82.2419 31.0849L82.2411 31.0826ZM79.7049 29.8989L75.06 30.6285C74.9627 28.1233 75.8208 27.0781 77.3626 27.0584C78.8071 27.0387 79.6652 27.788 79.7041 29.8989H79.7049ZM71.274 27.4331L72.3471 25.5394C70.2099 25.1854 68.0167 25.5021 66.0631 26.4469V36.2503H68.7565V27.5322C69.555 27.187 70.4516 27.1519 71.274 27.4338V27.4331ZM63.9544 31.0228C63.9544 27.8274 62.3152 25.4804 58.9583 25.4804C55.6208 25.4804 53.9622 27.847 53.9622 31.0228C53.9622 34.1591 55.6208 36.5454 58.9583 36.5454C62.2958 36.5454 63.9544 34.1583 63.9544 31.0228ZM61.222 30.9637C61.222 32.9754 60.8708 34.869 58.9388 34.869C57.0848 34.869 56.6557 32.9951 56.6557 30.9637C56.6557 28.9324 57.0451 26.9593 58.9388 26.9593C60.8708 26.9789 61.222 28.9316 61.222 30.9637ZM47.7561 30.885C47.7561 28.5577 48.439 27.2756 50.2736 27.1568C50.9741 27.1465 51.6657 27.3163 52.2834 27.6503L52.869 26.1903C51.9396 25.6284 50.8673 25.3547 49.7854 25.4033C47.1316 25.4033 44.8672 27.3559 44.8672 30.9063C44.8672 34.437 46.7018 36.3896 49.7262 36.5675C50.9213 36.6462 52.112 36.3572 53.1415 35.7387L52.5186 34.1646C51.9026 34.5638 51.1808 34.7634 50.4496 34.7368C48.7715 34.6975 47.7561 33.2572 47.7561 30.8905V30.885ZM43.0918 21.834C43.0949 21.6253 43.0569 21.4181 42.98 21.2244C42.9031 21.0307 42.7889 20.8544 42.644 20.7057C42.499 20.557 42.3263 20.4389 42.1358 20.3584C41.9453 20.2778 41.7409 20.2363 41.5344 20.2363C41.1156 20.238 40.7145 20.4068 40.4184 20.7061C40.1223 21.0054 39.9553 21.4108 39.9536 21.834C39.9505 22.0427 39.9885 22.25 40.0654 22.4437C40.1423 22.6374 40.2565 22.8137 40.4014 22.9624C40.5464 23.111 40.7191 23.2291 40.9096 23.3097C41.1001 23.3903 41.3045 23.4318 41.511 23.4317C41.9288 23.4268 42.328 23.2569 42.6234 22.9583C42.9188 22.6598 43.0869 22.2562 43.0918 21.834ZM34.4281 36.2503H37.1605V28.7159C37.1605 27.0395 35.9309 25.4222 33.1596 25.4025C31.8175 25.2761 30.4781 25.67 29.4125 26.5043C28.5147 25.7551 27.6558 25.3797 25.7628 25.3797C24.2493 25.3776 22.7548 25.7214 21.3913 26.3855V36.2306H24.045V27.5731C24.5907 27.3212 25.1824 27.1871 25.7823 27.1796C27.2073 27.1796 27.9097 27.8502 27.9097 28.8757V36.233H30.5837V28.0257C31.1488 27.5013 31.8856 27.2062 32.6527 27.1969C34.0543 27.1969 34.4483 27.9265 34.4483 28.8537V36.2519L34.4281 36.2503ZM14.0537 36.6045C15.6467 36.6221 17.2202 36.25 18.6402 35.5199V25.7567H15.9864V34.2567C15.4221 34.5905 14.7856 34.7797 14.1323 34.8077C12.7665 34.8077 12.1225 34.0206 12.1225 33.0124V25.7567H9.38934V32.8581C9.38934 35.2248 11.2045 36.6061 14.0537 36.6061V36.6045ZM42.82 25.7559H40.0697V36.2503H42.8216V25.7567L42.82 25.7559Z" fill="#006DAA"/><path d="M95.3169 12.5419C95.3169 12.5222 95.3169 12.5222 95.2974 12.5025C94.6116 12.4041 93.9208 12.3447 93.2284 12.3246C93.2674 12.4427 93.3063 12.5419 93.3452 12.6599C93.7974 14.4504 93.5395 16.3485 92.6265 17.9494C91.7135 19.5503 90.2176 20.7273 88.4581 21.2291C86.6986 21.731 84.8147 21.518 83.2084 20.6357C81.6021 19.7533 80.4004 18.2714 79.8599 16.5062C79.5282 16.7628 79.1965 17.0194 78.8647 17.2933C79.5152 19.4667 80.9854 21.2943 82.9577 22.3816C84.93 23.4688 87.2463 23.7283 89.4064 23.1042C91.5665 22.48 93.397 21.0222 94.5027 19.0456C95.6084 17.0689 95.9005 14.732 95.3161 12.5395L95.3169 12.5419ZM83.6661 14.2379C83.5576 13.8117 83.61 13.3599 83.8132 12.9706C84.0163 12.5813 84.3555 12.2824 84.7648 12.1322C85.1741 11.9819 85.6241 11.9911 86.027 12.158C86.43 12.3248 86.757 12.6373 86.9444 13.0346C87.3151 12.9362 87.6857 12.837 88.0572 12.7583C87.7716 12.1398 87.2694 11.6502 86.6476 11.3841C86.0258 11.118 85.3284 11.0943 84.6903 11.3175C84.0522 11.5407 83.5185 11.995 83.1924 12.5927C82.8664 13.1904 82.771 13.889 82.9248 14.5536C83.1781 14.4641 83.4257 14.359 83.6661 14.2387C83.6897 14.3463 83.7222 14.4516 83.7635 14.5536C83.8569 14.7692 83.9921 14.9639 84.161 15.1259C84.33 15.288 84.5294 15.4143 84.7474 15.4972C84.9654 15.5802 85.1976 15.6183 85.4304 15.6092C85.6631 15.6001 85.8918 15.544 86.1028 15.4442C86.3138 15.3444 86.5028 15.2029 86.6589 15.0281C86.815 14.8533 86.9348 14.6487 87.0115 14.4263C87.0881 14.204 87.1199 13.9684 87.105 13.7334C87.0902 13.4984 87.0289 13.2689 86.9249 13.0582C85.812 13.3719 84.7229 13.7665 83.6661 14.2387V14.2379ZM88.2332 13.2321C88.419 13.9383 88.3196 14.6903 87.9569 15.3225C87.5942 15.9546 86.9979 16.4153 86.2992 16.6032C85.6005 16.791 84.8566 16.6907 84.231 16.3242C83.6055 15.9576 83.1497 15.355 82.9638 14.6488C82.9638 14.6291 82.9443 14.5898 82.9443 14.5701C82.7107 14.6881 82.4771 14.8267 82.2435 14.9447C82.2435 14.9841 82.2629 15.0037 82.2629 15.0431C82.5166 16.0004 83.1361 16.8166 83.9852 17.3123C84.8343 17.8079 85.8434 17.9423 86.7905 17.686C87.7377 17.4297 88.5453 16.8036 89.0358 15.9455C89.5262 15.0874 89.6593 14.0675 89.4058 13.1101C89.3558 12.9272 89.2904 12.749 89.2104 12.5773C88.821 12.6363 88.4496 12.715 88.0587 12.7945C88.1406 12.9283 88.2 13.0748 88.2347 13.2282L88.2332 13.2321ZM82.2614 14.9479C82.0462 14.0418 82.1744 13.087 82.6209 12.2717C83.0673 11.4564 83.7996 10.8396 84.6735 10.5427C85.5474 10.2459 86.4997 10.2905 87.3427 10.6678C88.1857 11.045 88.8584 11.7277 89.2283 12.5812C89.6177 12.5222 90.007 12.4632 90.3963 12.4238C89.9455 11.3254 89.1007 10.4397 88.0311 9.9442C86.9615 9.44871 85.7462 9.38 84.6286 9.75185C83.511 10.1237 82.5737 10.9086 82.0045 11.9494C81.4352 12.9902 81.2761 14.2099 81.559 15.3642C81.7926 15.2265 82.0075 15.088 82.2598 14.9502L82.2614 14.9479ZM90.5933 12.9952C90.759 13.5956 90.8053 14.2232 90.7296 14.8418C90.6539 15.4604 90.4576 16.0577 90.1522 16.5992C89.8467 17.1407 89.4382 17.6156 88.9501 17.9965C88.4619 18.3775 87.904 18.6569 87.3084 18.8186C86.7128 18.9803 86.0915 19.0211 85.4802 18.9387C84.8689 18.8562 84.2798 18.6522 83.747 18.3383C83.2143 18.0244 82.7483 17.6069 82.3761 17.11C82.0039 16.613 81.7328 16.0464 81.5785 15.4429C81.5785 15.4232 81.559 15.3839 81.559 15.3642C81.3254 15.5019 81.0918 15.6405 80.8582 15.7979V15.8372C81.2704 17.2692 82.2216 18.4808 83.5076 19.2121C84.7936 19.9433 86.3119 20.1359 87.7368 19.7485C89.1617 19.3611 90.3796 18.4246 91.1291 17.14C91.8786 15.8553 92.1 14.3249 91.7458 12.8771C91.6874 12.6993 91.629 12.5025 91.5698 12.3262C91.1805 12.3459 90.7693 12.3656 90.3597 12.4049C90.4626 12.5912 90.5411 12.7901 90.5933 12.9968V12.9952ZM93.2082 12.3246C92.653 10.5608 91.4362 9.08705 89.8186 8.21933C88.201 7.35162 86.3114 7.15903 84.555 7.68287C82.7986 8.20671 81.3152 9.40527 80.4228 11.0216C79.5304 12.6379 79.3001 14.5432 79.7813 16.3291L79.8397 16.507C80.1714 16.2709 80.5031 16.0348 80.852 15.7987C80.489 14.3868 80.6754 12.888 81.3728 11.6109C82.0701 10.3337 83.2253 9.37532 84.6006 8.93301C85.9759 8.4907 87.4667 8.59811 88.766 9.23313C90.0653 9.86815 91.0744 10.9825 91.5854 12.3467C92.1245 12.3107 92.6652 12.3041 93.2051 12.327L93.2082 12.3246Z" fill="url(#paint0_linear)"/><defs><linearGradient id="paint0_linear" x1="85.3119" y1="23.2608" x2="89.0658" y2="7.83023" gradientUnits="userSpaceOnUse"><stop offset="0.2" stop-color="#006DAA"/><stop offset="0.75" stop-color="#35AC46"/><stop offset="0.84" stop-color="#47AF46"/><stop offset="0.987" stop-color="#68B943"/><stop offset="1" stop-color="#6CBA43"/></linearGradient></defs></svg>