<svg width="98" height="56" fill="none" xmlns="http://www.w3.org/2000/svg"><path d="M76 2H24V37.3504H76V2Z" fill="#005BBB"/><path d="M56.5428 6.61426L54.2435 10.3815L45.0914 25.4319L44.1386 23.7634L46.0501 20.6205L42.1211 14.1452H32.3867L42.8585 31.1706C43.5387 32.2679 44.9027 33.1259 46.9447 33.1259C48.9866 33.1259 50.4205 32.2679 51.1008 31.1706L66.2831 6.61426H56.5428Z" fill="white"/><path d="M76 39.0986H24V53.9999H76V39.0986Z" fill="#002C77"/><path d="M31.9115 42.3984H33.7182L31.1055 49.7756H29.9407L27.3245 42.3984H29.1253L30.5231 46.9439L31.9115 42.3984Z" fill="white"/><path d="M34.4717 49.6982V42.3984H36.149V49.6982H34.4717Z" fill="white"/><path d="M41.519 49.6982L38.982 45.7667L39.0018 49.6982H37.3711V42.3984H38.6769L41.2162 46.3299L41.1964 42.3984H42.8271V49.6982H41.519Z" fill="white"/><path d="M46.8305 42.2236C47.6726 42.2236 48.4612 42.3115 48.9947 42.5439V44.268C47.9662 43.8482 47.364 43.8182 46.8305 43.8182C45.8381 43.8182 45.4956 44.7051 45.4956 46.0475C45.4956 47.39 45.8381 48.2769 46.8305 48.2769C47.3686 48.2769 47.9662 48.248 48.9947 47.8305V49.5523C48.4612 49.7858 47.6773 49.8703 46.8305 49.8703C44.5346 49.8703 43.8019 48.3127 43.8019 46.0452C43.8019 43.7777 44.5393 42.2236 46.8305 42.2236Z" fill="white"/><path d="M52.7351 49.8706C50.1725 49.8706 49.8335 47.9535 49.8335 46.0456C49.8335 44.1377 50.176 42.2217 52.7351 42.2217C55.2942 42.2217 55.6366 44.1388 55.6366 46.0456C55.6366 47.9523 55.3023 49.8706 52.7351 49.8706ZM52.7351 43.8162C51.6867 43.8162 51.5295 44.5667 51.5295 46.0456C51.5295 47.5245 51.6856 48.2749 52.7351 48.2749C53.7846 48.2749 53.936 47.5279 53.936 46.0479C53.936 44.5678 53.7822 43.8197 52.7351 43.8197V43.8162Z" fill="white"/><path d="M59.3909 43.9964V49.6982H57.7147V43.9964H55.9594V42.3984H61.1451V43.9964H59.3909Z" fill="white"/><path d="M65.1357 43.9964V49.6982H63.4596V43.9964H61.7042V42.3984H66.8911V43.9964H65.1357Z" fill="white"/><path d="M72.1631 46.7392H69.3803V48.1013H72.4496V49.697H67.7356V42.3984H72.4496V43.9964H69.3803V45.1296H72.1631V46.7392Z" fill="white"/><path d="M48.9155 52.2047H45.9149V50.6807H48.9155V52.2047Z" fill="white"/></svg>