<svg width="972" height="541" viewBox="0 0 972 541" fill="none" xmlns="http://www.w3.org/2000/svg"><rect width="972" height="541" rx="24" fill="#1E1E1E"/><path fill="#2E2E2E" d="M64 52h2v402h-2zm0 402h876v2H64z"/><path d="M447.248 475.288c0 .597-.144 1.157-.432 1.68-.277.523-.72.944-1.328 1.264-.597.32-1.355.48-2.272.48h-1.872V483h-2.24v-11.168h4.112c.864 0 1.6.149 2.208.448.608.299 1.061.709 1.36 1.232.309.523.464 1.115.464 1.776zm-4.128 1.616c.619 0 1.077-.139 1.376-.416.299-.288.448-.688.448-1.2 0-1.088-.608-1.632-1.824-1.632h-1.776v3.248h1.776zm7.958-1.392a3.181 3.181 0 011.12-1.104c.47-.267 1.003-.4 1.6-.4v2.352h-.592c-.704 0-1.237.165-1.6.496-.352.331-.528.907-.528 1.728V483h-2.24v-8.864h2.24v1.376zm8.165 7.632c-.853 0-1.621-.187-2.304-.56a4.203 4.203 0 01-1.616-1.616c-.384-.693-.576-1.493-.576-2.4 0-.907.197-1.707.592-2.4a4.168 4.168 0 011.648-1.6c.693-.384 1.467-.576 2.32-.576.853 0 1.627.192 2.32.576a4.065 4.065 0 011.632 1.6c.405.693.608 1.493.608 2.4 0 .907-.208 1.707-.624 2.4a4.252 4.252 0 01-1.664 1.616c-.693.373-1.472.56-2.336.56zm0-1.952c.405 0 .784-.096 1.136-.288.363-.203.651-.501.864-.896.213-.395.32-.875.32-1.44 0-.843-.224-1.488-.672-1.936a2.143 2.143 0 00-1.616-.688c-.64 0-1.179.229-1.616.688-.427.448-.64 1.093-.64 1.936s.208 1.493.624 1.952c.427.448.96.672 1.6.672zm7.403-8.112c-.405 0-.741-.123-1.008-.368a1.284 1.284 0 01-.384-.944c0-.373.128-.683.384-.928.267-.256.603-.384 1.008-.384.395 0 .72.128.976.384.256.245.384.555.384.928s-.128.688-.384.944c-.256.245-.581.368-.976.368zm1.104 11.376c0 .981-.245 1.685-.736 2.112-.48.437-1.173.656-2.08.656h-.992v-1.904h.64c.342 0 .582-.069.72-.208.139-.128.208-.341.208-.64v-10.336h2.24v10.32zm10.453-6.08c0 .32-.021.608-.064.864h-6.48c.054.64.278 1.141.672 1.504.395.363.88.544 1.456.544.832 0 1.424-.357 1.776-1.072h2.416a4.077 4.077 0 01-1.472 2.112c-.725.544-1.616.816-2.672.816-.853 0-1.621-.187-2.304-.56a4.124 4.124 0 01-1.584-1.616c-.373-.693-.56-1.493-.56-2.4 0-.917.187-1.723.56-2.416a3.911 3.911 0 011.568-1.6c.672-.373 1.446-.56 2.32-.56.843 0 1.595.181 2.256.544a3.75 3.75 0 011.552 1.552c.374.661.56 1.424.56 2.288zm-2.32-.64c-.01-.576-.218-1.035-.624-1.376-.405-.352-.901-.528-1.488-.528-.554 0-1.024.171-1.408.512-.373.331-.602.795-.688 1.392h4.208zm3.379.832c0-.917.187-1.717.56-2.4a3.942 3.942 0 011.552-1.6c.662-.384 1.419-.576 2.272-.576 1.099 0 2.006.277 2.72.832.726.544 1.211 1.312 1.456 2.304h-2.416a1.704 1.704 0 00-.656-.896c-.298-.224-.672-.336-1.12-.336-.64 0-1.146.235-1.52.704-.373.459-.56 1.115-.56 1.968 0 .843.187 1.499.56 1.968.374.459.88.688 1.52.688.907 0 1.499-.405 1.776-1.216h2.416c-.245.96-.73 1.723-1.456 2.288-.725.565-1.632.848-2.72.848-.853 0-1.61-.187-2.272-.56a4.076 4.076 0 01-1.552-1.6c-.373-.693-.56-1.499-.56-2.416zm12.809-2.592v4.288c0 .299.07.517.208.656.15.128.395.192.736.192h1.04V483h-1.408c-1.888 0-2.832-.917-2.832-2.752v-4.272h-1.056v-1.84h1.056v-2.192h2.256v2.192h1.984v1.84h-1.984zm10.016 0v4.288c0 .299.069.517.208.656.149.128.395.192.736.192h1.04V483h-1.408c-1.888 0-2.832-.917-2.832-2.752v-4.272h-1.056v-1.84h1.056v-2.192h2.256v2.192h1.984v1.84h-1.984zm4.731-2.896c-.395 0-.725-.123-.992-.368a1.284 1.284 0 01-.384-.944c0-.373.128-.683.384-.928.267-.256.597-.384.992-.384s.72.128.976.384c.267.245.4.555.4.928s-.133.688-.4.944c-.256.245-.581.368-.976.368zm1.104 1.056V483h-2.24v-8.864h2.24zm13.221-.128c1.088 0 1.963.336 2.624 1.008.672.661 1.008 1.589 1.008 2.784v5.2h-2.24v-4.896c0-.693-.176-1.221-.528-1.584-.352-.373-.832-.56-1.44-.56s-1.093.187-1.456.56c-.352.363-.528.891-.528 1.584V483h-2.24v-4.896c0-.693-.176-1.221-.528-1.584-.352-.373-.832-.56-1.44-.56-.618 0-1.109.187-1.472.56-.352.363-.528.891-.528 1.584V483h-2.24v-8.864h2.24v1.072a2.997 2.997 0 011.104-.88c.459-.213.96-.32 1.504-.32.694 0 1.312.149 1.856.448a3.03 3.03 0 011.264 1.248 3.22 3.22 0 011.248-1.232 3.624 3.624 0 011.792-.464zm13.998 4.368c0 .32-.021.608-.064.864h-6.48c.053.64.277 1.141.672 1.504s.88.544 1.456.544c.832 0 1.424-.357 1.776-1.072h2.416a4.083 4.083 0 01-1.472 2.112c-.725.544-1.616.816-2.672.816-.853 0-1.621-.187-2.304-.56a4.124 4.124 0 01-1.584-1.616c-.373-.693-.56-1.493-.56-2.4 0-.917.187-1.723.56-2.416a3.905 3.905 0 011.568-1.6c.672-.373 1.445-.56 2.32-.56.843 0 1.595.181 2.256.544.672.363 1.189.88 1.552 1.552.373.661.56 1.424.56 2.288zm-2.32-.64c-.011-.576-.219-1.035-.624-1.376-.405-.352-.901-.528-1.488-.528-.555 0-1.024.171-1.408.512-.373.331-.603.795-.688 1.392h4.208zm6.195-6.576V483h-2.24v-11.84h2.24zm3.349 1.92c-.395 0-.725-.123-.992-.368a1.284 1.284 0 01-.384-.944c0-.373.128-.683.384-.928.267-.256.597-.384.992-.384s.72.128.976.384c.267.245.4.555.4.928s-.133.688-.4.944c-.256.245-.581.368-.976.368zm1.104 1.056V483h-2.24v-8.864h2.24zm7.125-.128c1.056 0 1.909.336 2.56 1.008.651.661.976 1.589.976 2.784v5.2h-2.24v-4.896c0-.704-.176-1.243-.528-1.616-.352-.384-.832-.576-1.44-.576-.619 0-1.109.192-1.472.576-.352.373-.528.912-.528 1.616V483h-2.24v-8.864h2.24v1.104a3.034 3.034 0 011.136-.896 3.518 3.518 0 011.536-.336zm13.906 4.368c0 .32-.021.608-.064.864h-6.48c.054.64.278 1.141.672 1.504.395.363.88.544 1.456.544.832 0 1.424-.357 1.776-1.072h2.416a4.077 4.077 0 01-1.472 2.112c-.725.544-1.616.816-2.672.816-.853 0-1.621-.187-2.304-.56a4.124 4.124 0 01-1.584-1.616c-.373-.693-.56-1.493-.56-2.4 0-.917.187-1.723.56-2.416a3.911 3.911 0 011.568-1.6c.672-.373 1.446-.56 2.32-.56.843 0 1.595.181 2.256.544a3.75 3.75 0 011.552 1.552c.374.661.56 1.424.56 2.288zm-2.32-.64c-.01-.576-.218-1.035-.624-1.376-.405-.352-.901-.528-1.488-.528-.554 0-1.024.171-1.408.512-.373.331-.602.795-.688 1.392h4.208zM44.4 309.44c-1.099 0-2.08-.245-2.944-.736a5.312 5.312 0 01-2.032-2.032c-.49-.864-.736-1.829-.736-2.896 0-1.248.32-2.341.96-3.28.64-.939 1.525-1.595 2.656-1.968v2.576c-.533.256-.933.619-1.2 1.088-.267.459-.4.992-.4 1.6 0 .651.155 1.232.464 1.744a3.13 3.13 0 001.28 1.184c.555.277 1.205.416 1.952.416.736 0 1.387-.139 1.952-.416a3.242 3.242 0 001.296-1.184c.299-.512.448-1.093.448-1.744 0-.608-.133-1.141-.4-1.6-.277-.469-.683-.832-1.216-1.088v-2.576c1.141.373 2.032 1.029 2.672 1.968.63.928.944 2.021.944 3.28 0 1.067-.24 2.032-.72 2.896a5.463 5.463 0 01-2.032 2.032c-.864.491-1.845.736-2.944.736zm5.744-16.761c0 .853-.187 1.621-.56 2.304a4.208 4.208 0 01-1.616 1.616c-.693.384-1.493.576-2.4.576-.907 0-1.707-.198-2.4-.592a4.175 4.175 0 01-1.6-1.648c-.384-.694-.576-1.467-.576-2.32 0-.854.192-1.627.576-2.32a4.053 4.053 0 011.6-1.632c.693-.406 1.493-.608 2.4-.608.907 0 1.707.208 2.4.624a4.25 4.25 0 011.616 1.664c.373.693.56 1.472.56 2.336zm-1.952 0c0-.406-.096-.784-.288-1.136a2.185 2.185 0 00-.896-.864c-.395-.214-.875-.32-1.44-.32-.843 0-1.488.224-1.936.672a2.144 2.144 0 00-.688 1.616c0 .64.23 1.178.688 1.616.448.426 1.093.64 1.936.64s1.493-.208 1.952-.624c.448-.427.672-.96.672-1.6zm1.952-9.659c0 .725-.128 1.376-.384 1.952-.267.576-.624 1.034-1.072 1.376-.448.33-.944.512-1.488.544v-2.256a1.24 1.24 0 00.848-.496c.224-.299.336-.667.336-1.104 0-.427-.085-.758-.256-.992-.17-.246-.39-.368-.656-.368-.288 0-.501.149-.64.448-.15.288-.31.752-.48 1.392-.16.661-.325 1.205-.496 1.632-.17.416-.432.778-.784 1.088-.352.298-.827.448-1.424.448a2.33 2.33 0 01-1.344-.416c-.405-.288-.725-.694-.96-1.216-.235-.534-.352-1.158-.352-1.872 0-1.056.267-1.899.8-2.528.523-.63 1.232-.976 2.128-1.04v2.144c-.352.032-.63.181-.832.448-.213.256-.32.602-.32 1.04 0 .405.075.72.224.944a.72.72 0 00.624.32c.299 0 .528-.15.688-.448.15-.299.304-.763.464-1.392.16-.64.325-1.168.496-1.584a2.69 2.69 0 01.8-1.072c.352-.31.821-.47 1.408-.48.512 0 .97.144 1.376.432.405.277.725.682.96 1.216.224.522.336 1.136.336 1.84zm-7.168-7.935h4.288c.299 0 .517-.069.656-.208.128-.149.192-.395.192-.736v-1.04H50v1.408c0 1.888-.917 2.832-2.752 2.832h-4.272v1.056h-1.84v-1.056h-2.192v-2.256h2.192v-1.984h1.84v1.984zm7.168-11.344c0 .854-.187 1.622-.56 2.304a4.194 4.194 0 01-1.616 1.616c-.693.384-1.493.576-2.4.576-.907 0-1.707-.197-2.4-.592a4.162 4.162 0 01-1.6-1.648c-.384-.693-.576-1.466-.576-2.32 0-.853.192-1.626.576-2.32a4.065 4.065 0 011.6-1.632c.693-.405 1.493-.608 2.4-.608.907 0 1.707.208 2.4.624.693.406 1.232.96 1.616 1.664.373.694.56 1.472.56 2.336zm-1.952 0c0-.405-.096-.784-.288-1.136a2.198 2.198 0 00-.896-.864c-.395-.213-.875-.32-1.44-.32-.843 0-1.488.224-1.936.672a2.146 2.146 0 00-.688 1.616c0 .64.23 1.179.688 1.616.448.427 1.093.64 1.936.64s1.493-.208 1.952-.624c.448-.426.672-.96.672-1.6zm-5.216-10.331v1.552H50v2.272h-7.024v1.008h-1.84v-1.008h-.448c-1.088 0-1.888-.309-2.4-.928s-.752-1.552-.72-2.8h1.888c-.01.544.08.923.272 1.136.192.213.539.32 1.04.32h.368v-1.552h1.84zm0-9.328v1.552H50v2.272h-7.024v1.008h-1.84v-1.008h-.448c-1.088 0-1.888-.309-2.4-.928s-.752-1.552-.72-2.8h1.888c-.01.544.08.923.272 1.136.192.213.539.32 1.04.32h.368v-1.552h1.84zm2.4-9.692c.32 0 .608.022.864.064v6.48c.64-.053 1.141-.277 1.504-.672.363-.394.544-.88.544-1.456 0-.832-.357-1.424-1.072-1.776v-2.416a4.08 4.08 0 012.112 1.472c.544.726.816 1.616.816 2.672 0 .854-.187 1.622-.56 2.304a4.122 4.122 0 01-1.616 1.584c-.693.374-1.493.56-2.4.56-.917 0-1.723-.186-2.416-.56a3.905 3.905 0 01-1.6-1.568c-.373-.672-.56-1.445-.56-2.32 0-.842.181-1.594.544-2.256a3.755 3.755 0 011.552-1.552c.661-.373 1.424-.56 2.288-.56zm-.64 2.32c-.576.011-1.035.219-1.376.624-.352.406-.528.902-.528 1.488 0 .555.17 1.024.512 1.408.33.374.795.603 1.392.688v-4.208zm.8-3.379c-.896 0-1.69-.176-2.384-.528-.693-.362-1.227-.848-1.6-1.456a3.915 3.915 0 01-.56-2.064c0-.661.133-1.237.4-1.728a3.51 3.51 0 011.008-1.2h-1.264v-2.256H50v2.256h-1.296c.416.288.763.688 1.04 1.2.267.502.4 1.083.4 1.744 0 .747-.192 1.43-.576 2.048-.384.608-.923 1.094-1.616 1.456-.704.352-1.51.528-2.416.528zm.032-6.976c-.544 0-1.008.107-1.392.32a2.198 2.198 0 00-.896.864c-.213.363-.32.752-.32 1.168 0 .416.101.8.304 1.152.203.352.501.64.896.864.384.214.843.32 1.376.32.533 0 1.003-.106 1.408-.32.395-.224.699-.512.912-.864.213-.362.32-.746.32-1.152 0-.416-.101-.805-.304-1.168a2.337 2.337 0 00-.896-.864c-.395-.213-.864-.32-1.408-.32zm-2.592-7.051h4.288c.299 0 .517-.07.656-.208.128-.15.192-.395.192-.736v-1.04H50v1.408c0 1.888-.917 2.832-2.752 2.832h-4.272v1.056h-1.84v-1.056h-2.192v-2.256h2.192v-1.984h1.84v1.984zm-1.84-11.964H50v2.256h-1.12c.384.288.688.667.912 1.136.213.459.32.96.32 1.504 0 .694-.144 1.307-.432 1.84a3.21 3.21 0 01-1.296 1.264c-.576.299-1.259.448-2.048.448h-5.2v-2.24h4.88c.704 0 1.248-.176 1.632-.528.373-.352.56-.832.56-1.44 0-.618-.187-1.104-.56-1.456-.384-.352-.928-.528-1.632-.528h-4.88v-2.256zm1.376-4.45a3.168 3.168 0 01-1.104-1.12c-.267-.469-.4-1.002-.4-1.6h2.352v.592c0 .704.165 1.238.496 1.6.33.352.907.528 1.728.528H50v2.24h-8.864v-2.24h1.376zm2.864-12.468c.32 0 .608.021.864.064v6.48c.64-.054 1.141-.278 1.504-.672.363-.395.544-.88.544-1.456 0-.832-.357-1.424-1.072-1.776v-2.416a4.075 4.075 0 012.112 1.472c.544.725.816 1.616.816 2.672 0 .853-.187 1.621-.56 2.304a4.122 4.122 0 01-1.616 1.584c-.693.373-1.493.56-2.4.56-.917 0-1.723-.187-2.416-.56a3.911 3.911 0 01-1.6-1.568c-.373-.672-.56-1.446-.56-2.32 0-.843.181-1.595.544-2.256a3.75 3.75 0 011.552-1.552c.661-.374 1.424-.56 2.288-.56zm-.64 2.32c-.576.01-1.035.218-1.376.624-.352.405-.528.901-.528 1.488 0 .554.17 1.024.512 1.408.33.373.795.602 1.392.688v-4.208z" fill="#E0E0E0"/><path d="M361.287 302.5L66 434v20h633V67L361.287 302.5z" fill="#332323"/><path d="M67.5 434L362 302.5 699 67" stroke="#EF5350" stroke-width="2" stroke-linecap="round" stroke-linejoin="round"/><path d="M537.392 258.136L534.8 267h-2.416l-1.616-6.192-1.616 6.192h-2.432l-2.608-8.864h2.272l1.568 6.752 1.696-6.752h2.368l1.664 6.736 1.568-6.736h2.144zm2.348-1.056c-.395 0-.725-.123-.992-.368a1.284 1.284 0 01-.384-.944c0-.373.128-.683.384-.928.267-.256.597-.384.992-.384s.72.128.976.384c.267.245.4.555.4.928s-.133.688-.4.944c-.256.245-.581.368-.976.368zm1.104 1.056V267h-2.24v-8.864h2.24zm4.821 1.84v4.288c0 .299.069.517.208.656.149.128.395.192.736.192h1.04V267h-1.408c-1.888 0-2.832-.917-2.832-2.752v-4.272h-1.056v-1.84h1.056v-2.192h2.256v2.192h1.984v1.84h-1.984zm8.587-1.968c.672 0 1.27.149 1.792.448.523.288.928.72 1.216 1.296.299.565.448 1.248.448 2.048v5.2h-2.24v-4.896c0-.704-.176-1.243-.528-1.616-.352-.384-.832-.576-1.44-.576-.618 0-1.109.192-1.472.576-.352.373-.528.912-.528 1.616V267h-2.24v-11.84h2.24v4.08a2.854 2.854 0 011.152-.896 3.74 3.74 0 011.6-.336zm9.522 9.136c-.853 0-1.621-.187-2.304-.56a4.21 4.21 0 01-1.616-1.616c-.384-.693-.576-1.493-.576-2.4 0-.907.198-1.707.592-2.4a4.175 4.175 0 011.648-1.6c.694-.384 1.467-.576 2.32-.576.854 0 1.627.192 2.32.576a4.053 4.053 0 011.632 1.6c.406.693.608 1.493.608 2.4 0 .907-.208 1.707-.624 2.4a4.252 4.252 0 01-1.664 1.616c-.693.373-1.472.56-2.336.56zm0-1.952c.406 0 .784-.096 1.136-.288.363-.203.651-.501.864-.896.214-.395.32-.875.32-1.44 0-.843-.224-1.488-.672-1.936a2.143 2.143 0 00-1.616-.688c-.64 0-1.178.229-1.616.688-.426.448-.64 1.093-.64 1.936s.208 1.493.624 1.952c.427.448.96.672 1.6.672zm14.636-7.056V267h-2.256v-1.12a3.015 3.015 0 01-1.136.912c-.459.213-.96.32-1.504.32-.694 0-1.307-.144-1.84-.432a3.214 3.214 0 01-1.264-1.296c-.299-.576-.448-1.259-.448-2.048v-5.2h2.24v4.88c0 .704.176 1.248.528 1.632.352.373.832.56 1.44.56.618 0 1.104-.187 1.456-.56.352-.384.528-.928.528-1.632v-4.88h2.256zm4.818 1.84v4.288c0 .299.069.517.208.656.149.128.394.192.736.192h1.04V267h-1.408c-1.888 0-2.832-.917-2.832-2.752v-4.272h-1.056v-1.84h1.056v-2.192h2.256v2.192h1.984v1.84h-1.984zm9.167-.112h-2.368l1.728-4.032h1.552l-.912 4.032zm3.232 0h-2.368l1.728-4.032h1.552l-.912 4.032zm10.777-.576c0 .597-.144 1.157-.432 1.68-.277.523-.72.944-1.328 1.264-.597.32-1.354.48-2.272.48H600.5V267h-2.24v-11.168h4.112c.864 0 1.6.149 2.208.448.608.299 1.062.709 1.36 1.232.31.523.464 1.115.464 1.776zm-4.128 1.616c.619 0 1.078-.139 1.376-.416.299-.288.448-.688.448-1.2 0-1.088-.608-1.632-1.824-1.632H600.5v3.248h1.776zm9.655 6.24c-.854 0-1.622-.187-2.304-.56a4.196 4.196 0 01-1.616-1.616c-.384-.693-.576-1.493-.576-2.4 0-.907.197-1.707.592-2.4a4.162 4.162 0 011.648-1.6c.693-.384 1.466-.576 2.32-.576.853 0 1.626.192 2.32.576a4.065 4.065 0 011.632 1.6c.405.693.608 1.493.608 2.4 0 .907-.208 1.707-.624 2.4a4.258 4.258 0 01-1.664 1.616c-.694.373-1.472.56-2.336.56zm0-1.952c.405 0 .784-.096 1.136-.288.362-.203.65-.501.864-.896.213-.395.32-.875.32-1.44 0-.843-.224-1.488-.672-1.936a2.145 2.145 0 00-1.616-.688c-.64 0-1.179.229-1.616.688-.427.448-.64 1.093-.64 1.936s.208 1.493.624 1.952c.426.448.96.672 1.6.672zm8.507-5.68a3.173 3.173 0 011.12-1.104c.469-.267 1.002-.4 1.6-.4v2.352h-.592c-.704 0-1.238.165-1.6.496-.352.331-.528.907-.528 1.728V267h-2.24v-8.864h2.24v1.376zm6.837.464v4.288c0 .299.069.517.208.656.149.128.394.192.736.192h1.04V267h-1.408c-1.888 0-2.832-.917-2.832-2.752v-4.272h-1.056v-1.84h1.056v-2.192h2.256v2.192h1.984v1.84h-1.984zm7.531 7.168c-.854 0-1.622-.187-2.304-.56a4.196 4.196 0 01-1.616-1.616c-.384-.693-.576-1.493-.576-2.4 0-.907.197-1.707.592-2.4a4.162 4.162 0 011.648-1.6c.693-.384 1.466-.576 2.32-.576.853 0 1.626.192 2.32.576a4.065 4.065 0 011.632 1.6c.405.693.608 1.493.608 2.4 0 .907-.208 1.707-.624 2.4a4.258 4.258 0 01-1.664 1.616c-.694.373-1.472.56-2.336.56zm0-1.952c.405 0 .784-.096 1.136-.288.362-.203.65-.501.864-.896.213-.395.32-.875.32-1.44 0-.843-.224-1.488-.672-1.936a2.145 2.145 0 00-1.616-.688c-.64 0-1.179.229-1.616.688-.427.448-.64 1.093-.64 1.936s.208 1.493.624 1.952c.426.448.96.672 1.6.672zm6.715-9.36h2.352l-1.728 4.032h-1.536l.912-4.032zm3.232 0h2.352l-1.728 4.032h-1.536l.912-4.032z" fill="#EF5350"/><path d="M420.5 386.5L66 434.566V454h860V354l-505.5 32.5z" fill="#232C23"/><path d="M67 434.5L420 386l505-32" stroke="#4CAF50" stroke-width="2" stroke-linecap="round" stroke-linejoin="round"/><path d="M716.392 396.136L713.8 405h-2.416l-1.616-6.192-1.616 6.192h-2.432l-2.608-8.864h2.272l1.568 6.752 1.696-6.752h2.368l1.664 6.736 1.568-6.736h2.144zm2.348-1.056c-.395 0-.725-.123-.992-.368a1.284 1.284 0 01-.384-.944c0-.373.128-.683.384-.928.267-.256.597-.384.992-.384s.72.128.976.384c.267.245.4.555.4.928s-.133.688-.4.944c-.256.245-.581.368-.976.368zm1.104 1.056V405h-2.24v-8.864h2.24zm4.821 1.84v4.288c0 .299.069.517.208.656.149.128.395.192.736.192h1.04V405h-1.408c-1.888 0-2.832-.917-2.832-2.752v-4.272h-1.056v-1.84h1.056v-2.192h2.256v2.192h1.984v1.84h-1.984zm8.587-1.968c.672 0 1.27.149 1.792.448.523.288.928.72 1.216 1.296.299.565.448 1.248.448 2.048v5.2h-2.24v-4.896c0-.704-.176-1.243-.528-1.616-.352-.384-.832-.576-1.44-.576-.618 0-1.109.192-1.472.576-.352.373-.528.912-.528 1.616V405h-2.24v-11.84h2.24v4.08a2.854 2.854 0 011.152-.896 3.74 3.74 0 011.6-.336zm11.159 1.856h-2.368l1.728-4.032h1.552l-.912 4.032zm3.232 0h-2.368l1.728-4.032h1.552l-.912 4.032zm10.777-.576c0 .597-.144 1.157-.432 1.68-.277.523-.72.944-1.328 1.264-.597.32-1.355.48-2.272.48h-1.872V405h-2.24v-11.168h4.112c.864 0 1.6.149 2.208.448.608.299 1.061.709 1.36 1.232.309.523.464 1.115.464 1.776zm-4.128 1.616c.619 0 1.077-.139 1.376-.416.299-.288.448-.688.448-1.2 0-1.088-.608-1.632-1.824-1.632h-1.776v3.248h1.776zm9.654 6.24c-.853 0-1.621-.187-2.304-.56a4.21 4.21 0 01-1.616-1.616c-.384-.693-.576-1.493-.576-2.4 0-.907.198-1.707.592-2.4a4.175 4.175 0 011.648-1.6c.694-.384 1.467-.576 2.32-.576.854 0 1.627.192 2.32.576a4.053 4.053 0 011.632 1.6c.406.693.608 1.493.608 2.4 0 .907-.208 1.707-.624 2.4a4.252 4.252 0 01-1.664 1.616c-.693.373-1.472.56-2.336.56zm0-1.952c.406 0 .784-.096 1.136-.288.363-.203.651-.501.864-.896.214-.395.32-.875.32-1.44 0-.843-.224-1.488-.672-1.936a2.143 2.143 0 00-1.616-.688c-.64 0-1.178.229-1.616.688-.426.448-.64 1.093-.64 1.936s.208 1.493.624 1.952c.427.448.96.672 1.6.672zm8.507-5.68a3.181 3.181 0 011.12-1.104c.47-.267 1.003-.4 1.6-.4v2.352h-.592c-.704 0-1.237.165-1.6.496-.352.331-.528.907-.528 1.728V405h-2.24v-8.864h2.24v1.376zm6.837.464v4.288c0 .299.069.517.208.656.149.128.395.192.736.192h1.04V405h-1.408c-1.888 0-2.832-.917-2.832-2.752v-4.272h-1.056v-1.84h1.056v-2.192h2.256v2.192h1.984v1.84h-1.984zm7.531 7.168c-.853 0-1.621-.187-2.304-.56a4.21 4.21 0 01-1.616-1.616c-.384-.693-.576-1.493-.576-2.4 0-.907.198-1.707.592-2.4a4.175 4.175 0 011.648-1.6c.694-.384 1.467-.576 2.32-.576.854 0 1.627.192 2.32.576a4.053 4.053 0 011.632 1.6c.406.693.608 1.493.608 2.4 0 .907-.208 1.707-.624 2.4a4.252 4.252 0 01-1.664 1.616c-.693.373-1.472.56-2.336.56zm0-1.952c.406 0 .784-.096 1.136-.288.363-.203.651-.501.864-.896.214-.395.32-.875.32-1.44 0-.843-.224-1.488-.672-1.936a2.143 2.143 0 00-1.616-.688c-.64 0-1.178.229-1.616.688-.426.448-.64 1.093-.64 1.936s.208 1.493.624 1.952c.427.448.96.672 1.6.672zm6.715-9.36h2.352l-1.728 4.032h-1.536l.912-4.032zm3.232 0h2.352l-1.728 4.032h-1.536l.912-4.032z" fill="#4CAF50"/><circle cx="699.5" cy="66.5" r="14.5" fill="#EF5350" fill-opacity=".3"/><circle cx="699.5" cy="66.5" r="7.5" fill="#121212" stroke="#EF5350" stroke-width="2"/><circle cx="699.5" cy="66.5" r="3.5" fill="#EF5350"/><circle cx="925.5" cy="353.5" r="14.5" fill="#4CAF50" fill-opacity=".3"/><circle cx="925.5" cy="353.5" r="7.5" fill="#121212" stroke="#4CAF50" stroke-width="2"/><circle cx="925.5" cy="353.5" r="3.5" fill="#4CAF50"/><circle cx="360.5" cy="303.5" r="14.5" fill="#EF5350" fill-opacity=".3"/><circle cx="360.5" cy="303.5" r="7.5" fill="#121212" stroke="#EF5350" stroke-width="2"/><circle cx="360.5" cy="303.5" r="3.5" fill="#EF5350"/><circle cx="420.5" cy="385.5" r="14.5" fill="#4CAF50" fill-opacity=".3"/><circle cx="420.5" cy="385.5" r="7.5" fill="#121212" stroke="#4CAF50" stroke-width="2"/><circle cx="420.5" cy="385.5" r="3.5" fill="#4CAF50"/></svg>