<svg width="32" height="32" viewBox="0 0 32 32" fill="none" xmlns="http://www.w3.org/2000/svg"><path d="M29.95 15.77c0-1.695-1.26-3.11-2.92-3.413L31 1H12.239l3.975 11.38c-1.602.346-2.803 1.734-2.803 3.39 0 1.245.677 2.337 1.693 2.951a11.74 11.74 0 01-1.732 1.978 10.899 10.899 0 01-3.49 2.175c-1.273-.776-1.811-2.24-1.252-3.515l.044-.1.082-.187c1.398-.473 2.405-1.765 2.405-3.281 0-1.916-1.606-3.475-3.581-3.475-1.975 0-3.581 1.559-3.581 3.475 0 .967.41 1.842 1.068 2.473-.12.247-.245.498-.374.756-.603 1.201-1.286 2.563-1.545 4.075-.513 3.002.315 5.403 2.332 6.759C6.703 30.677 7.946 31 9.196 31c2.355 0 4.737-1.148 7.067-2.27 1.678-.809 3.412-1.645 5.126-2.055.638-.152 1.294-.244 1.989-.341 1.377-.193 2.802-.392 4.063-1.101 1.463-.822 2.464-2.2 2.747-3.782.243-1.358-.05-2.718-.763-3.872a3.377 3.377 0 00.525-1.808zm-1.406 0c0 1.165-.976 2.111-2.175 2.111-1.2 0-2.176-.947-2.176-2.11 0-1.164.976-2.11 2.175-2.11 1.2 0 2.176.946 2.176 2.11zm.495-13.406l-3.505 10.029c-.152.035-.3.08-.444.133l-3.462-6.852-3.473 6.812a3.613 3.613 0 00-.463-.122l-3.492-10h14.839zM16.992 13.66c1.2 0 2.175.947 2.175 2.11 0 1.165-.976 2.111-2.175 2.111-1.2 0-2.175-.947-2.175-2.11 0-1.164.976-2.11 2.175-2.11zm-9.412.02c1.2 0 2.175.947 2.175 2.11 0 1.165-.976 2.111-2.175 2.111-1.2 0-2.176-.947-2.176-2.11 0-1.164.976-2.11 2.176-2.11zm21.223 7.537c-.212 1.183-.965 2.216-2.066 2.835-1.027.577-2.257.75-3.56.932-.698.097-1.42.198-2.124.367-1.864.446-3.67 1.316-5.416 2.157-3.494 1.684-6.511 3.138-9.356 1.225-2.085-1.402-1.988-3.994-1.746-5.415.225-1.317.834-2.529 1.422-3.701.102-.203.2-.402.298-.6.292.114.602.191.925.226-.598 1.918.343 4.002 2.32 4.988l.27.134.287-.098c1.563-.54 3.003-1.407 4.28-2.576a13.035 13.035 0 002.119-2.485c.175.026.354.04.536.04 1.975 0 3.581-1.56 3.581-3.475 0-1.03-.465-1.957-1.202-2.594l2.251-4.415 2.274 4.5a3.416 3.416 0 00-1.109 2.509c0 1.916 1.607 3.474 3.582 3.474a3.63 3.63 0 002.042-.623c.402.8.552 1.7.392 2.595z" fill="#E0E0E0"/><path fill-rule="evenodd" clip-rule="evenodd" d="M27.03 12.357c.084.015.166.033.247.054 1.536.39 2.673 1.748 2.673 3.36 0 .662-.192 1.281-.525 1.808.714 1.154 1.006 2.514.763 3.872-.283 1.581-1.284 2.96-2.747 3.782-1.261.709-2.686.908-4.063 1.1-.695.098-1.351.19-1.989.342-1.713.41-3.447 1.246-5.125 2.054h-.001C13.933 29.853 11.55 31 9.196 31c-1.25 0-2.493-.323-3.716-1.146-2.017-1.356-2.845-3.757-2.332-6.76.259-1.511.942-2.873 1.545-4.074.13-.258.255-.509.374-.756A3.413 3.413 0 014 15.79c0-1.916 1.606-3.475 3.58-3.475 1.976 0 3.582 1.559 3.582 3.475 0 1.516-1.007 2.808-2.405 3.28l-.126.288c-.56 1.275-.021 2.739 1.252 3.515a10.899 10.899 0 003.49-2.175 11.79 11.79 0 001.732-1.978 3.565 3.565 0 01-.21-.137 3.438 3.438 0 01-1.483-2.813c0-1.572 1.08-2.902 2.56-3.33.08-.023.16-.043.243-.061L12.239 1H31l-3.97 11.357zm-11.142-.152c-1.572.46-2.727 1.88-2.727 3.566 0 1.243.63 2.342 1.589 3.017a11.545 11.545 0 01-1.546 1.727 10.673 10.673 0 01-3.294 2.08c-1.107-.734-1.538-2.025-1.051-3.135l.082-.189c1.438-.533 2.47-1.888 2.47-3.48 0-2.061-1.726-3.725-3.831-3.725-2.106 0-3.831 1.664-3.831 3.725 0 .974.387 1.86 1.016 2.523-.095.194-.194.392-.295.594l-.007.012c-.599 1.194-1.296 2.584-1.561 4.132-.525 3.07.317 5.583 2.438 7.01 1.267.851 2.559 1.188 3.856 1.188 2.413 0 4.838-1.169 7.145-2.28l.03-.015c1.684-.811 3.394-1.634 5.076-2.037.624-.149 1.268-.24 1.965-.337l.022-.003c1.363-.19 2.827-.395 4.13-1.127 1.524-.857 2.573-2.297 2.87-3.957.246-1.37-.03-2.74-.717-3.915a3.623 3.623 0 00.483-1.808c0-1.726-1.211-3.173-2.84-3.597L31.352.75H11.886l4.002 11.455zm9.202.321c.144-.053.292-.098.444-.133l3.505-10.03h-14.84l3.493 10c.159.031.313.072.463.123l3.473-6.812 3.462 6.852zm-7.208-.378l.146.037 3.6-7.064 3.587 7.099.127-.037 3.345-9.57H14.552l3.33 9.535zm5.291 12.809l-.03-.221c1.313-.184 2.493-.352 3.471-.902l.123.218c-1.027.577-2.257.75-3.56.932-.698.097-1.42.198-2.124.367-1.864.446-3.67 1.316-5.416 2.157-3.494 1.684-6.511 3.138-9.356 1.225-2.085-1.402-1.988-3.994-1.746-5.415.225-1.317.834-2.529 1.422-3.701.102-.203.2-.402.298-.6a3.64 3.64 0 00.925.226 3.953 3.953 0 00-.067.244c-.45 1.848.494 3.8 2.387 4.744l.27.134.287-.098c1.563-.54 3.003-1.407 4.28-2.576a13.035 13.035 0 002.119-2.485c.175.026.354.04.536.04 1.975 0 3.581-1.56 3.581-3.475 0-1.03-.465-1.957-1.202-2.594l2.251-4.415 2.274 4.5a3.416 3.416 0 00-1.109 2.509c0 1.916 1.607 3.474 3.582 3.474a3.64 3.64 0 002.042-.623 4.111 4.111 0 01.392 2.595c-.212 1.183-.965 2.216-2.066 2.835l-.123-.218c1.04-.584 1.745-1.556 1.943-2.66a3.855 3.855 0 00-.254-2.19 3.89 3.89 0 01-1.934.511c-2.106 0-3.832-1.663-3.832-3.724 0-.993.402-1.894 1.053-2.56l-1.97-3.898-1.94 3.807a3.662 3.662 0 011.142 2.65c0 2.06-1.725 3.724-3.831 3.724a4.04 4.04 0 01-.414-.021 13.309 13.309 0 01-2.072 2.401 12.483 12.483 0 01-4.367 2.628l-.386.133-.364-.182c-1.98-.987-2.992-3.04-2.524-5.005a3.883 3.883 0 01-.484-.122l-.2.402c-.592 1.178-1.181 2.358-1.4 3.63-.24 1.415-.308 3.857 1.639 5.166 1.353.91 2.745 1.024 4.243.7 1.512-.327 3.111-1.097 4.866-1.942l.012-.006c1.738-.837 3.563-1.717 5.453-2.17m0 0c.718-.17 1.45-.273 2.145-.37l.003-.001.031.22m3.196-7.325c1.068 0 1.925-.842 1.925-1.86 0-1.019-.857-1.86-1.925-1.86-1.069 0-1.926.841-1.926 1.86 0 1.018.857 1.86 1.925 1.86zm-7.452-1.86c0-1.019-.856-1.86-1.925-1.86s-1.925.841-1.925 1.86c0 1.018.856 1.86 1.925 1.86s1.925-.842 1.925-1.86zm-9.412.02c0-1.019-.856-1.86-1.925-1.86s-1.926.841-1.926 1.86c0 1.018.857 1.86 1.926 1.86s1.925-.842 1.925-1.86zm16.864 2.09c1.2 0 2.175-.947 2.175-2.11 0-1.164-.976-2.11-2.175-2.11-1.2 0-2.176.946-2.176 2.11 0 1.163.976 2.11 2.175 2.11zm-7.202-2.11c0-1.164-.976-2.11-2.175-2.11-1.2 0-2.175.946-2.175 2.11 0 1.163.976 2.11 2.175 2.11 1.2 0 2.175-.947 2.175-2.11zm-9.412.02c0-1.164-.976-2.11-2.175-2.11-1.2 0-2.176.946-2.176 2.11 0 1.163.976 2.11 2.176 2.11 1.2 0 2.175-.947 2.175-2.11z" fill="#E0E0E0"/></svg>