<svg width="40" height="40" viewBox="0 0 40 40" fill="none" xmlns="http://www.w3.org/2000/svg"><path d="M31 11.033c-2.4 0-4.667.934-6.283 2.55L20 17.767 17.467 20h.016L13 23.983a5.608 5.608 0 01-4 1.65c-3.117 0-5.65-2.517-5.65-5.633 0-3.117 2.533-5.633 5.65-5.633 1.517 0 2.933.583 4.067 1.716l1.883 1.667 2.517-2.233-2.1-1.85A8.951 8.951 0 009 11.032c-4.967 0-9 4.034-9 8.967 0 4.933 4.033 8.966 9 8.966 2.4 0 4.667-.933 6.283-2.55L20 22.25l.017.017L22.533 20h-.016L27 16.017a5.608 5.608 0 014-1.65c3.117 0 5.65 2.516 5.65 5.633 0 3.116-2.533 5.633-5.65 5.633-1.5 0-2.933-.583-4.067-1.716l-1.9-1.684-2.516 2.233 2.116 1.867A8.976 8.976 0 0031 28.95c4.967 0 9-4.017 9-8.967s-4.033-8.95-9-8.95z" fill="#E0E0E0"/></svg>