<svg width="32" height="32" viewBox="0 0 32 32" fill="none" xmlns="http://www.w3.org/2000/svg"><path d="M18.814 4.744H13.02v15.393H8.883l7.062 6.897 7.007-6.952h-4.138V4.744z" fill="#E0E0E0"/><path d="M16 0C7.172 0 0 7.172 0 16s7.172 16 16 16 16-7.172 16-16S24.828 0 16 0zm-.055 28.58l-9.71-9.545h5.737V3.64h8v15.34h5.738l-9.765 9.6z" fill="#E0E0E0"/><path d="M19.917 3.64h-8v15.34H6.234l9.71 9.544 9.711-9.6h-5.738V3.641zm3.035 16.442l-7.007 6.952-7.062-6.897h4.138V4.744h5.793v15.338h4.138z" fill="#121212"/></svg>