<svg width="32" height="32" viewBox="0 0 32 32" fill="none" xmlns="http://www.w3.org/2000/svg"><path d="M26.667 17.333H5.333c-.733 0-1.333.6-1.333 1.334v8C4 27.4 4.6 28 5.333 28h21.334C27.4 28 28 27.4 28 26.667v-8c0-.734-.6-1.334-1.333-1.334zm-17.334 8a2.674 2.674 0 01-2.666-2.666C6.667 21.2 7.867 20 9.333 20 10.8 20 12 21.2 12 22.667c0 1.466-1.2 2.666-2.667 2.666zM26.667 4H5.333C4.6 4 4 4.6 4 5.333v8c0 .734.6 1.334 1.333 1.334h21.334c.733 0 1.333-.6 1.333-1.334v-8C28 4.6 27.4 4 26.667 4zM9.333 12a2.675 2.675 0 01-2.666-2.667c0-1.466 1.2-2.666 2.666-2.666C10.8 6.667 12 7.867 12 9.333 12 10.8 10.8 12 9.333 12z" fill="#E0E0E0"/></svg>