<svg width="32" height="32" viewBox="0 0 32 32" fill="none" xmlns="http://www.w3.org/2000/svg"><path fill="#E0E0E0" d="M0 0h32v32H0z"/><path d="M32 0H0v32h32V0z" fill="#E0E0E0"/><path d="M24.4 4.75c-1.65.05-3.3.9-4.55 2.4-1.05 1.25-1.95 2.75-2.6 4.65-.15-.15-.3-.3-.5-.45-.8-.75-1.6-1.5-2.95-1.85-1.5-.45-2.95-.15-4.25.75-.6.45-1.1 1.15-1.3 1.9-.6 1.95.8 3.6 1.1 3.95l1.05 1.1c.45.45.55.9.4 1.35-.2.7-1.15 1.25-2.15.95-.4-.15-.75-.35-.85-.55-.05-.05-.05-.1 0-.2s.1-.2.15-.25c.05-.1.1-.15.15-.25.05-.15.1-.3.15-.4.15-.45.1-.95-.15-1.35-.2-.35-.45-.6-.8-.7-.9-.3-1.65.1-1.9.95-.2.6-.1 1.25.25 1.9.3.6 1.05 1.45 2.6 1.9 1.5.45 3.05.3 4.25-.45.95-.6 1.6-1.5 1.75-2.5.25-1.35-.35-2.4-1.5-3.7l-.9-.95c-.45-.45-.6-1.15-.15-1.75.45-.55 1.05-.7 1.95-.45 1.05.3 1.7.85 2.35 1.5.25.25.55.5.85.75-.45 1.5-.75 3.05-1.05 4.35l-.2 1.1c-.85 4.5-1.5 6.7-3.05 8-.3.2-.75.5-1.35.55-.2 0-.25-.1-.25-.1 0-.1.05-.15.2-.25l.05-.05c.2-.1.7-.4.65-1.2 0-.45-.2-.85-.55-1.15-.35-.3-.8-.45-1.3-.45-.8.05-1.95.8-1.9 2.1.05 1.35 1.3 2.3 2.95 2.3h.15c1.05-.05 3.1-.45 5.1-2.85 2.35-2.75 3-5.85 3.5-8.15l.5-2.85c.25 0 .5.05.75.05 2.2.05 3.35-.75 3.85-1.25.5-.45.75-1 .75-1.55 0-.45-.15-.9-.45-1.2-.25-.25-.55-.35-.85-.35-.55 0-1.2.35-1.4 1.1-.05.35.1.6.25.85.2.35.25.45-.05.65s-1.15.6-2.7.4l.2-1.2c.55-2.7 1.2-6.05 3.55-6.15.2 0 .5.05.6.15.05.05.05.05.05.1s0 .05-.1.25l.05.3c-.2.3-.3.6-.3.9 0 .4.2.8.5 1.05s.7.4 1.15.35c.55 0 1-.25 1.3-.7.25-.4.3-.85.3-1.1-.05-1.4-1.4-2.3-3.35-2.25z" fill="#000"/></svg>