<svg width="96" height="48" viewBox="0 0 96 48" fill="none" xmlns="http://www.w3.org/2000/svg"><path d="M42.776 19.264l-2.112 9.856h8.128v8h-9.856L36.632 48H28.12l2.304-10.88H18.776L16.472 48H8.024l2.304-10.88H.664v-8h11.392l2.112-9.856h-9.6v-8h11.328L18.136.64h8.448l-2.24 10.624h11.648L38.232.64h8.512l-2.24 10.624h8.192v8h-9.92zm-8.512 0H22.616l-2.112 9.856h11.648l2.112-9.856zm24.494 19.648v-7.04L79.686 1.92h10.432v29.184h5.632v7.808h-5.632V48h-8.96v-9.088h-22.4zM81.734 11.52l-13.12 19.584h13.12V11.52z" fill="#E0E0E0"/></svg>