<svg width="94" height="48" viewBox="0 0 94 48" fill="none" xmlns="http://www.w3.org/2000/svg"><path d="M42.776 19.264l-2.112 9.856h8.128v8h-9.856L36.632 48H28.12l2.304-10.88H18.776L16.472 48H8.024l2.304-10.88H.664v-8h11.392l2.112-9.856h-9.6v-8h11.328L18.136.64h8.448l-2.24 10.624h11.648L38.232.64h8.512l-2.24 10.624h8.192v8h-9.92zm-8.512 0H22.616l-2.112 9.856h11.648l2.112-9.856zM90.502 9.088H69.766v10.944c.896-1.11 2.176-2.005 3.84-2.688a13.15 13.15 0 015.312-1.088c3.413 0 6.208.747 8.384 2.24 2.176 1.493 3.755 3.413 4.736 5.76.981 2.304 1.472 4.779 1.472 7.424 0 4.907-1.408 8.853-4.224 11.84C86.513 46.507 82.545 48 77.382 48c-4.864 0-8.747-1.216-11.648-3.648-2.901-2.432-4.544-5.61-4.928-9.536h8.704c.384 1.707 1.237 3.072 2.56 4.096 1.365 1.024 3.093 1.536 5.184 1.536 2.517 0 4.416-.79 5.696-2.368 1.28-1.579 1.92-3.67 1.92-6.272 0-2.645-.661-4.65-1.984-6.016-1.28-1.408-3.179-2.112-5.696-2.112-1.792 0-3.285.448-4.48 1.344-1.195.896-2.048 2.09-2.56 3.584h-8.576V1.216h28.928v7.872z" fill="#E0E0E0"/></svg>