<svg width="91" height="48" viewBox="0 0 91 48" fill="none" xmlns="http://www.w3.org/2000/svg"><path d="M42.776 19.264l-2.112 9.856h8.128v8h-9.856L36.632 48H28.12l2.304-10.88H18.776L16.472 48H8.024l2.304-10.88H.664v-8h11.392l2.112-9.856h-9.6v-8h11.328L18.136.64h8.448l-2.24 10.624h11.648L38.232.64h8.512l-2.24 10.624h8.192v8h-9.92zm-8.512 0H22.616l-2.112 9.856h11.648l2.112-9.856zm27.694 18.624c4.096-3.413 7.36-6.25 9.792-8.512 2.432-2.304 4.459-4.693 6.08-7.168 1.621-2.475 2.432-4.907 2.432-7.296 0-2.176-.512-3.883-1.536-5.12s-2.603-1.856-4.736-1.856c-2.133 0-3.776.725-4.928 2.176-1.152 1.408-1.75 3.35-1.792 5.824h-8.704c.17-5.12 1.685-9.003 4.544-11.648C66.011 1.643 69.68.32 74.118.32c4.864 0 8.597 1.301 11.2 3.904 2.603 2.56 3.904 5.952 3.904 10.176 0 3.328-.896 6.507-2.688 9.536-1.792 3.03-3.84 5.675-6.144 7.936-2.304 2.219-5.312 4.907-9.024 8.064h18.88v7.424H58.63v-6.656l3.328-2.816z" fill="#E0E0E0"/></svg>