<svg width="93" height="49" viewBox="0 0 93 49" fill="none" xmlns="http://www.w3.org/2000/svg"><path d="M42.776 19.264l-2.112 9.856h8.128v8h-9.856L36.632 48H28.12l2.304-10.88H18.776L16.472 48H8.024l2.304-10.88H.664v-8h11.392l2.112-9.856h-9.6v-8h11.328L18.136.64h8.448l-2.24 10.624h11.648L38.232.64h8.512l-2.24 10.624h8.192v8h-9.92zm-8.512 0H22.616l-2.112 9.856h11.648l2.112-9.856zm49.07-6.272c-.427-1.792-1.173-3.136-2.24-4.032-1.024-.896-2.517-1.344-4.48-1.344-2.944 0-5.12 1.195-6.528 3.584-1.365 2.347-2.07 6.187-2.112 11.52 1.024-1.707 2.517-3.03 4.48-3.968 1.963-.981 4.096-1.472 6.4-1.472 2.773 0 5.227.597 7.36 1.792s3.797 2.944 4.992 5.248c1.195 2.261 1.792 4.992 1.792 8.192 0 3.03-.619 5.739-1.856 8.128-1.195 2.347-2.965 4.181-5.312 5.504-2.347 1.323-5.141 1.984-8.384 1.984-4.437 0-7.936-.981-10.496-2.944-2.517-1.963-4.288-4.693-5.312-8.192-.981-3.541-1.472-7.893-1.472-13.056 0-7.808 1.344-13.696 4.032-17.664C66.886 2.262 71.131.256 76.934.256c4.48 0 7.957 1.216 10.432 3.648 2.475 2.432 3.904 5.461 4.288 9.088h-8.32zM76.806 24.64c-2.261 0-4.16.661-5.696 1.984-1.536 1.323-2.304 3.243-2.304 5.76s.704 4.501 2.112 5.952c1.45 1.45 3.477 2.176 6.08 2.176 2.304 0 4.117-.704 5.44-2.112 1.365-1.408 2.048-3.307 2.048-5.696 0-2.475-.661-4.437-1.984-5.888-1.28-1.45-3.179-2.176-5.696-2.176z" fill="#E0E0E0"/></svg>