<svg width="91" height="49" viewBox="0 0 91 49" fill="none" xmlns="http://www.w3.org/2000/svg"><path d="M42.776 19.264l-2.112 9.856h8.128v8h-9.856L36.632 48H28.12l2.304-10.88H18.776L16.472 48H8.024l2.304-10.88H.664v-8h11.392l2.112-9.856h-9.6v-8h11.328L18.136.64h8.448l-2.24 10.624h11.648L38.232.64h8.512l-2.24 10.624h8.192v8h-9.92zm-8.512 0H22.616l-2.112 9.856h11.648l2.112-9.856zm25.006-5.632c.213-4.267 1.707-7.552 4.48-9.856 2.816-2.347 6.507-3.52 11.072-3.52 3.115 0 5.781.555 8 1.664 2.219 1.067 3.883 2.539 4.992 4.416 1.152 1.835 1.728 3.925 1.728 6.272 0 2.688-.704 4.97-2.112 6.848-1.365 1.835-3.008 3.072-4.928 3.712v.256c2.475.768 4.395 2.133 5.76 4.096 1.408 1.963 2.112 4.48 2.112 7.552 0 2.56-.597 4.843-1.792 6.848-1.152 2.005-2.88 3.584-5.184 4.736-2.261 1.11-4.992 1.664-8.192 1.664-4.821 0-8.747-1.216-11.776-3.648-3.03-2.432-4.63-6.016-4.8-10.752h8.704c.085 2.09.79 3.776 2.112 5.056 1.365 1.237 3.221 1.856 5.568 1.856 2.176 0 3.84-.597 4.992-1.792 1.195-1.237 1.792-2.816 1.792-4.736 0-2.56-.81-4.395-2.432-5.504-1.621-1.11-4.139-1.664-7.552-1.664h-1.856v-7.36h1.856c6.059 0 9.088-2.027 9.088-6.08 0-1.835-.555-3.264-1.664-4.288-1.067-1.024-2.624-1.536-4.672-1.536-2.005 0-3.563.555-4.672 1.664-1.067 1.067-1.685 2.432-1.856 4.096H59.27z" fill="#E0E0E0"/></svg>