<svg width="54" height="54" viewBox="0 0 54 54" fill="none" xmlns="http://www.w3.org/2000/svg"><path d="M33.396 27.501c0 2.911-2.415 5.271-5.393 5.271-2.978 0-5.393-2.36-5.393-5.27 0-2.912 2.415-5.272 5.393-5.272 2.978 0 5.393 2.36 5.393 5.271z" fill="#E0E0E0"/><path fill-rule="evenodd" clip-rule="evenodd" d="M16.518 32.605c.172.129.345.257.516.387a.241.241 0 01-.045.087c-.326 0-.655.014-.982.015-.226 0-.45-.005-.672-.027-.605-.058-1.045.099-1.343.633-.064.114-.154.215-.243.316a2.37 2.37 0 00-.204.253c-.185.277-.352.361-.716.21-.953-.394-2.077-.062-2.715.73-.314.397-.49.881-.504 1.382a2.33 2.33 0 00.426 1.407c.298.41.721.717 1.21.876.487.16 1.015.164 1.506.012a2.408 2.408 0 001.2-.855 2.31 2.31 0 00.457-1.379c.002-.635-.262-1.165-.673-1.65l.254-.321c.208-.265.41-.522.631-.76a.81.81 0 01.509-.241 55.887 55.887 0 012.6 0c.213.013.422.073.608.176.908.48 1.78 1.027 2.711 1.462 3.293 1.545 6.723 2.097 10.325 1.237 2.246-.536 4.3-1.497 6.239-2.707a1.1 1.1 0 01.533-.168c.918-.013 1.836-.008 2.754 0 .118 0 .284.023.35.099.262.297.51.606.757.915l.252.314-.123.157c-.04.051-.075.098-.11.146a2.284 2.284 0 00.003 2.708c.192.263.437.483.72.65a2.45 2.45 0 001.925.232c.32-.093.616-.25.87-.462a2.3 2.3 0 00.814-2.126 2.33 2.33 0 00-.609-1.242 2.378 2.378 0 00-1.24-.696 2.42 2.42 0 00-1.425.128c-.264.11-.407.088-.57-.139-.235-.331-.524-.624-.757-.958-.182-.264-.4-.34-.714-.33-.62.022-1.241.005-1.862.005a1.376 1.376 0 01-.222-.03l.841-.731a375.11 375.11 0 012.87-2.48c.093-.079.26-.101.394-.101.75-.01 1.5-.01 2.25-.005.173.002.352-.01.53-.02.434-.026.869-.053 1.232.09.33.132.593.422.857.714.134.148.269.297.413.426.244.219.33.38.132.718-.532.905-.306 2.048.476 2.767a2.465 2.465 0 002.908.283c.438-.263.777-.657.968-1.123.19-.466.222-.98.09-1.465-.292-1.037-1.223-1.773-2.31-1.721a3.677 3.677 0 00-.766.137c-.265.07-.54.156-.84.227l-.256-.255c-.353-.356-.75-.755-1.166-1.134a.945.945 0 00-.57-.227c-1.033-.022-2.068-.012-3.103-.012h-.515c.466-.539.862-1.014 1.279-1.472.164-.178.165-.303 0-.477-.562-.593-1.117-1.19-1.674-1.788l-.493-.529a18.66 18.66 0 00-.345-.357l.19-.012c.1-.006.174-.011.248-.011 1.423-.002 2.845.007 4.267-.008.3-.004.419.087.496.375.324 1.147 1.458 1.824 2.7 1.647a2.336 2.336 0 001.991-2.309c-.002-1.202-.863-2.143-2.117-2.316-1.132-.156-2.266.563-2.576 1.672-.073.274-.185.354-.466.354-.778-.005-1.556-.006-2.334-.006-.929-.001-1.858-.002-2.787-.01a.998.998 0 01-.543-.202c-.471-.356-.937-.718-1.403-1.08-.393-.306-.785-.611-1.181-.913-.22-.166-.45-.317-.689-.473-.114-.075-.23-.15-.346-.23.067-.07.124-.134.18-.192.032-.035.064-.068.097-.1l.57-.56c.422-.412.843-.824 1.255-1.243a.797.797 0 01.64-.268c1.111.015 2.224.017 3.336 0 .298-.005.413.08.497.369.33 1.125 1.48 1.833 2.623 1.655 1.243-.193 2.084-1.151 2.068-2.36a2.342 2.342 0 00-2.043-2.27c-1.247-.149-2.348.541-2.662 1.704-.074.271-.196.326-.454.326-.56-.005-1.12-.004-1.68-.004-.642 0-1.285.001-1.927-.007a.87.87 0 00-.675.276c-.57.564-1.149 1.119-1.735 1.68l-.674.646c-2.775-1.61-5.717-2.735-9.015-2.744-3.31-.008-6.266 1.113-9.042 2.718l-.435-.419a140.905 140.905 0 00-2.025-1.925.874.874 0 00-.53-.217 135.57 135.57 0 00-3.647-.004c-.29.003-.418-.062-.501-.364-.343-1.242-1.679-1.95-2.955-1.603a2.383 2.383 0 00-1.44 1.103 2.28 2.28 0 00-.218 1.77c.14.49.44.922.853 1.23a2.447 2.447 0 002.904.012 2.33 2.33 0 00.864-1.244c.06-.198.1-.332.366-.332a215.5 215.5 0 001.97.006c.546 0 1.092 0 1.637.004.113 0 .222.037.31.105.606.556 1.205 1.118 1.83 1.704l.517.485c-.145.086-.192.11-.233.14-1.198.898-2.392 1.8-3.597 2.688a.82.82 0 01-.458.133c-1.682.013-3.363 0-5.044.013-.291.002-.42-.068-.502-.364a2.318 2.318 0 00-.895-1.247 2.422 2.422 0 00-1.495-.437c-1.238.069-2.232 1.003-2.294 2.159-.069 1.24.764 2.295 1.958 2.484 1.26.2 2.408-.495 2.74-1.691.074-.27.197-.325.455-.325 1.423.006 2.845.006 4.268.006.11 0 .22.017.355.029l-2.68 2.873.267.322c.164.198.314.379.466.554.15.172.302.34.469.525l.29.322c-.211.01-.348.021-.486.021-.237 0-.474.005-.712.008-.578.01-1.156.019-1.731-.02-.687-.046-1.215.123-1.645.665a8.78 8.78 0 01-.715.764c-.11.109-.218.216-.323.325l-.188-.104a5.37 5.37 0 00-.263-.142 2.463 2.463 0 00-1.64-.184 2.41 2.41 0 00-1.376.89 2.312 2.312 0 00.216 3.018 2.462 2.462 0 003.153.245c.948-.674 1.262-1.962.678-2.97-.174-.3-.121-.454.111-.658.168-.149.328-.307.488-.466.184-.184.37-.367.567-.536a.98.98 0 01.57-.227 114.07 114.07 0 013.606 0 .93.93 0 01.537.21c.418.353.829.713 1.24 1.073.386.34.773.678 1.165 1.01.235.199.48.384.726.568zm6.059.055a7.337 7.337 0 01-2.222-5.254c.01-4.089 3.445-7.41 7.652-7.398 4.186.012 7.61 3.38 7.591 7.463-.019 4.062-3.463 7.388-7.64 7.378a7.728 7.728 0 01-5.381-2.19zm19.677-5.232c-1.8 1.91-3.778 3.574-6.043 4.92.903-1.544 1.383-3.184 1.376-4.945-.006-1.747-.485-3.373-1.385-4.899 2.267 1.337 4.238 3.002 6.052 4.924zm-28.545-.022c1.783-1.888 3.758-3.559 6.026-4.9-.898 1.547-1.38 3.18-1.375 4.95.005 1.751.489 3.37 1.425 4.894-1.02-.303-5.038-3.583-6.076-4.944zm-1.703 8.198c.574-.011 1.091.483 1.098 1.048a1.067 1.067 0 01-.318.744c-.2.199-.472.314-.758.322a1.12 1.12 0 01-.765-.306 1.065 1.065 0 01-.331-.738 1.07 1.07 0 01.317-.745c.2-.2.471-.316.757-.325zm32.737 1.809c-.205.194-.48.304-.765.306h-.003a1.123 1.123 0 01-.756-.325 1.067 1.067 0 01-.317-.744c.008-.563.527-1.057 1.1-1.046.286.01.558.126.758.326.2.2.313.466.317.745a1.07 1.07 0 01-.334.738zM10.29 19.08a1.128 1.128 0 01-.762.313h-.005a1.116 1.116 0 01-.758-.32 1.061 1.061 0 01-.318-.741 1.047 1.047 0 01.324-.741 1.11 1.11 0 01.762-.31c.287.005.56.118.763.316.203.197.319.463.324.743a1.072 1.072 0 01-.33.74zm35.417-1.48a1.12 1.12 0 01.76-.317c.286.001.56.111.764.306.203.196.32.461.327.74a1.06 1.06 0 01-.318.744 1.116 1.116 0 01-.76.319 1.127 1.127 0 01-.764-.311 1.07 1.07 0 01-.33-.74c.004-.278.12-.544.321-.742zM7.094 24.954a1.1 1.1 0 01-1.526-.021c-.2-.2-.311-.467-.31-.746a1.04 1.04 0 01.329-.737 1.104 1.104 0 011.528.021c.202.2.314.467.314.747a1.045 1.045 0 01-.335.736zm43.341-.021a1.1 1.1 0 01-1.533.015 1.054 1.054 0 01-.329-.744c.004-.274.116-.536.313-.732a1.103 1.103 0 011.52-.03c.208.194.33.46.338.74.003.28-.108.55-.309.75zM6.148 31.97c.206.196.324.463.33.744 0 .28-.113.55-.315.75a1.108 1.108 0 01-.764.317 1.11 1.11 0 01-.764-.317 1.053 1.053 0 01-.316-.749 1.06 1.06 0 01.316-.73 1.105 1.105 0 01.744-.32c.287 0 .564.109.77.305zm45.212.006c.199.194.314.454.322.728.003.28-.108.55-.309.75-.2.202-.473.318-.76.324a1.1 1.1 0 01-.767-.31 1.045 1.045 0 01-.32-.745c.002-.28.118-.548.32-.746a1.11 1.11 0 01.766-.313c.281.007.549.12.748.312z" fill="#E0E0E0"/></svg>