<svg width="40" height="18" viewBox="0 0 40 18" fill="none" xmlns="http://www.w3.org/2000/svg"><path d="M31 .032c-2.4 0-4.667.934-6.283 2.55L20 6.766l-2.533 2.233h.016L13 12.982a5.608 5.608 0 01-4 1.65c-3.117 0-5.65-2.516-5.65-5.633S5.883 3.366 9 3.366c1.517 0 2.933.583 4.067 1.716L14.95 6.75l2.517-2.233-2.1-1.85A8.951 8.951 0 009 .032C4.033.032 0 4.066 0 9c0 4.933 4.033 8.967 9 8.967 2.4 0 4.667-.934 6.283-2.55L20 11.249l.017.017 2.516-2.267h-.016L27 5.016a5.608 5.608 0 014-1.65c3.117 0 5.65 2.516 5.65 5.633s-2.533 5.633-5.65 5.633c-1.5 0-2.933-.583-4.067-1.716l-1.9-1.684-2.516 2.234 2.116 1.866A8.976 8.976 0 0031 17.95c4.967 0 9-4.017 9-8.967s-4.033-8.95-9-8.95z" fill="#E0E0E0"/></svg>