<svg width="32" height="32" viewBox="0 0 32 32" fill="none" xmlns="http://www.w3.org/2000/svg"><g clip-path="url(#clip0)"><path d="M6.29 23.338c-.915 0-1.747-.777-1.747-1.727 0-.95.748-1.726 1.747-1.726.998 0 1.747.777 1.747 1.726 0 .95-.832 1.727-1.747 1.727zm21.467-9.41c-.167-1.381-.999-2.504-2.08-3.367l-.416-.345-.333.432c-.666.777-.916 2.158-.832 3.194.083.777.332 1.554.748 2.158-.332.173-.748.345-1.081.518-.75.259-1.498.345-2.247.345H-.034l-.083.518a10.04 10.04 0 00.749 4.921l.333.605v.086C2.962 26.446 6.54 28 10.45 28c7.489 0 13.646-3.367 16.558-10.619 1.913.087 3.827-.431 4.742-2.33l.25-.432-.416-.26c-1.082-.69-2.58-.776-3.827-.43zm-10.734-1.381h-3.245v3.367h3.245v-3.367zm0-4.23h-3.245v3.367h3.245V8.317zm0-4.317h-3.245v3.367h3.245V4zm3.994 8.547h-3.245v3.367h3.245v-3.367zm-12.065 0H5.707v3.367h3.245v-3.367zm4.077 0H9.784v3.367h3.245v-3.367zm-8.07 0H1.714v3.367h3.245v-3.367zm8.07-4.23H9.784v3.367h3.245V8.317zm-4.077 0H5.707v3.367h3.245V8.317z" fill="#E0E0E0"/></g><defs><clipPath id="clip0"><path fill="#fff" d="M0 0h32v32H0z"/></clipPath></defs></svg>