<svg width="32" height="32" viewBox="0 0 32 32" fill="none" xmlns="http://www.w3.org/2000/svg"><path d="M11.46 17.082a4.679 4.679 0 010-2.164l-1.323-.764 1.334-2.31 1.322.765a4.662 4.662 0 011.874-1.083V9.999h2.666v1.527c.71.21 1.35.587 1.874 1.083l1.322-.764 1.334 2.309-1.323.764a4.681 4.681 0 010 2.163l1.323.764-1.334 2.309-1.322-.764a4.662 4.662 0 01-1.874 1.083v1.526h-2.666v-1.526a4.662 4.662 0 01-1.874-1.083l-1.322.764-1.334-2.31 1.323-.762zm4.54.917a2 2 0 100-4 2 2 0 000 4zm4-12.666H6.667v21.333h18.666v-16H20V5.333zM4 3.989c0-.731.596-1.323 1.332-1.323h16.001L28 9.333V27.99a1.334 1.334 0 01-1.324 1.343H5.324A1.334 1.334 0 014 28.01V3.989z" fill="#E0E0E0"/></svg>