<svg width="32" height="32" viewBox="0 0 32 32" fill="none" xmlns="http://www.w3.org/2000/svg"><path d="M25.333 4H19.76C19.2 2.453 17.733 1.333 16 1.333c-1.733 0-3.2 1.12-3.76 2.667H6.667c-.187 0-.36.013-.534.053-.52.107-.986.374-1.346.734-.24.24-.44.533-.574.853A2.569 2.569 0 004 6.667v18.666c0 .36.08.72.213 1.04.134.32.334.6.574.854.36.36.826.626 1.346.733.174.027.347.04.534.04h18.666C26.8 28 28 26.8 28 25.333V6.667C28 5.2 26.8 4 25.333 4zm-11.6 15.84c-.52.52-1.373.52-1.893 0l-2.893-2.893c-.52-.52-.52-1.36 0-1.88l2.893-2.894c.52-.52 1.373-.52 1.893 0s.52 1.36 0 1.88L11.773 16l1.947 1.947c.52.52.533 1.373.013 1.893zM16 5.667c-.547 0-1-.454-1-1 0-.547.453-1 1-1 .547 0 1 .453 1 1 0 .546-.453 1-1 1zm2.267 14.173c-.52-.52-.52-1.36 0-1.88l1.96-1.96-1.96-1.96c-.52-.52-.52-1.36 0-1.88.52-.52 1.373-.52 1.893 0l2.893 2.893c.52.52.52 1.36 0 1.88l-2.893 2.894a1.332 1.332 0 01-1.893.013z" fill="#E0E0E0"/></svg>