<svg width="32" height="32" viewBox="0 0 32 32" fill="none" xmlns="http://www.w3.org/2000/svg"><g clip-path="url(#clip0)"><path fill-rule="evenodd" clip-rule="evenodd" d="M30.267 1.733C29.067.6 27.667 0 26 0H6C4.333 0 2.933.6 1.733 1.733A6.327 6.327 0 00.267 4c1.933-.133 5.066-.4 5.6-.467.733-.066.866.134 1.133.6l.067.067 8.666 14.467 10.934-2.6-.2-.267c-.8-1.2-3.2-4.533-3.467-4.867-.267-.4 0-.6.467-.666.147-.021.666-.109 1.318-.218 1.414-.239 3.454-.582 3.682-.582h.067l.016-.004c.326-.065.592-.118 1.117.537.267.333 1.133 1.4 2 2.467l.267.333V6C32 4.333 31.4 2.933 30.267 1.733zM21 27.934c-.866.267-1.333.4-1.866-.4-.35-.45-1.788-3.037-2.991-5.203a424.16 424.16 0 00-1.076-1.93c-2.267.6-6.334 1.666-7.534 1.933-1.133.267-1.666-.4-1.866-.867-.026-.052-.143-.306-.332-.716v-.002c-.296-.642-.766-1.662-1.335-2.882-.386-.836-.814-1.756-1.256-2.707C1.812 13.154.814 11.008 0 9.2V26c0 1.667.6 3.067 1.733 4.267 1.2 1.134 2.6 1.734 4.267 1.734h20c1.667 0 3.067-.6 4.267-1.734 1.2-1.2 1.733-2.6 1.733-4.266v-2c-2.466.933-10.333 3.733-11 3.933zm8.067-17c-.2-.2-.267-.2-.4-.2-.06 0-.726.12-1.459.254-.899.163-1.898.345-2.008.345-.2 0-.133.133-.066.267l2.733 3.8s3.4-.867 3.6-.867h.067V14l-.2-.133c-.734-.934-2.134-2.734-2.267-2.934zm-2.2 6.733l-9.6 2.534s2.933 5.066 3.133 5.4c.2.333.334.333.534.2.057-.029.691-.242 1.608-.55h.002A377.38 377.38 0 0027 23.734a209.93 209.93 0 001.893-.643c.848-.292 1.426-.49 1.507-.49.267-.067.2-.2.134-.267-.067-.067-.6-.8-1.267-1.733-.4-.555-.844-1.152-1.212-1.648-.427-.576-.752-1.014-.788-1.086-.067-.266-.2-.266-.4-.2zM7.2 19.934c0 .066.067.133.333.066.134-.066 1.6-.4 3.067-.733l.548-.133c.37-.09.741-.178 1.052-.267.734-.2 1.267-.333 1.334-.333.133 0 .2-.067.066-.334-.133-.2-7.467-12.8-7.467-12.8v-.066a.226.226 0 00-.064-.054c-.026-.013-.059-.013-.136-.013-.017 0-.116.009-.274.024-.452.04-1.389.127-2.326.176-.602.07-1.186.123-1.67.166-.428.038-.778.07-.996.1 0 .1-.017.2-.034.3-.016.1-.033.2-.033.3.795 1.59 4.453 9.16 5.955 12.266l.645 1.335zm21.534-3A165.67 165.67 0 0032 16.066v5.266a95.215 95.215 0 00-1.925-2.603 111.06 111.06 0 01-1.341-1.797z" fill="#E0E0E0"/></g><defs><clipPath id="clip0"><path fill="#fff" d="M0 0h32v32H0z"/></clipPath></defs></svg>