<svg width="34" height="40" viewBox="0 0 34 40" fill="none" xmlns="http://www.w3.org/2000/svg"><path fill-rule="evenodd" clip-rule="evenodd" d="M0 3.55V.784A.8.8 0 01.81 0h5.227a.8.8 0 01.809.785v11.499c-.017 1.229.097 1.156-.658.18L1.015 5.783C.213 4.745 0 4.83 0 3.549z" fill="#46BDC4"/><path fill-rule="evenodd" clip-rule="evenodd" d="M6.846 23.254c0 1.389.24 2.741.765 4.035a9.669 9.669 0 002.094 3.21c.917.924 1.997 1.625 3.206 2.138 1.3.551 2.676.788 4.09.788 1.433 0 2.84-.234 4.16-.79 1.206-.509 2.282-1.211 3.19-2.14a9.747 9.747 0 002.078-3.21c.521-1.29.75-2.647.75-4.031V6.253a.76.76 0 01-.025-.193V.785a.8.8 0 01.81-.785h5.226a.8.8 0 01.81.785v22.828c0 2.264-.442 4.466-1.372 6.545a16.2 16.2 0 01-3.648 5.185c-1.559 1.476-3.375 2.613-5.389 3.418-2.1.84-4.32 1.239-6.59 1.239-1.53 0-3.047-.194-4.522-.589a16.83 16.83 0 01-4.068-1.667 17.313 17.313 0 01-3.423-2.586 16.512 16.512 0 01-4.371-7.263A15.746 15.746 0 010 23.494v-9.602c.017-1.228-.097-1.156.658-.18l5.173 6.683c.802 1.037 1.015.952 1.015 2.233v.626z" fill="#fff"/></svg>