<svg width="32" height="32" viewBox="0 0 32 32" fill="none" xmlns="http://www.w3.org/2000/svg"><path d="M16.294 17.117c-.312-.015-.624-.03-.95-.03a17.91 17.91 0 00-9.373 2.648C4.723 20.49 4 21.915 4 23.413v2.4c0 .8.638 1.454 1.418 1.454H17.13a10.305 10.305 0 01-1.786-5.817c0-1.556.354-3.01.95-4.333zm-.95-1.484c3.132 0 5.671-2.604 5.671-5.816C21.015 6.604 18.476 4 15.344 4 12.21 4 9.672 6.604 9.672 9.817c0 3.212 2.54 5.816 5.671 5.816zm15.243 5.817c0-.32-.043-.611-.086-.916l1.191-1.062a.745.745 0 00.142-.916l-.836-1.483a.685.685 0 00-.837-.32l-1.503.523a5.143 5.143 0 00-1.531-.916l-.312-1.585a.718.718 0 00-.695-.582h-1.673a.718.718 0 00-.695.582l-.312 1.585a5.143 5.143 0 00-1.531.916l-1.503-.523a.695.695 0 00-.837.32l-.836 1.483a.745.745 0 00.141.916l1.191 1.061c-.042.306-.085.597-.085.917 0 .32.043.61.085.916l-1.19 1.061a.745.745 0 00-.142.916l.836 1.484c.17.305.525.436.837.32l1.503-.524c.453.393.964.698 1.531.916l.312 1.585c.07.335.355.582.695.582h1.673c.34 0 .624-.247.695-.582l.312-1.585a5.143 5.143 0 001.531-.916l1.503.523a.695.695 0 00.837-.32l.836-1.483a.745.745 0 00-.142-.916l-1.19-1.061c.042-.306.085-.596.085-.916zm-5.318 2.908c-1.56 0-2.836-1.309-2.836-2.908 0-1.6 1.276-2.909 2.836-2.909 1.56 0 2.836 1.309 2.836 2.909 0 1.6-1.276 2.908-2.836 2.908z" fill="#E0E0E0"/></svg>