<svg width="32" height="32" viewBox="0 0 32 32" fill="none" xmlns="http://www.w3.org/2000/svg"><path d="M26.957 17.334h-6.733a11.964 11.964 0 01-6.574 9.4 3.998 3.998 0 01-4.723 3.867c-1.597-.28-2.914-1.6-3.194-3.2a3.995 3.995 0 013.926-4.734c1.264 0 2.368.6 3.1 1.52a9.291 9.291 0 004.764-6.853h-4.125c-.64 1.787-2.475 2.987-4.551 2.587-1.57-.307-2.834-1.6-3.127-3.174a4.015 4.015 0 013.939-4.746c1.73 0 3.193 1.12 3.752 2.666h4.125c-.426-2.973-2.249-5.466-4.777-6.853-.852 1.067-2.222 1.707-3.74 1.467-1.636-.254-3.006-1.587-3.286-3.227-.439-2.52 1.49-4.72 3.926-4.72 2.182 0 3.938 1.747 3.978 3.933 3.566 1.774 6.121 5.267 6.573 9.4h6.747v-2.386c0-.6.718-.894 1.13-.467l3.713 3.72a.661.661 0 010 .947l-3.712 3.72c-.413.413-1.131.12-1.131-.48v-2.387z" fill="#E0E0E0"/></svg>