<svg width="32" height="32" viewBox="0 0 32 32" fill="none" xmlns="http://www.w3.org/2000/svg"><path d="M24 4a4 4 0 110 8h-4a4 4 0 01-3.772-2.667h-1.561A2.674 2.674 0 0012 12v.228a4 4 0 010 7.544V20c0 1.467 1.2 2.667 2.667 2.667h1.56A4.004 4.004 0 0120 20h4a4 4 0 110 8h-4a4 4 0 01-3.772-2.667h-1.561A5.332 5.332 0 019.333 20H6.667a4 4 0 110-8h2.666a5.332 5.332 0 015.334-5.333h1.56A4.004 4.004 0 0120 4h4zm0 18.667h-4a1.334 1.334 0 000 2.666h4a1.334 1.334 0 000-2.666zm-13.333-8h-4a1.334 1.334 0 000 2.666h4a1.334 1.334 0 000-2.666zm13.333-8h-4a1.334 1.334 0 000 2.666h4a1.334 1.334 0 000-2.666z" fill="#E0E0E0"/></svg>