<svg width="32" height="32" viewBox="0 0 32 32" fill="none" xmlns="http://www.w3.org/2000/svg"><path d="M14.31 14.461a49.8 49.8 0 001.747 4.804l-.216-.518a50.412 50.412 0 01-1.53-4.286z" fill="#E0E0E0"/><path fill-rule="evenodd" clip-rule="evenodd" d="M0 0h32v32H0V0zm13.95 11.729h-2.614l.144.509c.896 3.158 2.054 6.209 3.415 9.174l.106.233h2.001l.107-.235c1.41-3.117 2.653-6.158 3.415-9.184l.125-.498h-2.502l-.078.299c-.55 2.092-1.185 4.134-2.01 6.19a53.426 53.426 0 01-2.03-6.19l-.078-.298zm-3.596-4.632H5.6v2.072h2.416v13.575H5.582v2.107h4.772V7.097zm13.65 2.072h2.417V7.097h-4.754V24.85h4.771v-2.107h-2.434V9.17z" fill="#E0E0E0"/></svg>