<svg width="32" height="24" viewBox="0 0 32 24" fill="none" xmlns="http://www.w3.org/2000/svg"><path d="M14.803 22.717l7.548-1.291.07-.016-3.881-4.47a638.148 638.148 0 01-3.881-4.492c0-.022 4.007-10.708 4.03-10.746.007-.013 2.735 4.546 6.61 11.051l6.65 11.162L32 24l-12.335-.002-12.336-.001 7.474-1.279v-.001zM0 21.357c0-.006 1.83-3.081 4.065-6.833l4.064-6.821 4.736-3.85C15.47 1.739 17.608.004 17.618 0a.792.792 0 01-.077.186l-5.144 10.681-5.051 10.49-3.673.005c-2.02.003-3.673 0-3.673-.007v.002z" fill="#E0E0E0"/></svg>