<svg width="22" height="31" viewBox="0 0 22 31" fill="none" xmlns="http://www.w3.org/2000/svg"><path d="M15.67 25.666a8.697 8.697 0 01-4.67 4.67 8.697 8.697 0 01-4.67-4.67h3.014A5.994 5.994 0 0011 27.323a5.997 5.997 0 001.657-1.657h3.012zM19 18.74l2.667 3.024v2.57H.333v-2.57L3 18.74V11C3 6.355 6.339 2.403 11 .94c4.661 1.464 8 5.416 8 10.06v7.74zm-.973 2.927l-1.694-1.92V11c0-3.091-2.093-5.907-5.333-7.227-3.24 1.32-5.333 4.134-5.333 7.226v8.747l-1.694 1.92h14.054zm-7.027-8a2.667 2.667 0 110-5.333 2.667 2.667 0 010 5.333z" fill="#E0E0E0"/></svg>