<svg width="32" height="32" viewBox="0 0 32 32" fill="none" xmlns="http://www.w3.org/2000/svg"><mask id="path-1-outside-1" maskUnits="userSpaceOnUse" x="0" y="0" width="32" height="32" fill="#000"><path fill="#fff" d="M0 0h32v32H0z"/><path d="M24.675 24.785c1.06-.457 2.326-.623 3.958-.582-.046-.311-.629-.68-1.056-.951a5.336 5.336 0 01-.352-.234 35.857 35.857 0 00-2.04-1.413c-.224-.14-.545-.255-.855-.367a7.593 7.593 0 01-.553-.215 7.342 7.342 0 00-.626-.209c-.57-.174-1.24-.378-1.455-.685-.555-.734-.942-1.623-1.329-2.51l-.12-.275a46.643 46.643 0 00-.654-1.435 45.06 45.06 0 01-.733-1.62 8.308 8.308 0 01-.247-.63c-.095-.26-.187-.516-.325-.784-1.49-2.93-3.693-5.384-6.366-7.109-.877-.561-1.856-1.081-2.938-1.434-.33-.101-.696-.117-1.065-.134-.315-.014-.634-.028-.934-.095h-.429c-.247-.07-.467-.272-.671-.46a3.432 3.432 0 00-.288-.247c-.632-.436-1.265-.727-2.02-1.039-.265-.125-1.02-.416-1.285-.187-.164.042-.245.104-.286.27-.163.25-.02.624.082.852.202.44.458.762.72 1.091.134.17.27.34.402.53l.194.276c.302.425.625.882.826 1.325.283.621.485 1.278.686 1.932.176.572.35 1.142.58 1.685.183.437.468.935.734 1.33.083.116.191.22.301.325.186.18.377.362.454.61.198.337-.166 1.302-.388 1.888a9.258 9.258 0 00-.122.337c-.531 1.704-.429 4.074.183 5.55l.066.158c.223.542.462 1.124 1.056 1.276.041-.042 0-.02.082-.042.03-.239.055-.476.08-.71.095-.884.185-1.721.491-2.428.146-.365.387-.66.622-.947.126-.155.25-.307.358-.467.13.08.176.259.225.443.028.107.056.214.101.305l.058.142c.25.605.517 1.256.82 1.854.673 1.33 1.428 2.619 2.285 3.783.285.416.694.873 1.06 1.247.057.05.115.093.172.134.11.08.217.159.298.282h.04v.062c-.386-.145-.684-.456-.974-.76-.169-.176-.335-.35-.515-.487-.918-.707-2.02-1.767-2.652-2.785-.2-.437-.41-.863-.624-1.294l-.213-.431v-.042c-.078.106-.09.212-.103.34-.009.072-.017.151-.04.242a7.217 7.217 0 00-.149.902c-.09.747-.174 1.429-.83 1.696-1.04.437-1.816-.707-2.142-1.226-1.04-1.725-1.327-4.636-.592-6.984.057-.181.096-.375.136-.567.074-.362.147-.721.333-.992-.04-.25-.182-.38-.32-.506-.068-.063-.136-.125-.19-.2-.286-.396-.53-.853-.755-1.29-.326-.648-.581-1.393-.828-2.115a53.472 53.472 0 00-.233-.67c-.07-.182-.115-.365-.16-.545a4.114 4.114 0 00-.166-.556c-.193-.427-.513-.853-.81-1.248a18.78 18.78 0 01-.23-.311 8.473 8.473 0 00-.303-.401c-.575-.737-1.44-1.845-.983-2.967.857-2.14 3.856-.52 5.019.229.116.076.24.187.367.3.185.167.378.341.572.427.255.01.51.026.765.042.255.016.51.031.765.041l.248.06c.865.203 1.674.394 2.364.793 3.51 2.1 5.794 4.24 7.896 7.774.285.475.48.976.678 1.486.114.292.229.588.363.883a52.885 52.885 0 001.673 3.617c.074.151.144.308.213.464.18.403.359.807.623 1.137.095.138.308.212.512.282.102.036.202.07.284.112a13 13 0 00.838.391c.447.197.9.396 1.284.649 1.183.748 2.326 1.642 3.367 2.556.21.192.384.426.558.66.147.198.294.395.462.567v.187l-.009.003c-.323.102-.647.205-.97.288-.356.093-.69.13-1.023.165-.336.037-.67.073-1.018.167l-.135.04c-.402.118-.87.256-1.273.293l.041.041c.197.57 1.033 1.06 1.718 1.463.24.14.46.27.628.387a9.768 9.768 0 012.122 2.1c.204.208.409.395.613.603.069.1.114.215.158.329.048.12.094.24.168.336V31c-.179-.065-.301-.195-.423-.324-.073-.077-.146-.154-.23-.216a18.25 18.25 0 01-.577-.424c-.256-.193-.513-.387-.77-.553-.394-.254-.82-.454-1.25-.656-.413-.193-.828-.388-1.218-.633-.45-.291-.878-.623-1.306-.956-.388-.291-.816-.852-1.061-1.268a1.604 1.604 0 01-.138-.308c-.05-.135-.096-.263-.189-.357.03-.296.312-.37.58-.441.09-.024.18-.047.257-.079z"/><path d="M6.985 6.244c.244-.062.49-.104.836-.104.065.066.145.122.227.179.124.086.25.173.324.299.045.065.074.13.104.194.036.08.073.162.14.243 0 .499-.142.831-.428 1.039l-.04.041c-.164-.332-.306-.665-.47-.997a3.692 3.692 0 00-.263-.322c-.145-.163-.29-.327-.39-.53h-.04v-.042z"/></mask><path d="M24.675 24.785c1.06-.457 2.326-.623 3.958-.582-.046-.311-.629-.68-1.056-.951a5.336 5.336 0 01-.352-.234 35.857 35.857 0 00-2.04-1.413c-.224-.14-.545-.255-.855-.367a7.593 7.593 0 01-.553-.215 7.342 7.342 0 00-.626-.209c-.57-.174-1.24-.378-1.455-.685-.555-.734-.942-1.623-1.329-2.51l-.12-.275a46.643 46.643 0 00-.654-1.435 45.06 45.06 0 01-.733-1.62 8.308 8.308 0 01-.247-.63c-.095-.26-.187-.516-.325-.784-1.49-2.93-3.693-5.384-6.366-7.109-.877-.561-1.856-1.081-2.938-1.434-.33-.101-.696-.117-1.065-.134-.315-.014-.634-.028-.934-.095h-.429c-.247-.07-.467-.272-.671-.46a3.432 3.432 0 00-.288-.247c-.632-.436-1.265-.727-2.02-1.039-.265-.125-1.02-.416-1.285-.187-.164.042-.245.104-.286.27-.163.25-.02.624.082.852.202.44.458.762.72 1.091.134.17.27.34.402.53l.194.276c.302.425.625.882.826 1.325.283.621.485 1.278.686 1.932.176.572.35 1.142.58 1.685.183.437.468.935.734 1.33.083.116.191.22.301.325.186.18.377.362.454.61.198.337-.166 1.302-.388 1.888a9.258 9.258 0 00-.122.337c-.531 1.704-.429 4.074.183 5.55l.066.158c.223.542.462 1.124 1.056 1.276.041-.042 0-.02.082-.042.03-.239.055-.476.08-.71.095-.884.185-1.721.491-2.428.146-.365.387-.66.622-.947.126-.155.25-.307.358-.467.13.08.176.259.225.443.028.107.056.214.101.305l.058.142c.25.605.517 1.256.82 1.854.673 1.33 1.428 2.619 2.285 3.783.285.416.694.873 1.06 1.247.057.05.115.093.172.134.11.08.217.159.298.282h.04v.062c-.386-.145-.684-.456-.974-.76-.169-.176-.335-.35-.515-.487-.918-.707-2.02-1.767-2.652-2.785-.2-.437-.41-.863-.624-1.294l-.213-.431v-.042c-.078.106-.09.212-.103.34-.009.072-.017.151-.04.242a7.217 7.217 0 00-.149.902c-.09.747-.174 1.429-.83 1.696-1.04.437-1.816-.707-2.142-1.226-1.04-1.725-1.327-4.636-.592-6.984.057-.181.096-.375.136-.567.074-.362.147-.721.333-.992-.04-.25-.182-.38-.32-.506-.068-.063-.136-.125-.19-.2-.286-.396-.53-.853-.755-1.29-.326-.648-.581-1.393-.828-2.115a53.472 53.472 0 00-.233-.67c-.07-.182-.115-.365-.16-.545a4.114 4.114 0 00-.166-.556c-.193-.427-.513-.853-.81-1.248a18.78 18.78 0 01-.23-.311 8.473 8.473 0 00-.303-.401c-.575-.737-1.44-1.845-.983-2.967.857-2.14 3.856-.52 5.019.229.116.076.24.187.367.3.185.167.378.341.572.427.255.01.51.026.765.042.255.016.51.031.765.041l.248.06c.865.203 1.674.394 2.364.793 3.51 2.1 5.794 4.24 7.896 7.774.285.475.48.976.678 1.486.114.292.229.588.363.883a52.885 52.885 0 001.673 3.617c.074.151.144.308.213.464.18.403.359.807.623 1.137.095.138.308.212.512.282.102.036.202.07.284.112a13 13 0 00.838.391c.447.197.9.396 1.284.649 1.183.748 2.326 1.642 3.367 2.556.21.192.384.426.558.66.147.198.294.395.462.567v.187l-.009.003c-.323.102-.647.205-.97.288-.356.093-.69.13-1.023.165-.336.037-.67.073-1.018.167l-.135.04c-.402.118-.87.256-1.273.293l.041.041c.197.57 1.033 1.06 1.718 1.463.24.14.46.27.628.387a9.768 9.768 0 012.122 2.1c.204.208.409.395.613.603.069.1.114.215.158.329.048.12.094.24.168.336V31c-.179-.065-.301-.195-.423-.324-.073-.077-.146-.154-.23-.216a18.25 18.25 0 01-.577-.424c-.256-.193-.513-.387-.77-.553-.394-.254-.82-.454-1.25-.656-.413-.193-.828-.388-1.218-.633-.45-.291-.878-.623-1.306-.956-.388-.291-.816-.852-1.061-1.268a1.604 1.604 0 01-.138-.308c-.05-.135-.096-.263-.189-.357.03-.296.312-.37.58-.441.09-.024.18-.047.257-.079z" fill="#E0E0E0"/><path d="M6.985 6.244c.244-.062.49-.104.836-.104.065.066.145.122.227.179.124.086.25.173.324.299.045.065.074.13.104.194.036.08.073.162.14.243 0 .499-.142.831-.428 1.039l-.04.041c-.164-.332-.306-.665-.47-.997a3.692 3.692 0 00-.263-.322c-.145-.163-.29-.327-.39-.53h-.04v-.042z" fill="#E0E0E0"/><path d="M24.675 24.785c1.06-.457 2.326-.623 3.958-.582-.046-.311-.629-.68-1.056-.951a5.336 5.336 0 01-.352-.234 35.857 35.857 0 00-2.04-1.413c-.224-.14-.545-.255-.855-.367a7.593 7.593 0 01-.553-.215 7.342 7.342 0 00-.626-.209c-.57-.174-1.24-.378-1.455-.685-.555-.734-.942-1.623-1.329-2.51l-.12-.275a46.643 46.643 0 00-.654-1.435 45.06 45.06 0 01-.733-1.62 8.308 8.308 0 01-.247-.63c-.095-.26-.187-.516-.325-.784-1.49-2.93-3.693-5.384-6.366-7.109-.877-.561-1.856-1.081-2.938-1.434-.33-.101-.696-.117-1.065-.134-.315-.014-.634-.028-.934-.095h-.429c-.247-.07-.467-.272-.671-.46a3.432 3.432 0 00-.288-.247c-.632-.436-1.265-.727-2.02-1.039-.265-.125-1.02-.416-1.285-.187-.164.042-.245.104-.286.27-.163.25-.02.624.082.852.202.44.458.762.72 1.091.134.17.27.34.402.53l.194.276c.302.425.625.882.826 1.325.283.621.485 1.278.686 1.932.176.572.35 1.142.58 1.685.183.437.468.935.734 1.33.083.116.191.22.301.325.186.18.377.362.454.61.198.337-.166 1.302-.388 1.888a9.258 9.258 0 00-.122.337c-.531 1.704-.429 4.074.183 5.55l.066.158c.223.542.462 1.124 1.056 1.276.041-.042 0-.02.082-.042.03-.239.055-.476.08-.71.095-.884.185-1.721.491-2.428.146-.365.387-.66.622-.947.126-.155.25-.307.358-.467.13.08.176.259.225.443.028.107.056.214.101.305l.058.142c.25.605.517 1.256.82 1.854.673 1.33 1.428 2.619 2.285 3.783.285.416.694.873 1.06 1.247.057.05.115.093.172.134.11.08.217.159.298.282h.04v.062c-.386-.145-.684-.456-.974-.76-.169-.176-.335-.35-.515-.487-.918-.707-2.02-1.767-2.652-2.785-.2-.437-.41-.863-.624-1.294l-.213-.431v-.042c-.078.106-.09.212-.103.34-.009.072-.017.151-.04.242a7.217 7.217 0 00-.149.902c-.09.747-.174 1.429-.83 1.696-1.04.437-1.816-.707-2.142-1.226-1.04-1.725-1.327-4.636-.592-6.984.057-.181.096-.375.136-.567.074-.362.147-.721.333-.992-.04-.25-.182-.38-.32-.506-.068-.063-.136-.125-.19-.2-.286-.396-.53-.853-.755-1.29-.326-.648-.581-1.393-.828-2.115a53.472 53.472 0 00-.233-.67c-.07-.182-.115-.365-.16-.545a4.114 4.114 0 00-.166-.556c-.193-.427-.513-.853-.81-1.248a18.78 18.78 0 01-.23-.311 8.473 8.473 0 00-.303-.401c-.575-.737-1.44-1.845-.983-2.967.857-2.14 3.856-.52 5.019.229.116.076.24.187.367.3.185.167.378.341.572.427.255.01.51.026.765.042.255.016.51.031.765.041l.248.06c.865.203 1.674.394 2.364.793 3.51 2.1 5.794 4.24 7.896 7.774.285.475.48.976.678 1.486.114.292.229.588.363.883a52.885 52.885 0 001.673 3.617c.074.151.144.308.213.464.18.403.359.807.623 1.137.095.138.308.212.512.282.102.036.202.07.284.112a13 13 0 00.838.391c.447.197.9.396 1.284.649 1.183.748 2.326 1.642 3.367 2.556.21.192.384.426.558.66.147.198.294.395.462.567v.187l-.009.003c-.323.102-.647.205-.97.288-.356.093-.69.13-1.023.165-.336.037-.67.073-1.018.167l-.135.04c-.402.118-.87.256-1.273.293l.041.041c.197.57 1.033 1.06 1.718 1.463.24.14.46.27.628.387a9.768 9.768 0 012.122 2.1c.204.208.409.395.613.603.069.1.114.215.158.329.048.12.094.24.168.336V31c-.179-.065-.301-.195-.423-.324-.073-.077-.146-.154-.23-.216a18.25 18.25 0 01-.577-.424c-.256-.193-.513-.387-.77-.553-.394-.254-.82-.454-1.25-.656-.413-.193-.828-.388-1.218-.633-.45-.291-.878-.623-1.306-.956-.388-.291-.816-.852-1.061-1.268a1.604 1.604 0 01-.138-.308c-.05-.135-.096-.263-.189-.357.03-.296.312-.37.58-.441.09-.024.18-.047.257-.079z" stroke="#E0E0E0" stroke-linecap="round" stroke-linejoin="round" mask="url(#path-1-outside-1)"/><path d="M6.985 6.244c.244-.062.49-.104.836-.104.065.066.145.122.227.179.124.086.25.173.324.299.045.065.074.13.104.194.036.08.073.162.14.243 0 .499-.142.831-.428 1.039l-.04.041c-.164-.332-.306-.665-.47-.997a3.692 3.692 0 00-.263-.322c-.145-.163-.29-.327-.39-.53h-.04v-.042z" stroke="#E0E0E0" stroke-linecap="round" stroke-linejoin="round" mask="url(#path-1-outside-1)"/></svg>