<svg width="32" height="32" viewBox="0 0 32 32" fill="none" xmlns="http://www.w3.org/2000/svg"><path fill="#E0E0E0" d="M0 0h32v32H0z"/><path fill-rule="evenodd" clip-rule="evenodd" d="M13.448 9h2.472l-.58 2.951h2.195c1.387 0 2.346.244 2.876.707.53.464.68 1.22.48 2.269l-1.035 5.146h-2.523l.984-4.902c.1-.561.075-.927-.126-1.147-.202-.195-.606-.292-1.237-.292h-1.967L13.7 20.073h-2.473L13.447 9zm-6.535 4.682c.96 0 1.59.17 1.893.512.328.341.378.927.227 1.732-.177.853-.505 1.463-.984 1.829-.48.366-1.236.561-2.246.561H4.29l.933-4.634h1.69zm-6.08 9.317h2.498l.58-2.951h2.145c.933 0 1.715-.098 2.32-.293a4.729 4.729 0 001.666-.951c.429-.366.757-.78 1.009-1.22.252-.439.454-.95.555-1.488.252-1.317.076-2.341-.605-3.073-.656-.731-1.716-1.097-3.154-1.097H3.053L.833 22.999zm27.424-8.805c-.303-.341-.934-.512-1.892-.512h-1.69l-.934 4.634h1.514c1.009 0 1.766-.195 2.245-.561.48-.366.807-.976.984-1.83.151-.804.1-1.39-.227-1.73zM22.782 23h-2.497l2.22-11.073h4.793c1.438 0 2.498.366 3.154 1.097.68.732.857 1.756.605 3.073a4.808 4.808 0 01-.555 1.488 4.6 4.6 0 01-1.009 1.22 4.735 4.735 0 01-1.665.951c-.606.195-1.388.293-2.321.293h-2.145L22.782 23z" fill="#121212"/></svg>