<svg width="32" height="32" viewBox="0 0 32 32" fill="none" xmlns="http://www.w3.org/2000/svg"><path d="M29.905 10.363l-5.632 2.628-3.645-3.645v-2.19l3.645-3.645 5.632 2.628a1.178 1.178 0 001.564-.563 1.178 1.178 0 00-.563-1.564l-6.132-2.863a1.554 1.554 0 00-1.768.313l-2.722 2.722a1.525 1.525 0 00-1.22-.626c-.86 0-1.564.704-1.564 1.564v1.565h-4.975c-.657-1.815-2.378-3.129-4.412-3.129A4.687 4.687 0 003.42 8.251c0 1.721.939 3.207 2.315 4.036L9.803 25.46h-1.69a3.138 3.138 0 00-3.128 3.129v1.564H25.32v-1.564a3.138 3.138 0 00-3.128-3.129h-2.535l-7.774-14.44c.266-.375.485-.766.642-1.204H17.5v1.564c0 .86.703 1.564 1.564 1.564.5 0 .939-.25 1.22-.626l2.722 2.723c.47.469 1.173.594 1.768.312l6.132-2.862c.595-.282.845-.97.563-1.565a1.178 1.178 0 00-1.564-.563zM8.113 9.816a1.57 1.57 0 01-1.564-1.565c0-.86.704-1.564 1.564-1.564.86 0 1.565.704 1.565 1.564a1.57 1.57 0 01-1.565 1.565zm7.994 15.643h-3.035L9.224 12.944h.156l6.727 12.515z" fill="#E0E0E0"/></svg>