<svg width="32" height="32" viewBox="0 0 32 32" fill="none" xmlns="http://www.w3.org/2000/svg"><path d="M26.507 24.628c.64-1.027 1-2.227.92-3.547-.174-2.867-2.454-5.293-5.294-5.6a6 6 0 00-6.693 5.96c0 3.32 2.68 6 5.987 6a5.912 5.912 0 003.186-.933l3.214 3.213c.52.52 1.373.52 1.893 0s.52-1.373 0-1.893l-3.213-3.2zm-5.067.146a3.335 3.335 0 113.333-3.333 3.335 3.335 0 01-3.333 3.333zm-.48-11.333a7.85 7.85 0 00-2.8.6l-.733-1.107-4.107 6.68c-.48.774-1.56.854-2.147.174l-2.826-3.294-4.08 6.534a1.343 1.343 0 01-1.92.373A1.338 1.338 0 012 21.614l5.04-8.066a1.34 1.34 0 012.147-.16L12 16.668l4.24-6.894c.507-.826 1.707-.853 2.24-.04l2.48 3.707zm3.453.667a7.897 7.897 0 00-2.733-.654l6.053-9.586a1.327 1.327 0 011.907-.36c.573.413.72 1.2.347 1.786l-5.574 8.814z" fill="#E0E0E0"/></svg>