<svg width="32" height="28" viewBox="0 0 32 28" fill="none" xmlns="http://www.w3.org/2000/svg"><path d="M16 16.678c1.548 0 2.803-1.227 2.803-2.74 0-1.514-1.255-2.74-2.803-2.74s-2.803 1.226-2.803 2.74c0 1.513 1.255 2.74 2.803 2.74z" fill="#E0E0E0"/><path fill-rule="evenodd" clip-rule="evenodd" d="M19.066 13.938c0 1.666-1.38 3.004-3.066 3.004s-3.066-1.338-3.066-3.005c0-1.666 1.38-3.004 3.066-3.004s3.066 1.338 3.066 3.005zm-.263 0c0 1.513-1.255 2.74-2.803 2.74s-2.803-1.227-2.803-2.74c0-1.514 1.255-2.74 2.803-2.74s2.803 1.226 2.803 2.74z" fill="#E0E0E0"/><path d="M26.131 9.178c-.344-.096-.688-.192-1.033-.337.05-.24.099-.432.148-.673.787-3.702.246-6.586-1.426-7.548-1.623-.913-4.23-.048-7.033 2.356-.246.24-.541.48-.787.721-.197-.144-.344-.336-.541-.48C12.557.716 9.705-.246 8.033.667c-1.623.914-2.164 3.558-1.426 7.116.049.336.147.673.245 1.01-.393.095-.786.24-1.18.336-3.344 1.202-5.41 2.98-5.41 4.808 0 1.875 2.213 3.798 5.754 5 .295.096.541.192.836.24-.098.385-.196.721-.245 1.106-.689 3.461-.099 6.106 1.475 7.02.443.24.934.384 1.525.384 1.623 0 3.688-.962 5.754-2.74.196-.193.442-.385.639-.578.295.289.59.53.836.77 2.017 1.682 3.934 2.596 5.46 2.596.54 0 1.032-.096 1.474-.385 1.673-.961 2.263-3.75 1.525-7.356a4.94 4.94 0 00-.197-.817c.197-.048.394-.096.59-.192 3.787-1.25 6.05-3.125 6.05-5.048 0-1.827-2.115-3.606-5.607-4.76zm-2.95-7.404c.885.529 1.524 2.644.786 6.154-.049.192-.098.385-.147.625-1.328-.289-2.705-.529-4.23-.625-.885-1.202-1.77-2.308-2.656-3.27.246-.24.492-.432.738-.672 2.558-2.212 4.672-2.693 5.508-2.212zm-2.804 14.664c-.492.817-.984 1.634-1.524 2.355-.886.097-1.87.145-2.853.145-.984 0-1.918-.048-2.852-.096-.541-.77-1.033-1.587-1.525-2.404a24.402 24.402 0 01-1.328-2.5c.393-.818.836-1.683 1.328-2.5.492-.818.984-1.635 1.525-2.356A56.52 56.52 0 0116 8.986c.984 0 1.918.048 2.852.096a38.758 38.758 0 011.525 2.356c.492.817.934 1.682 1.377 2.451a31.537 31.537 0 01-1.377 2.549zm2.066-.962a27.76 27.76 0 011.082 2.692c-.935.193-1.918.385-2.951.481.344-.48.64-1.01.983-1.538.345-.53.64-1.106.886-1.635zm-6.394 6.971a21.404 21.404 0 01-1.869-2.211c.59 0 1.23.048 1.82.048.64 0 1.279 0 1.918-.048-.64.769-1.23 1.538-1.869 2.211zm-4.623-3.75a24.554 24.554 0 01-2.901-.432c.295-.866.639-1.78 1.032-2.693l.886 1.587c.344.48.639 1.01.983 1.538zm-1.869-6.25c-.393-.913-.737-1.779-.983-2.644.885-.192 1.869-.337 2.852-.48-.344.48-.64 1.009-.983 1.538l-.886 1.586zM16 5.572c.64.673 1.23 1.394 1.869 2.212-.64-.048-1.23-.048-1.869-.048-.64 0-1.23 0-1.869.048.64-.818 1.23-1.539 1.869-2.212zm5.557 5.24a16.53 16.53 0 00-.983-1.538c.983.144 1.967.289 2.852.48-.295.866-.59 1.732-1.033 2.645-.245-.48-.54-1.01-.836-1.586zM7.984 7.544c-.64-3.269-.05-5.288.786-5.72.886-.53 3.099 0 5.853 2.403.148.144.295.288.492.433-.935.961-1.82 2.067-2.656 3.22-1.475.145-2.902.337-4.18.626a3.602 3.602 0 01-.295-.962zM6.459 17.688c-3.344-1.106-4.869-2.693-4.869-3.75 0-.962 1.426-2.452 4.574-3.51.344-.096.688-.24 1.082-.337.393 1.25.934 2.549 1.524 3.895a31.166 31.166 0 00-1.573 3.942c-.246-.096-.492-.144-.738-.24zm8.066 6.25c-2.656 2.26-4.82 2.74-5.755 2.26-.885-.481-1.475-2.404-.836-5.626a7.54 7.54 0 01.246-1.01c1.279.29 2.705.481 4.23.578.885 1.201 1.77 2.307 2.705 3.269a5.636 5.636 0 00-.59.529zm9.54-3.75c.69 3.365 0 5.48-.885 5.961-.885.481-2.852.048-5.41-2.115-.245-.192-.491-.433-.786-.673.885-.962 1.77-2.067 2.655-3.27 1.525-.144 2.951-.336 4.279-.625l.148.722zm1.28-2.5a8.301 8.301 0 01-.542.144 33.784 33.784 0 00-1.573-3.894 29.532 29.532 0 001.524-3.847c.344.097.64.193.934.289 3.246 1.106 4.673 2.596 4.673 3.558.049 1.01-1.525 2.644-5.017 3.75z" fill="#E0E0E0"/><path fill-rule="evenodd" clip-rule="evenodd" d="M26.213 8.927c1.766.583 3.2 1.33 4.2 2.176.996.844 1.587 1.813 1.587 2.835 0 1.072-.63 2.089-1.7 2.98-1.07.89-2.609 1.683-4.514 2.313-.12.058-.241.1-.356.134.053.195.088.38.123.581.373 1.825.414 3.46.14 4.773-.273 1.309-.866 2.326-1.786 2.858-.497.322-1.042.423-1.612.423-1.616 0-3.594-.96-5.626-2.657l-.008-.007-.008-.007c-.113-.11-.237-.221-.373-.343l-.018-.015a20.289 20.289 0 01-.264-.24l-.143.125-.003.003a7.205 7.205 0 00-.309.278l-.006.006-.006.005c-2.086 1.797-4.21 2.804-5.924 2.804a3.38 3.38 0 01-1.65-.416l-.006-.004c-.874-.507-1.444-1.476-1.712-2.727-.267-1.251-.239-2.813.109-4.564.04-.305.109-.584.181-.863a7.225 7.225 0 01-.43-.134 16.3 16.3 0 00-.163-.055l-.003-.001C4.14 18.58 2.669 17.784 1.64 16.89.615 16 0 14.983 0 13.938c0-1.02.576-1.987 1.54-2.838.967-.851 2.352-1.611 4.044-2.219l.013-.005.013-.003c.189-.046.378-.104.576-.164l.004-.001c.11-.034.222-.068.335-.1a6.25 6.25 0 01-.177-.778c-.372-1.798-.425-3.384-.17-4.648.254-1.266.826-2.237 1.727-2.744l.003-.002c.926-.506 2.141-.475 3.461-.024 1.323.452 2.787 1.335 4.253 2.597.11.082.204.174.285.253l.005.005.08.077c.074-.07.15-.137.225-.203l.003-.003c.136-.12.267-.237.384-.352l.006-.006.007-.005c1.418-1.216 2.8-2.055 4.046-2.472 1.245-.416 2.386-.42 3.285.087h.002c.928.534 1.509 1.582 1.763 2.927.254 1.349.188 3.032-.21 4.906-.026.122-.05.233-.075.34l-.026.114c.26.096.524.17.8.246l.01.004zm-1.115-.086c.345.145.689.24 1.033.337 3.492 1.154 5.607 2.933 5.607 4.76 0 1.923-2.263 3.798-6.05 5.048a2.054 2.054 0 01-.335.126c-.085.025-.17.045-.255.066.03.088.056.171.078.253.05.186.085.364.12.564.737 3.606.147 6.395-1.526 7.356-.442.289-.934.385-1.475.385-1.525 0-3.443-.914-5.459-2.596-.117-.115-.246-.23-.38-.35a12.03 12.03 0 01-.456-.42 6.555 6.555 0 01-.32.289 7.43 7.43 0 00-.32.288c-2.065 1.78-4.13 2.74-5.753 2.74-.59 0-1.082-.143-1.525-.384-1.574-.913-2.164-3.558-1.475-7.02.038-.296.105-.564.179-.848l.017-.066.05-.19a2.688 2.688 0 01-.257-.056 6.044 6.044 0 01-.404-.127 15.2 15.2 0 00-.176-.058c-3.54-1.202-5.754-3.125-5.754-5 0-1.827 2.066-3.606 5.41-4.808.197-.048.394-.108.59-.168a14.357 14.357 0 01.59-.169L6.78 8.54a5.961 5.961 0 01-.172-.755C5.869 4.226 6.41 1.582 8.033.668c1.672-.913 4.524.048 7.426 2.548.098.072.184.157.27.24.087.085.173.169.271.241.123-.12.258-.24.393-.36.136-.12.27-.24.394-.361C19.59.572 22.197-.294 23.82.62c1.672.962 2.213 3.846 1.426 7.548-.025.12-.05.229-.074.337-.024.108-.049.216-.074.336zM10.443 17.16l-.886-1.587-.13.306a37.29 37.29 0 00-.902 2.387l.258.054a24.557 24.557 0 002.643.378 19.24 19.24 0 01-.18-.282l-.2-.325c-.198-.321-.391-.635-.603-.931zm.472 1.22a171 171 0 01-.1-.163c-.194-.314-.377-.612-.585-.903l-.009-.012-.63-1.13c-.265.641-.505 1.28-.72 1.896a24.33 24.33 0 002.044.313zm-.472-7.518c.132-.204.257-.407.38-.607.133-.216.264-.429.4-.635.066-.1.134-.2.203-.297l-.356.053c-.77.113-1.531.23-2.239.374-.086.017-.172.035-.257.054.024.085.049.17.075.254.209.684.476 1.371.778 2.085l.13.305.886-1.586zm-.854.99l.63-1.128.004-.007c.124-.19.246-.389.369-.588.094-.153.189-.307.285-.458-.68.102-1.347.207-1.97.333.186.604.419 1.214.682 1.847zm12.202-1.16c.146.287.292.561.434.826l.02.036.134.252a23.3 23.3 0 00.702-1.852 39.633 39.633 0 00-1.946-.33c.23.344.45.702.651 1.06l.005.009zm-1.009-1.12l-.208-.297.359.053a41.898 41.898 0 012.494.428l-.087.251a22.356 22.356 0 01-.806 2.094c-.045.099-.092.199-.14.3l-.152-.293-.229-.43a57.533 57.533 0 01-.456-.864 15.955 15.955 0 00-.774-1.241zM8.243 7.506c.035.24.098.456.193.695 1.203-.258 2.523-.436 3.88-.572.76-1.043 1.564-2.049 2.41-2.944a6.656 6.656 0 01-.28-.263c-1.358-1.184-2.57-1.896-3.54-2.248-.987-.36-1.663-.326-2.002-.124l-.007.004-.007.004c-.304.157-.64.661-.808 1.609-.165.927-.156 2.215.159 3.826l.002.013zm6.38-3.28c.091.09.182.18.285.268.064.056.132.11.207.166a20.63 20.63 0 00-.184.191c-.867.916-1.69 1.952-2.472 3.03-1.475.144-2.902.336-4.18.625a3.602 3.602 0 01-.295-.962c-.64-3.269-.05-5.288.786-5.72.886-.53 3.099 0 5.853 2.403zM6.554 17.442c.11.044.223.077.347.113l.005.002.123.036a31.818 31.818 0 011.453-3.61c-.535-1.224-1.03-2.415-1.409-3.57-.102.03-.202.064-.303.098l-.077.026c-.148.05-.3.102-.452.145-1.55.52-2.66 1.143-3.377 1.741-.731.61-1.012 1.155-1.012 1.516 0 .41.307 1.003 1.086 1.653.767.64 1.953 1.3 3.603 1.846l.013.004zm-.39-7.013c-3.148 1.058-4.574 2.548-4.574 3.51 0 1.057 1.525 2.644 4.869 3.75a4.4 4.4 0 00.369.12l.12.035c.083.026.166.053.249.085l.08-.252a31.72 31.72 0 011.493-3.69c-.59-1.347-1.13-2.645-1.524-3.895a7.548 7.548 0 00-.638.195c-.15.051-.297.101-.444.142zm1.77 10.144c-.639 3.222-.049 5.145.836 5.625.935.481 3.099 0 5.755-2.26.128-.125.256-.25.384-.362.069-.06.137-.116.206-.166a21.014 21.014 0 01-.184-.192c-.867-.916-1.694-1.954-2.521-3.077-1.525-.097-2.951-.289-4.23-.577a7.54 7.54 0 00-.246 1.01zm.43-.699a5.782 5.782 0 00-.17.738l-.002.013c-.315 1.588-.324 2.838-.154 3.74.172.91.516 1.414.854 1.6.374.19 1.063.214 2.025-.119.95-.328 2.125-.993 3.431-2.103l.002-.001a9.77 9.77 0 01.377-.356c-.847-.897-1.653-1.906-2.455-2.99a27.664 27.664 0 01-3.908-.522zm9.575 3.959c1.262 1.067 2.365 1.696 3.249 2.001.893.309 1.52.273 1.868.084.337-.184.708-.733.9-1.718.188-.967.192-2.301-.147-3.958l-.095-.461c-1.232.254-2.544.43-3.934.563a40.038 40.038 0 01-2.418 2.993l.186.163.02.018c.13.115.248.218.363.308l.008.007zm-.754-.302c.066.057.13.113.191.168.136.12.265.235.394.336 2.558 2.163 4.525 2.596 5.41 2.115.886-.48 1.574-2.596.886-5.961l-.148-.721-.257.054c-1.254.258-2.595.435-4.022.57a40.092 40.092 0 01-2.655 3.27c.07.057.136.113.201.17zm8.079-6.094h.002c1.723-.546 2.958-1.218 3.75-1.865.395-.323.675-.636.85-.918.178-.283.242-.521.233-.703l-.001-.012c0-.36-.279-.905-1.023-1.521-.73-.605-1.867-1.24-3.469-1.786a24.105 24.105 0 00-.68-.215 29.89 29.89 0 01-1.406 3.522 34.412 34.412 0 011.455 3.58 4.77 4.77 0 00.288-.082zm-.46.396a33.784 33.784 0 00-1.574-3.894 29.532 29.532 0 001.524-3.847c.344.097.64.193.934.289 3.246 1.106 4.673 2.596 4.673 3.558.049 1.01-1.525 2.644-5.017 3.75-.147.048-.344.096-.54.144zm-1.756-15.83c-.317-.18-.96-.211-1.89.117-.913.323-2.051.975-3.309 2.062a9.712 9.712 0 01-.371.338l-.002.002-.172.152a40.05 40.05 0 012.424 3c1.397.095 2.67.309 3.892.567.03-.133.061-.254.092-.372.363-1.729.383-3.098.212-4.09-.173-1.005-.533-1.57-.876-1.776zm.92 5.926c.737-3.51.098-5.625-.788-6.154-.836-.48-2.95 0-5.508 2.212-.123.12-.246.228-.369.336a9.36 9.36 0 00-.369.337c.886.961 1.77 2.067 2.656 3.269 1.427.09 2.724.306 3.973.57l.257.055.036-.168c.037-.166.074-.312.111-.457zM18.71 18.543c.505-.686.97-1.458 1.442-2.242a31.1 31.1 0 001.304-2.401 61.8 61.8 0 01-.487-.88 40.174 40.174 0 00-.817-1.445 39.088 39.088 0 00-1.441-2.236c-.893-.046-1.78-.09-2.712-.09-.886 0-1.819.044-2.716.09-.503.684-.966 1.453-1.437 2.236a29.89 29.89 0 00-1.262 2.366c.376.812.796 1.585 1.262 2.36.47.781.935 1.554 1.442 2.283.892.046 1.78.09 2.711.09.934 0 1.866-.044 2.711-.131zm.142.25c.54-.72 1.032-1.538 1.524-2.355.492-.818.934-1.635 1.377-2.548a53 53 0 01-.549-.987 41.489 41.489 0 00-.828-1.465 39.012 39.012 0 00-1.524-2.356c-.935-.048-1.87-.096-2.853-.096-.934 0-1.918.048-2.852.096-.541.72-1.033 1.538-1.525 2.356a30.718 30.718 0 00-1.328 2.5 24.42 24.42 0 001.328 2.5c.492.817.984 1.634 1.525 2.404.934.048 1.868.096 2.852.096.984 0 1.967-.048 2.852-.145zm3.59-3.317l-.148.31c-.214.439-.46.898-.738 1.325a26.03 26.03 0 00-.38.607c-.136.22-.269.436-.408.646a9.354 9.354 0 01-.195.285c.115-.01.23-.023.345-.036a27.18 27.18 0 002.346-.392l.26-.053a27.506 27.506 0 00-1.082-2.692zm-.009.621c-.194.386-.413.783-.657 1.159-.124.19-.246.388-.369.587-.1.161-.199.323-.3.482.711-.09 1.4-.22 2.07-.355a26.994 26.994 0 00-.744-1.873zm-6.205 6.157c-.06.066-.12.13-.18.193l-.18-.191a21.512 21.512 0 01-1.493-1.755 16.15 16.15 0 01-.196-.265c.109 0 .218.001.33.004.19.005.386.012.58.02.308.012.615.024.91.024.52 0 1.039 0 1.558-.026.12-.006.24-.013.36-.022a50.881 50.881 0 00-.525.64c-.388.478-.768.945-1.164 1.378zm1.105-1.722c-.446.016-.89.016-1.33.016H16c-.3 0-.612-.012-.917-.024h-.003l-.366-.014c.429.554.879 1.066 1.334 1.552.385-.422.753-.875 1.136-1.345l.15-.185zM16 5.572l-.18.192c-.499.54-.972 1.112-1.47 1.74l-.219.28c.119-.01.236-.017.352-.022.508-.026.996-.026 1.517-.026.52 0 1.009 0 1.517.026.116.005.233.013.352.022a70.646 70.646 0 00-.22-.28A29.428 29.428 0 0016 5.572zm0 .385c-.44.477-.861.98-1.3 1.53.433-.016.855-.016 1.296-.016h.008c.44 0 .863 0 1.296.017a27.6 27.6 0 00-1.3-1.53z" fill="#E0E0E0"/></svg>