<svg width="32" height="32" viewBox="0 0 32 32" fill="none" xmlns="http://www.w3.org/2000/svg"><g clip-path="url(#clip0)" fill="#E0E0E0"><path d="M22.315 22.22a2.28 2.28 0 002.037-2.363 2.288 2.288 0 00-2.281-2.199h-.082a2.279 2.279 0 00-2.2 2.362c.042.611.286 1.14.653 1.507-1.385 2.73-3.503 4.725-6.68 6.395-2.159 1.14-4.399 1.547-6.639 1.262-1.833-.244-3.258-1.059-4.154-2.403-1.303-1.995-1.426-4.154-.326-6.313.774-1.547 1.996-2.688 2.77-3.258a21.972 21.972 0 01-.53-2.077c-5.906 4.276-5.295 10.06-3.503 12.789 1.345 2.036 4.073 3.299 7.087 3.299.815 0 1.63-.082 2.444-.285 5.213-1.019 9.164-4.114 11.404-8.716z"/><path d="M29.483 17.17c-3.095-3.625-7.657-5.621-12.87-5.621h-.652a2.238 2.238 0 00-1.995-1.222h-.082a2.279 2.279 0 00-2.2 2.362 2.288 2.288 0 002.282 2.2h.081a2.294 2.294 0 001.996-1.385h.733c3.095 0 6.028.896 8.675 2.647 2.037 1.344 3.503 3.096 4.317 5.214.693 1.71.652 3.38-.081 4.806-1.14 2.158-3.055 3.34-5.58 3.34-1.629 0-3.177-.49-3.991-.856a24.067 24.067 0 01-1.833 1.466c1.751.815 3.543 1.263 5.254 1.263 3.91 0 6.802-2.159 7.901-4.317 1.182-2.363 1.1-6.435-1.955-9.897z"/><path d="M8.793 22.912a2.288 2.288 0 002.28 2.2h.082a2.279 2.279 0 002.2-2.363 2.288 2.288 0 00-2.281-2.2h-.082c-.081 0-.203 0-.285.042-1.67-2.77-2.362-5.784-2.118-9.042.163-2.444.978-4.562 2.403-6.313 1.182-1.507 3.462-2.24 5.01-2.281 4.317-.081 6.15 5.295 6.272 7.453.53.123 1.426.408 2.037.611C23.822 4.421 19.749 1 15.839 1c-3.665 0-7.046 2.647-8.39 6.557-1.873 5.214-.652 10.223 1.63 14.174-.204.285-.327.733-.286 1.181z"/></g><defs><clipPath id="clip0"><path fill="#fff" d="M0 0h32v32H0z"/></clipPath></defs></svg>