<svg width="32" height="32" viewBox="0 0 32 32" fill="none" xmlns="http://www.w3.org/2000/svg"><path fill-rule="evenodd" clip-rule="evenodd" d="M0 32V0h32v32H0zm25.82-17.236a3.984 3.984 0 012.002 1.153c.295.315.732.888.767 1.026.01.04-1.381.975-2.225 1.498-.03.02-.152-.112-.29-.315-.41-.6-.842-.858-1.503-.904-.97-.066-1.595.442-1.59 1.29 0 .249.036.396.138.6.213.441.61.706 1.854 1.244 2.29.985 3.27 1.635 3.88 2.56.68 1.031.833 2.677.371 3.9-.508 1.332-1.768 2.236-3.54 2.536-.549.096-1.85.08-2.438-.026-1.285-.229-2.505-.863-3.256-1.696-.295-.325-.869-1.174-.833-1.235.015-.02.147-.101.294-.188.142-.08.68-.39 1.189-.685l.92-.534.192.285c.27.411.859.975 1.214 1.163 1.021.538 2.423.462 3.114-.157.295-.27.416-.55.416-.96 0-.371-.045-.534-.238-.813-.25-.356-.757-.655-2.2-1.28-1.65-.711-2.362-1.153-3.012-1.854a4.22 4.22 0 01-.878-1.6c-.122-.452-.153-1.585-.056-2.042.34-1.595 1.544-2.707 3.28-3.038.565-.106 1.875-.066 2.429.072zM7.077 16.105l-.01 1.31h4.165V29.25h2.946V17.416h4.165v-1.285c0-.71-.015-1.305-.035-1.32-.015-.02-2.55-.03-5.623-.026l-5.592.016-.016 1.305z" fill="#E0E0E0"/></svg>