<svg width="244" height="136" viewBox="0 0 244 136" fill="none" xmlns="http://www.w3.org/2000/svg"><path d="M44.928 47C33.38 47 24 56.41 24 67.995c0 11.584 9.38 20.995 20.928 20.995 11.547 0 20.927-9.411 20.927-20.995C65.855 56.41 56.475 47 44.928 47zm0 39.885c-10.395 0-18.83-8.485-18.83-18.89 0-10.405 8.435-18.89 18.83-18.89 10.394 0 18.83 8.485 18.83 18.89 0 10.405-8.436 18.89-18.83 18.89z" fill="#fff"/><path d="M52.395 54.538a.463.463 0 00-.253-.07.473.473 0 00-.484.486v6.566a.414.414 0 01-.415.416H38.566c-.23 0-.391-.184-.414-.416v-6.566a.529.529 0 00-.07-.255.485.485 0 00-.668-.161c-4.679 2.89-7.514 7.907-7.514 13.457 0 5.549 2.835 10.566 7.56 13.456a.46.46 0 00.254.07.473.473 0 00.484-.486V74.47c0-.232.184-.393.414-.417H51.29c.23 0 .415.185.415.417v6.566c0 .093.023.162.069.255.138.23.438.3.668.161 4.725-2.89 7.56-7.907 7.56-13.456 0-5.55-2.881-10.567-7.606-13.458zm-16.64 21.688l.069.786-.507-.624a13.551 13.551 0 010-16.81l.438-.555.069-.07-.07.81a18.894 18.894 0 00-.092 1.989v12.462c0 .67.047 1.341.093 2.012zm15.903-5.087a.414.414 0 01-.415.416H38.566c-.23 0-.391-.185-.414-.416v-6.29c0-.23.184-.415.414-.415h12.677c.23 0 .415.185.415.416v6.29zm2.858 5.249l-.507.624.069-.786c.069-.647.092-1.318.092-1.989V61.752c0-.671-.023-1.342-.092-1.989l-.023-.347-.023-.37v-.092l.484.624c1.89 2.358 2.927 5.364 2.927 8.393 0 3.03-1.037 6.058-2.927 8.417z" fill="#fff"/><path d="M97.43 67.624c-.115-.046-.253-.092-.253-.23 0-.093.046-.163.138-.209.162-.07 4.149-1.503 4.149-6.22 0-5.248-3.526-8.37-9.473-8.37H77.586V83.44h15.72c4.586 0 9.518-3.26 9.518-8.509 0-5.017-3.78-6.775-5.393-7.306zm-12.584-8.716c0-.116.093-.209.208-.209h5.716c1.89 0 3.18 1.272 3.18 3.168 0 1.48-1.152 3.075-3.318 3.075h-5.578a.207.207 0 01-.207-.208v-5.826zm5.924 18.45h-5.716a.207.207 0 01-.207-.207V71c0-.116.092-.209.207-.209h5.578c2.742 0 4.31 1.18 4.31 3.26 0 2.15-1.452 3.307-4.172 3.307zm60.708-12.485l-1.106-.231c-2.489-.532-4.909-1.203-4.909-3.353 0-2.15 2.005-3.121 3.987-3.121 2.328 0 4.633 1.04 6.384 2.844l4.564-4.532c-1.959-2.174-5.44-4.67-11.063-4.67-6.776 0-11.34 3.86-11.34 9.618 0 6.08 4.771 8.37 8.781 9.225l1.084.232c3.895.832 5.739 1.456 5.739 3.676 0 1.989-1.775 3.306-4.403 3.306-3.088 0-5.831-1.364-7.905-3.93l-4.679 4.601c2.489 2.96 5.785 5.642 12.677 5.642 5.877 0 11.846-3.422 11.846-9.989-.023-6.728-4.586-8.254-9.657-9.318zm60.732-12.278V63.88a.207.207 0 01-.208.208h-9.449a.207.207 0 01-.208-.208V52.595h-7.744V83.44h7.744V71.324c0-.116.092-.208.208-.208h9.449c.115 0 .208.092.208.208V83.44H220V52.595h-7.79zm-33.189 24.533c-3.481 0-7.237-2.914-7.237-9.319 0-5.85 3.526-8.901 7.006-8.901 2.535 0 4.31 1.063 5.716 3.422l5.946-3.954c-3.042-4.486-6.661-6.52-11.708-6.52-9.888 0-14.313 8.023-14.313 15.953 0 9.642 5.854 16.37 14.221 16.37 6.223 0 9.058-2.288 12.031-6.52l-5.993-4.046c-1.336 2.174-2.788 3.515-5.669 3.515zm-58.796-25.319c-8.458 0-14.128 6.497-14.128 16.186 0 9.688 5.67 16.185 14.128 16.185 8.459 0 14.129-6.497 14.129-16.186 0-9.688-5.67-16.185-14.129-16.185zm0 25.319c-4.148 0-6.822-3.584-6.822-9.133 0-5.527 2.674-9.088 6.822-9.088 4.172 0 6.868 3.561 6.868 9.088 0 5.549-2.696 9.133-6.868 9.133z" fill="#F80000"/></svg>