<svg width="244" height="136" viewBox="0 0 244 136" fill="none" xmlns="http://www.w3.org/2000/svg"><path fill-rule="evenodd" clip-rule="evenodd" d="M151.886 56.572l-1.73 6.229 7.417.005.189-.623c1.467-5.404-2.631-6.51-4.282-6.51h-5.811c-2.816 0-6.333.338-7.555 4.699-1.041 3.808-1.651 5.498-.216 7.402.874 1.154 2.999 1.474 5.934 2.087 2.202.492 1.837 1.843 1.47 3.257-.308 1.043-.949 1.658-1.991 1.658-.672 0-1.467-.462-1.162-1.536l.601-2.328-7.543-.005-.613 2.271c-.919 3.01.918 5.956 4.954 5.956h4.16c5.383 0 8.041-1.4 9.576-6.54.548-1.842 1.126-3.987.275-5.496-1.162-2.058-6.033-2.703-7.647-3.132-1.038-.277-.752-1.346-.537-2.394.472-1.716.874-2.151 1.477-2.68l2.465-2.439c.235-.166.626-.149.569.119zM35.942 64.28c2.307.797 5.428 2.704 3.95 7.723-1.589 5.404-5.016 7.132-10.644 7.132H9l18.903-17.818-3.426 12.53h1.836c1.346 0 2.202-.861 2.57-1.966L35 50.017c4.405 0 9.286.507 8.32 6.878-.81 5.35-4.364 6.6-7.334 7.161-.191.024-.191.208-.044.224z" fill="#fff"/><path fill-rule="evenodd" clip-rule="evenodd" d="M34.681 50L14.19 69.164 19.541 50h15.14z" fill="#CA3132"/><path fill-rule="evenodd" clip-rule="evenodd" d="M62.216 79.134l6.485-23.46h7.585L69.8 79.135h-7.585zM163.103 62.68l2.932-2.338h-6.849l1.285-4.669h15.597l-1.343 4.67h-4.101l-5.198 18.791h-7.586l3.818-13.818c.279-1.104.622-1.988 1.445-2.636zm45.964-6.108l-6.237 22.562h7.584l4.895-17.81c.978-3.807-.856-5.65-3.549-5.65h-12.969l-6.483 23.46h7.586l4.818-17.567c.534-1.754.932-2.207 1.474-2.708l2.354-2.426c.191-.113.615-.19.527.14zm-80.892 10.062l1.539-.906c.36-.258 1.429-.809 2.837-.842h3.488l-1.286 4.546h-7.77l-.977 3.44c-.246.92.428 1.597 1.161 1.597h6.239l-1.285 4.666h-8.808c-4.038 0-5.689-3.5-4.955-5.955l3.486-12.837c1.102-4.299 4.772-4.668 7.585-4.668h9.176l-1.286 4.668h-6.298c-1.164 0-1.775.799-1.897 1.29l-1.335 4.661c-.103.25-.075.582.386.34zM112.46 56.572l-1.837 6.611 7.605-.012.354-1.293c1.468-5.404-2.935-6.203-4.588-6.203h-5.751c-2.814 0-6.484.369-7.584 4.668L97.172 73.18c-.917 3.01.917 5.955 4.955 5.955h11.684l3.517-12.703h-7.588l-2.231 8.038h-1.589c-.672 0-1.408-.677-1.039-1.658l3.049-11.243c.223-.703.611-2.003 1.473-2.674l2.471-2.427c.132-.148.675-.225.586.104zm-54.937.006L51.27 79.135h7.646s1.143-4.366 2.019-7.306c.795-2.671-2.171-4.176-2.538-4.176-.369 0-.369-.553 0-.553 2.078-.062 4.16-.43 5.474-5.282 1.547-5.707-3.468-6.142-5.322-6.142h-11.5l-6.545 23.46h7.646l4.844-17.56c.378-1.38.937-2.276 1.504-2.691l2.486-2.417c.127-.148.613-.185.538.11zm167.691 10.056l1.539-.906c.359-.258 1.431-.809 2.837-.842h3.487l-1.285 4.546h-7.768l-.98 3.44c-.243.92.429 1.597 1.162 1.597h6.239l-1.285 4.666h-8.808c-4.038 0-5.69-3.5-4.957-5.955l3.488-12.837c1.1-4.299 4.772-4.668 7.586-4.668h9.175l-1.285 4.668h-6.301c-1.161 0-1.774.799-1.894 1.29l-1.335 4.661c-.103.25-.077.582.385.34zM91.386 55.674H80.314L73.77 79.136h10.766c5.382 0 8.074-1.841 8.992-5.28l3.24-11.669c1.47-5.405-3.73-6.511-5.382-6.511zm-.607.893l-4.4 15.685c-.794 2.58-2.75 2.212-3.669 2.212l3.534-12.903c.414-1.324.901-2.207 1.492-2.686l2.457-2.414c.194-.178.734-.194.586.106zm97.576-.892h-4.712c-2.813 0-6.483.369-7.583 4.668l-3.488 12.837c-.918 3.01.918 5.955 4.955 5.955h3.977c5.382 0 8.073-1.841 8.991-5.28l3.242-11.669c1.47-5.405-3.731-6.511-5.382-6.511zm-.668.885L183.1 73.175c-.306 1.043-1.162 1.594-1.837 1.594-.672 0-1.467-.49-1.1-1.474l3.173-11.732c.511-1.69.956-2.24 1.467-2.71l2.354-2.426c.163-.144.592-.113.53.133z" fill="#fff"/></svg>