<svg width="244" height="136" viewBox="0 0 244 136" fill="none" xmlns="http://www.w3.org/2000/svg"><path d="M26 89.818h44.992V45.14H26v44.678zm28.844-41.264a19.895 19.895 0 0113.715 18.915c.02 8.712-5.612 16.168-13.715 18.935v-37.85zm-6.358-1.02a21 21 0 014.239.45c0 10.125-9.87 18.445-20.034 18.445h-4.258c.706-10.38 9.36-18.896 20.053-18.896zM32.691 68.528c10.183 0 20.034 8.32 20.034 18.444-1.276.255-2.885.451-4.239.451-10.713-.02-19.64-8.555-20.053-18.895h4.258zm53.371 2.866v-2.806h9.359v-3.591h-9.36v-5.22h9.968v-3.57H82.235v15.069c0 3.806 1.629 6.416 5.455 6.946.079.02.157.02.216.02h.078c.393.039.785.078 1.217.078h7.083v-3.571h-7.063c-1.217-.04-3.16-.628-3.16-3.355zm12.95-4.769V78.3h3.846V56.187h-3.846v10.438zm14.834-4.827c-4.847 0-8.477 3.316-8.477 8.477v.137c0 5.043 3.513 8.3 8.575 8.3 2.433 0 4.709-.667 6.809-2.865l-2.316-2.236c-1.216 1.216-2.413 1.844-4.375 1.844-2.845 0-4.749-1.648-4.866-4.2h12.577c.059-.627.059-1.333.059-1.333 0-4.533-3.179-8.124-7.986-8.124zm-4.572 6.75c.177-1.942 2.158-3.512 4.552-3.512 2.257 0 4.082 1.59 4.082 3.512h-8.634zm23.35-3.336c1.726 0 3.002.628 4.101 1.747l2.374-2.453c-1.864-1.962-4.081-2.767-6.475-2.767-4.886 0-8.81 3.591-8.81 8.496 0 4.906 3.904 8.516 8.79 8.516 2.394 0 4.611-.804 6.475-2.786l-2.374-2.453c-1.099 1.119-2.374 1.766-4.101 1.766-2.825 0-4.984-2.139-4.984-5.043.02-2.884 2.159-5.023 5.004-5.023zm12.695 6.181v-5.631h3.493v-3.473h-3.473v-6.122h-3.846v15.462c.117 3.59 1.746 6.043 5.454 6.553.079.02.157.04.236.04h.059c.392.039.804.078 1.216.078h.412v-3.57h-.392c-1.217-.02-3.159-.608-3.159-3.336zm10.517-6.71v-2.375h-3.807V78.3h3.807v-8.418c0-2.63 1.687-4.297 4.336-4.297.609 0 1.158.059 1.59.157v-3.689c-.157-.04-.726-.098-1.138-.098-2.296.02-4.023 1.08-4.788 2.728zm15.305-2.865c-4.886 0-8.791 3.689-8.791 8.476 0 4.788 3.885 8.477 8.791 8.477 4.846 0 8.79-3.689 8.79-8.477 0-4.787-3.924-8.476-8.79-8.476zm0 13.5c-2.845 0-4.984-2.198-4.984-5.024 0-2.825 2.139-5.023 4.984-5.023 2.825 0 4.984 2.198 4.984 5.023 0 2.826-2.159 5.023-4.984 5.023zm11.145-9.085V78.28h3.846V56.168h-3.846v10.066zm17.679 5.357c0 2.53-1.492 3.61-3.513 3.61-2.001 0-3.512-1.08-3.512-3.571v-9.34h-3.865v9.654c0 4.572 3.355 6.77 7.338 6.77 4.023 0 7.417-2.218 7.417-6.849V62.31h-3.865v9.28zm18.366 1.589l-2.414-3.355 3.002-4.042 2.551-3.473h-4.179l-3.493 4.787-3.512-4.787h-4.16l2.374 3.237 3.179 4.317-3.336 4.611-2.766 3.846h4.12l4.081-5.651 4.101 5.65H222l-3.669-5.14z" fill="#fff"/></svg>