<svg width="244" height="136" viewBox="0 0 244 136" fill="none" xmlns="http://www.w3.org/2000/svg"><path d="M137.922 72.71v9.549c-5.32 2.655-10.378 3.982-15.432 3.982-13.968 0-22.351-8.224-22.351-18.572 0-11.147 9.579-20.431 21.817-20.431 3.059 0 5.322.528 7.717 1.328 1.731.528 2.794 1.193 3.857 1.193.933 0 1.2-1.593 1.333-2.521h1.331l1.198 12.867h-1.598c-.668-2.519-1.861-4.643-3.462-6.101-2.525-2.52-5.986-3.848-9.976-3.848-8.381 0-13.304 6.635-13.304 16.584 0 9.816 5.987 16.585 13.969 16.585 2.397 0 4.523-.532 7.185-1.726v-9.82c0-3.185-.533-4.378-5.056-4.378v-1.456h16.897V67.4c-4.255 0-4.125 1.326-4.125 5.308zM91.491 57.054v28.524H89.23L60.622 56.125c.133.795.133 1.461.133 2.255v17.912c0 5.568 0 7.561 5.058 7.561v1.457H52.376v-1.457c5.054 0 5.054-2.386 5.054-7.561v-20.43c0-3.052 0-6.369-5.32-6.369v-1.458h12.64l23.549 24.141c-.135-.66-.135-1.06-.135-1.986V57.055c0-5.308.135-7.562-4.923-7.562v-1.458h13.44v1.458c-4.924 0-5.19 2.122-5.19 7.561zM26.431 85.31v-1.457c3.196 0 5.455-.266 5.455-4.91v-24.54c0-4.779-1.73-4.91-5.455-4.91v-1.458h18.894v1.458c-3.858 0-5.456.131-5.456 4.91v24.54c0 4.644 1.996 4.91 5.456 4.91v1.457H26.432z" fill="#064992"/><path d="M151.605 85.45h53.939l2.405-4.06 1.485-8.136-2.844-8.818-3.767-5.425-1.919-.618-1.55.678-.616 2.466-7.428 1.11-3.892-2.897-3.467-8.634-2.1-5.982-.436-2.464-.989-1.174-5.383-.863-3.276 1.602-3.959-1.602-3.464-.123-1.296 2.16-.806 1.54-1.114 2.776-.926 4.007.68 6.413.374 4.749-.251 2.772 1.176 4.564-1.238 3.698-1.917 4.874-1.238.617-1.793-.803-1.917 1.049-2.042.802-1.237 1.849.185 2.835.621 1.038zm56.072-36.49l-1.476-1.297-3.809-.834-.176-1.39 2.605-.742 1.638 1.296 1.476.278.778.092 2.43 3.06-3.466-.462z" fill="#fff"/><path d="M175.984 56.166v-.743h-1.366l-.122.245 1.488.498zm-6.942-.743c-.372-.37-.865 0-1.486-.125 0 .125-.123.496.247.74.497-.37 1.111-.615 1.239-.615zm8.55-7.044s.247 0 0-.124l-2.851-.248c-.371.248-.867.248-.99.62l-.248.123c.248.99.248 2.101.248 3.212.496.124 1.114.495 1.114 1.237.497.247 1.119.369 1.487.74.248-.123.497-.493.62-.863-.62-.618-1.736-.247-1.736-1.359l-.74-.37c0-.746 0-1.485-.249-1.98l.249-.246c0 .247.122.37.369.62.497 0 1.119.121 1.487-.25.248-.123.248-.74.62-.74.125 0 .496 0 .62-.372zm-7.558.249c0-.249-.248-.496-.621-.62h-3.098c0 .371.373.743.744.743 0 .37.374.617.621.74.246.25.497.25.867 0 .367.25.495-.37.619 0 0 .742 0 1.11-.124 1.73-.128.865-.991.74-1.486 1.237-.123.244-.497.988-.123 1.358.37-.248.744-.37 1.237-.617 0-.37.496-.741.99-1.113 0-1.112.374-2.224.374-3.458zm1.115-2.966c-.37-.25-1.115.122-1.489.37-.494.123-.99.492-.99.865h1.487c.246-.373.622-.864.992-1.235zm4.336 1.235c0-.373-.123-.373-.249-.493-.618 0-.618-.992-1.113-.742-.372 0-.62-.25-.866 0-.126.122 0 .122.124.122.742 0 .37.989.866 1.113h1.238zm4.337-.742c.25-.743.375-1.853-.124-2.593-.371-.37-.992-.742-1.611-1.113l-.99.371c-.497.372-.745.742-.745 1.482.869.372 1.861 1.36 2.231 2.222h.371c.373-.369.744 0 .868-.369zM168.3 44.302c-.123-1.236-1.612-1.482-2.353-1.853h-.373c-1.115.247-1.365 1.357-1.488 2.224.373 1.111 1.115.37 1.733 1.111.496-.372 1.861-1.235 2.481-1.482zm-15.241 37.81c-.125 0-.497-.371-.866-.371-.375.74 0 1.36 0 2.222 0 .25-.124.747-.124.747-.251 0-.746-.623-.992-.991v-2.1l1.237-1.484c.745.493.992 1.236.745 1.977zm3.469-1.484c0 .616-.123 1.113-.496 1.484-.123-.492-.494-1.113-1.115-1.113-.495.987-.621 1.357-.125 2.964-.37.25-.744.376-1.116.747-.246-.623-.37-1.487-.37-1.98 0-.865.245-1.73.493-2.472.249-.49.623-1.11.993-1.485l1.365-.12c-.496.12-.496.743-.496 1.114.248.12.867.242.867.86v.001zm4.46.743c0 1.11-1.611 2.592-1.611 2.592 0-.74.249-1.482.373-2.222 0 0-.497-.497-1.116-.497-.371.127-.371.497-.495.868-.372.742-1.116 1.478-1.361 2.227-.122 0-.122-.126-.122-.126 0-1.112.122-3.462.988-4.325.745-.74 1.113-.74 1.857-.866l.746.125-.498.74c.498.248 1.239.74 1.239 1.484zm20.942.37l-.37.371c-.373-.371-.127-1.484-.745-1.608-.618 0-1.117-.617-1.363-.737l.369-.25s.376-.121.621 0c.25.25.496.37.496.74.249.246.622 0 .867.246.125.372.248.868.125 1.238zm4.462-1.853c-.126.37-.249.987-.374 1.483-.369-.743-.619-1.854-1.486-1.854-.123-.495-.247-.864-.744-1.114l-1.114-.123c.123.373.867.493.497 1.237.37.37.865.37 1.114.987.247.371 0 .867.124 1.237l-.868.371c0-.741.247-1.854-.744-2.224-.744.247-.867-.74-1.364-1.115-.246-.12-.246-.74-.618-.37-.618.37-1.488 0-2.109.37l.621-1.11c.494-.37 1.115-.125 1.611-.37l.992-.125c1.117 0 1.983.495 2.976.865.493.37.743.74.743 1.363.369.121.868.121.743.492zm20.068-.12c-.248.367-.361.49-.49.736 0-.617-.746-.987-1.236-2.101l.491-.865c.5.125.874.495.874 1.115 0 .12-.129.494 0 .743 0 .121.361.121.361.371zm-41.878.367l-.373 1.236-.866-2.224c-1.115-1.114-2.229-1.237-2.974-1.609-.372-.246-.372.125-.743 0 0-.37.123-.74.496-1.11h.743l.742.37c.496.37 1.364.37 1.364 1.112 0 .248-.122.37.126.743l1.361.494.124.988zm37.918-1.362c0 .126-.247.374-.247.374-.617-.374-1.113-.617-1.859-.617 0-.372-.247-.992-.495-.992-.867 0-.745.372-1.362.372l1.117-1.112c.119-.246.245-.246.493-.246.37.246.493.37.867.37 0 .246 0 .37-.12.74.246.248.616 0 .863.248.373.123.742.37.742.863h.001zm-14.622.744h-.122c-.25-.37-.37-.744-.621-.744.371-1.48-.371-2.594-.618-3.83l-.125-.367c.492.616 1.486 1.233 1.364 1.976.122 1.11.248 2.1.122 2.965zm-21.314-1.237l-.867.867c-.245-.374 0-1.114-.496-1.484 0-.125.373-.37.251-.495-.251-.246-1.736-.74-1.736-.74-.62-.372-1.117-.743-1.613-1.36-.618-.125-.989.25-1.611.371-.123-.122-.123-.37-.123-.37.374-.373.374-1.11 1.116-1.11.372 0 .868 0 1.238.367.497 0 .746.497 1.113.617.622.742 1.118.866 1.616 1.236-.128.373.122.62.367.743.745 0 .496.74.745 1.358zm40.771-1.976c0 .743 0 .988-.372 1.606l-.864-1.112c.361-.37.361-.989.74-1.48.124 0 .496.861.496.986zm-22.058.864c-.619-.37-1.365-.37-1.736-.989-.37-.123-.867-.123-1.488-.123-.493.123-1.115.123-1.611.123-.123 0 0-.123-.245-.37-.746.37-1.614.37-2.358 1.113l.621-1.483c.494 0 .867-.37 1.238-.37.374-.126.869-.126 1.24-.126v.126c1.489 0 3.098-.126 4.214 1.11l.125.99zm18.59-1.112c0 .496-.124.616-.247 1.236-.996-.124-.867-1.112-1.121-1.236-.496-.739-1.485-.247-2.229-.247-.123-.74.247-.74.247-1.113.377 0 .747-.37 1.119-.12.617-.25.988.367 1.61.367.247.374.497.866.621 1.113zm-36.683-1.852c0 .372-.125 1.975-.125 1.975-.248-.987-.867-1.853-1.607-1.853-.498-.368-.87-.74-.994-1.11-.372-.37-.742-.125-1.238-.37-.497 0-1.117 0-1.735.245v-.246l.868-1.114c.99.247 2.105 0 2.478.741.493.373 1.115.62 1.361.987v.374c.249.126.745.248.992.371zm5.453-.245c-.498.367-.994.367-1.488.245l-.746-1.113c.495.124 1.24.124 1.862 0l.372.868zm21.69.617c0 .616-.873 1.48-1.116 1.976.243-.743.369-1.976 0-1.976-.25-.126-.75.12-.75-.25 0-.368.126-.867.126-1.235 0-.369-.372-.619-.372-.986 0-.744.868-.867 1.117-1.362.248.495.122 1.112.122 1.606.126.373.371 1.11.126 1.732 0 .37.747.123.747.495zm-9.421 0c-.621 0-1.118 0-1.488-.618-.126 0-.371-.373-.621-.125-.494.493-1.237-.374-1.982-.248-.373.373-.87.62-1.363.74l-.125-.12c0-.372.371-.746.745-1.114.866.368 1.488-1.36 2.355-.369.247.123.744.123.991.123.867.246 1.114 1.113 1.488 1.73zm-8.8-.743h-.122c-.251 0-1.12-.374-1.366-.742-.122-.246-.122-.619-.122-.619.368 0 .619-.123.989-.123l.621 1.484zm28.131.743c-.869 0-.37-1.73-2.234-1.73-.493 0-.739.612-1.235.74 0-.127.126-.864.126-.864 0-.373.12-.744.616-1.113.989 0 .743.369 1.487.616.496.124.746.498 1.24.498v1.853zm-13.014-1.36c0 .743-.37 1.48-.497 2.223 0-.863-.244-1.48-.741-1.98 0-.244.371-.368.125-.614 0 0-.744-.373-.744-.867 0-.617.496-.99.744-1.362 0-.12.493.253.493.993 0 .246 0 .496-.121.864-.126.372.741.372.741.742zm6.074-2.473c0 .495-.249.866-.122 1.362-.374-.744-.751-1.489-1.118-2.226-.125 0-.245 0-.245-.123l.364-.247c.248 0 .625 0 .625.247.247.248.496.616.496.987zm7.559.988c-.377-.122-1.236-.249-1.236-.616 0-.499-.252-.619-.867-.619-.624 0-.996.12-1.739.373 0 0-.374-.497-.497-.99.251-.123 1.24-.498 1.736-.498.872 0 1.858 0 1.858.498 0 .37.745.617.745 1.852zm-32.47-2.593c-.121.74-.494.987-1.114 1.85-.493.25-1.239.373-1.983.743.124-.37.496-.493.744-.862.37-.373.746-.99.865-1.487.625-.244.995-.244 1.488-.244zm23.055 1.73c0 .741-.128 1.731-.128 2.59-.37 0-.37-.367-.37-.736-.246-.744-.371-1.484-.616-2.226-.376-1.114-.995-1.975-1.49-3.09-.124-.617-.748-.865-1.24-1.236.618 0 1.24.123 1.735.496 0 .37.122.495.493.866.872 0 .747 1.11 1.488 1.73 0 .12-.244.12-.37.372-.246 0-.371.49-.371.49.371.248.741.372.869.745zm-25.407-2.843c-.375.743-.745 1.484-1.487 1.854-.496 0-1.114.246-1.859 0 .371-.37.745-.498 1.238-.74l1.116-1.114h.992zm7.434 1.854c-.372.246-1.116.37-1.484.37-.995-.493-.995-1.48-1.861-1.852-.126-.126-.249-.372-.249-.495l2.11.369c-.126.37.122.497.368.497l1.116 1.11zm14.621 0c-.12.246-.371.37-.492.37 0 0-.622-.615-.744-1.11-.127-.618.247-1.484.247-1.484.123 0 .247.247.497.247.121.123 0 .495.121.866.251.37.622.74.371 1.11zm-25.525-2.224l-.618 1.854c-.622.616-1.488.37-2.23.37 1.115-.37 1.858-1.482 2.23-2.224.246-.123.369 0 .618 0zm15.366 1.483h-.37c-1.488.37-2.606-.497-3.721-1.236.744-.247 1.364-.247 1.859-.37h.374l.495.739c.371.126.993.497 1.363.867zm24.04-.124c-.862 0-1.733-.373-1.859-.743-.244-.246-.121-.739-.618-.739-.368 0-.618.37-.618.37-.376.123-1.118-.37-1.118 0 0 .619-.617.866-1.117.866-.37 0-.493 0-.867-.127v-1.236c1.737 0 1.613-.616 2.356-.616.495 0 .868.372 1.364.372.618 0 .25-.246.868-.246.624 0 .864.49 1.364.617 0 .37.245.865.245 1.482zm-41.139-2.966c0 .493-.373 1.236-.995 1.854-.12.123-.493.369-.493.369 0-.739.373-1.482.373-2.1.37-.124.742-.372 1.115-.124zm19.332 1.607c-.622 0-1.489 0-1.982-.372-.748-.494-.994-.742-1.366-1.112.499-.372 1.115-.372 1.488-.494.371.493.989 1.484 1.86 1.978zm6.193-.619c0 .37-.246.496-.494.742 0 0-.496-.617-.496-.989 0-.371 0-.742.123-1.112.373.37.867.864.867 1.36zm5.701.248c-1.114-.744-1.856-1.855-2.846-2.964.99 0 1.361.985 2.102 1.109.251.248.499.37.744.741v1.114zm-23.05-3.09c0 .867-.125 1.977-.988 2.347l-.376-1.236c.496-.244.87-.615 1.364-1.11zm-2.726 1.977c-.744-.742-1.367-1.481-1.367-2.221.375 0 .745 0 1.119.37 0 .617.37 1.109.248 1.85zm35.444-.124c-1.117-.494-2.728-.986-3.596-.986-.493 0-1.982.616-2.6 1.232l-.247-1.232c.865-.124.865-.741 1.358-.741.374 0 .87-.126 1.246-.126.367 0 .613-.37.867-.37.493 0 .244.74.74.74.374 0 .497-.244.868-.244.624 0 1.239.985 1.364 1.728zm-29.867.124c-.622-.372-1.735-.494-1.612-1.234.372-.617.743-.743.99-1.113.126.866.249 1.605.622 2.347zm11.402-.742l-.62.248c-1.363 0-2.108-.373-2.728-.987.497 0 1.24-.496 1.24-.496.621.496 1.489 1.11 2.108 1.235zm-24.163-1.235c-.498.496-1.118.867-1.49 1.605 0-.37-.122-.738-.246-1.11.124-.37.496-.74.742-.865.25.126.62.126.994.37zm15.857 1.483c-.494.122-1.362.37-1.733-.248-.745-1.11-.249-2.224.123-3.084.248.739.373 1.479.495 2.22.126.496.867.74 1.115 1.112zm9.791-2.1c-.496.247-1.485.373-2.228-.125l.989-.616c.372.37.869.616 1.239.74zm14.008-.372c-.75 0-.996-.121-1.613-.121-.5 0-1.241.368-1.737.866-.249-.373-.12-.745 0-1.113.37-.373.991-.865 1.611-.865.872 0 1.739.74 1.739 1.233zm-36.561 1.36c-.868-.245-1.734-.988-2.106-1.729-.25-.491-.37-1.113-.37-1.609.493.125.866.496 1.115.745v.12c.493.744 1.237 1.485 1.361 2.472zm1.611-2.101l-.247 1.73c-.497-.742-.868-1.482-.992-2.47l1.239.74zm12.764 1.486c-.746.244-1.24-.373-1.736-.745-.371-.741-.371-1.482-.618-1.978.618.496 1.608.496 1.485 1.61 0 .368.499.74.869 1.113zm2.974-1.486c-.744 0-1.611.372-1.981-.372.245-.12.493-.49.867-.74l1.114 1.112zm19.334-1.237c-.872-.244-1.489-.493-2.235-.493-.37 0-1.486.249-1.608.493-.376-.37.25-1.477.741-1.726.497-.247.867-.123 1.121 0 0 .742.863.372 1.359.616.246.369.5.74.622 1.11zm-16.977-.616c-.249.372-.621 0-.87 0h-1.116c-.124-.368-.247-.494-.371-.738.622-.123.991-.372 1.365-.123.371.367.493.861.992.861zm-10.662-1.975c-.121.742-.372 1.975-1.113 2.347 0-.372-.373-.74-.62-1.11-.122 0 0 .37-.122.37 0 .368-.124.74-.124 1.359-.375.121-.871.37-1.364.121v-.371c-.25-.369-.25-.74-.25-1.11l-.12-.125c-.251.126-.251.494-.251.74-.123.126-.493.495-.493.866-.376 0-.746-.121-1.12-.371v-1.235c0-.244 0-.244-.122-.244l-.623.738c-.489-.494-.614-1.481-.614-2.224 2.103-1.11 4.582-.74 6.196-.12.245.12.493.12.74.37zm9.67-.99c-.743 0-1.118-.37-1.488-1.111 0-.37-.126-.866 0-1.482.123.37.247.741.494.986.497-.245.497.37.62.496.126.371.374.741.374 1.111zm-2.725-6.056c0 .127-.251 1.112-.251 1.112l-.992.374.622-2.843c.245.493.621.988.621 1.357zm-19.704-2.1l-.498.742c.125 1.358-.494 2.226-.494 3.336l-.62-1.978c.123-.616.249-1.11.621-1.728l.991-.371zm19.453 7.786c-1.488-.867-3.224-1.482-5.081-1.607 0 .37 0 .74-.124.866 1.488.741 2.973 1.481 4.213 2.595v1.113c-1.24-1.236-2.725-2.597-4.462-2.967-.124.247-.492.618-.743.992-.868-.622-1.859-1.115-2.971-1.362-.376 0-.497-.497-.497-.867l-.126-.616a1.59 1.59 0 001.242-1.235c.122.123.37.123.616.123.25-.123.25-.372.25-.743 0-.74-1.61-.74-2.354-.74-.868 0-1.489-.126-2.107.371-.248 0-.127.369-.127.617 0 .123.375.372.375.372.369 0 .496-.248.745-.248-.128.741.247 1.234.864 1.483l-.12 1.112c-.374.371-.993.122-1.489.371l-2.231 1.11c-.37-.37-.619-.74-.866-1.11-1.24.37-1.983 1.11-3.221 1.853-.373.248-.993.742-.993.742-.124-.123 0-.494 0-.865 1.114-1.113 2.602-1.483 3.841-2.227v-.986c-.495-.125-.99 0-1.609 0a8.77 8.77 0 00-3.098 1.357c0-.371-.25-.741.122-.986 1.364-.741 2.976-1.236 4.709-1.113v-.493c-.124-.248-.124-.62-.373-.62-.741-.866-1.484-1.85-1.484-2.717l.37-.25c-.247-.739-.37-2.593 0-3.457-.742-.247-1.485-.989-1.732-1.482-.249-.62-.498-.989-.62-1.73.248-.74.62-1.112.988-1.854.249 0 .622-.122.745-.371.619-.123 1.115-.742 1.859-.37.496 0 .992.247 1.362.37 0 .249 0 .371.374.619.737.123.737.866 1.113 1.48.37.126.744.126 1.113.126.746.246 1.24.246 1.616.617.988-.617 2.104-.743 3.217-.617.126-.495.375-.866.497-1.483.251.247.125-.123.373-.123.619-.37 1.238-.99 2.107-.742.618.372 1.485.123 1.859.865.495.371.743 1.113 1.116 1.853-.373.74 0 1.853-.746 2.222l-.744.745c-.246 0-.371.244-.744.244.373.866.125 2.228-.248 3.088.248-.121.621-.121.746-.491.123.123 0 .37 0 .491-.125.25-.125.373-.125.373.125.743-.373 1.358-.867 1.855-.247.739-.868 1.729-1.735 1.852v.372c1.858 0 3.472.37 5.205 1.356v.867zm27.879-8.155c-.373-.37-.743-.742-1.238-.742-.369-.494-.861-1.11-1.365-1.11.375-.125.87-.372 1.489-.372.371.616.741 1.11.868 1.482l.246.742zm-47.581-1.482l-.867.368.125-.738c.246-.372.371-.745.742-1.113v1.483zm43.621-1.235c-.495 0-.864.12-1.37 0-.242-.249-.612 0-.859.12-.252 0-.494-.12-.867-.369.74 0 1.114-.493 1.726-.743.506.372.995.62 1.37.992zM178.46 82.112c0-.492-.373-.741-.868-.741-.371 0-.867.494-.867.742 0 .495-.373 3.335-.373 3.335h.993c.372-1.235 1.115-2.718 1.115-3.335zm-2.849-.126h-.126l-.989-.987h-.126c-.247.245-.373.62-.619.987 0 1.115.372 2.353.619 3.462h1.115c0-1.235.126-2.347.126-3.462zm19.953-1.483l-1.237.125c.37.371.37.866.37 1.113 0 .371-.125.74-.37.989-.376-.249-.376-.618-.625-.99-.248 0-.37.616-.37.868 0 1.235.494 2.102.869 2.84h1.24c-.128-1.11-.371-1.978-.371-3.092 0-.615.371-1.357.494-1.852zm28.004-11.862c0-5.189-1.733-10.748-6.445-15.442-.751-.741-1.732-1.609-2.728-2.225-1.859-1.233-3.588-2.966-4.586-4.819-.619-.743-1.114-1.113-1.86-1.482.127.37.371.74.495 1.111h-.124c-.739 0-1.357-.372-1.86-.742l.503-.493c-.124-.247-.503-.247-.75-.247-2.223-.37-4.083.74-6.066 1.11v.25c1.239.493 1.489 1.977 2.228 2.717h.751c.367 0 .741.372.985.249 0-.249-.244-.62-.244-.743.244-.246.495-.246.741 0 .617.37 1.605-.246 2.099.743-.737 0-1.482.123-2.099.368 0 .125.377.495.248.745-.619-.25-1.363 0-1.73-.62l-.129.247c.87.864 1.988 1.606 3.102 1.979 1.73.37 3.217-.496 4.829-.126a15.92 15.92 0 014.585 3.214c4.09 4.324 5.58 8.893 5.58 12.97 0 5.067-1.49 8.651-3.719 10.875-1.368 1.363-3.101 2.595-5.208 2.595-.494 0-1.488-.124-2.106-.617.37-1.485.618-3.09.618-5.435 0-1.364 0-4.944-1.732-9.146-.375-.864-1.74-3.585-3.472-5.434-1.363-1.36-2.974-2.597-4.58-2.597-.747 0-1.491.125-2.113.622-.616.614-.989 1.605-.863 2.343-1.117.616-2.729 1.112-4.092 1.112-1.61 0-3.344-.866-4.834-1.85v-1.856c-.867-.37-1.114-.74-1.236-1.482l.122-.126c.371.126.623.371.867.497-.123-.867-.244-1.853-.741-2.595-.373 0-.744-.123-1.119-.372-.492-.371-.742-.863-.742-1.481.374.618.992.371 1.363.741-.621-1.482-.371-2.225-1.487-4.571-.37-1.115-1.487-1.73-2.231-2.473-.37-.371-.496-.743-1.114-.743-.371-.124-.371-.739-.493-1.11.247 0 .493.247.741.372-.619-1.854-1.238-3.709-2.977-4.82l-.247.248c-.744.12-1.485.12-2.106.12.247-.368.743-.492 1.239-.737-.496-.372-.866-.496-1.61-.496-.249.124-.869.496-1.363.496h-.125c0-.372-.122-.869.62-1.113-.742-.126-1.364-.126-2.23 0-.126.617-.62.989-.62 1.482-.372.368-.496.74-.866 1.111 0-.863.37-1.605.494-2.349-.494.124-1.112.497-1.488.497-.992-.497-2.23-1.113-2.729-1.113.746.616.376 1.485.499 2.222l-.499-.368c-.244-.493-.737-.865-.988-1.482-.742 0-1.238.244-1.857.617l-.122.124c.494 0 .99.372 1.237.74-.869 0-1.487-.368-2.353-.368 0 0 0-.124-.249-.124-.373.124-.745.493-.993.741-.866.739-1.485 1.482-1.982 2.594.25 0 .621 0 .746.124-.374.246-.746.742-1.239.986v1.856c-.371.493-.867.862-1.116 1.482-.621 2.224-.744 4.573-.744 7.167-.248.37-.496.493-.74.619v2.223s.863-.866 1.236-1.114c0 .496-.124 1.237-.124 1.732-.373 0-.868.497-.868.988 0 .495.123.99.123 1.484 0 .243 0 .368.125.614.124-.246.371-.614.62-.74.124 0 .371-.244.743-.244-.247.37-.371.984-.619 1.479l-.373.371s-.123.249-.123.37c.372 2.597 1.238 5.068 2.232 7.663-.869 1.726-1.736 3.582-2.109 4.94-.371.989-.863 2.967-.863 2.967-.621-.616-1.491-.74-2.235-.74-.866.124-1.61.37-2.23 1.11-.743-.37-1.735-.248-2.231.37-1.114.993-1.114 1.484-1.114 2.225-.373.371-.868.992-.868 1.853 0 1.238.249 1.975.868 2.967h19.699c-.246-.37-.495-.865-.743-1.235-.37-.743-.122-1.732-.122-2.472.37-.742.866-1.483 1.241-2.224.119-.37 0-.37.246-.495l.868-.37c.493 0 .869-.25 1.488-.25.493.62.493-.492 1.115-.74 1.488-.124 2.725 0 3.469 1.111 0 .249.248.249.248.374h-.621c-.743-.374-1.734-.744-2.603-.374 0 .374-.124.374-.124.744v.618c.497.123.868.493 1.364.864.247-.495.992-.864 1.61-.864.621 0 1.613.368 1.613 1.484 0 .493-.125.99-.125 1.482.495.37 1.24.49 1.861.862-.25.376-.621.376-.991.376h-1.118c-.125-.126-.373-.126-.373-.376-.371.376-.619.99-.867 1.485h15.122c-.248-.494-.5-.865-.621-1.235-.371-.743-.25-1.732-.371-2.472l1.485-1.974c.747 0 1.489-.25 2.851-.371.246-.374 0-.623 1.113-.743.99 0 1.614.369 1.865.494.12.249.12.249 0 .496-.251.245-.746-.247-1.118-.126-.247.25.124.37.124.618.248.246-1.114-.248-1.114-.248s-.374.74-.497 1.112c0 0 .619.372.74.742.251.371-.243.74-.243 1.113-.374-.124-.751-.498-.87-.373-.248.99 0 1.858-.128 2.967h1.367l.248-2.225c.126-1.237 1.611-3.58 2.478-3.58.624 0 .87.245 1.366.615.368.37.864.741.864.986 0 .127-.37.376-.99.376-.246 0-.37-.376-.616-.62l-.747.74s.867.741.867 1.361c0 .49-.12.862-.62 1.112l-.74-1.483c-.371 0-.998.74-.998 1.233 0 .493-.248.747-.248 1.485h8.052c.875 0 1.616-.25 2.486-.738h1.608c2.235 0 5.085-.371 8.054-3.216 4.71-4.447 4.96-10.506 4.96-12.853zm-50.187 16.807c-.62-1.235-.744-2.967-.744-3.335 0-.742 0-1.61.37-2.225l-1.484.37c-.251.37-.374.741-.374.986l.494-.245c.25 0 .376.245.497.372-.121.741-.868.741-1.242.985-.368 1.234.746 1.983.995 3.092h1.488z" fill="#EB6606"/></svg>