<svg width="244" height="136" viewBox="0 0 244 136" fill="none" xmlns="http://www.w3.org/2000/svg"><path d="M137.716 30.715C145.604 30.715 152 63.973 152 105h11.429c0-44.184-11.514-80-25.713-80-8.079 0-15.287 10.764-20 27.597C113.003 35.764 105.793 25 97.715 25 83.515 25 72 60.816 72 105h11.431c0-41.027 6.396-74.285 14.284-74.285 7.889 0 14.287 30.7 14.287 68.573h11.427c0-37.873 6.396-68.573 14.287-68.573zm31.434 68.573a2.832 2.832 0 012.85 2.842 2.838 2.838 0 01-2.85 2.869 2.85 2.85 0 01-2.866-2.869c0-1.615 1.31-2.842 2.866-2.842zm0 5.294c1.313 0 2.333-1.055 2.333-2.451 0-1.371-1.02-2.425-2.333-2.425-1.329 0-2.348 1.054-2.348 2.425 0 1.396 1.019 2.451 2.348 2.451zm-1.111-4.11h1.288c.788 0 1.159.314 1.159.953 0 .604-.376.856-.87.908l.948 1.477h-.557l-.903-1.436h-.546v1.436h-.518l-.001-3.338zm.519 1.483h.539c.455 0 .874-.023.874-.552 0-.444-.38-.514-.729-.514h-.684v1.066z" fill="#FFC300"/></svg>