<svg width="244" height="136" viewBox="0 0 244 136" fill="none" xmlns="http://www.w3.org/2000/svg"><path fill-rule="evenodd" clip-rule="evenodd" d="M28.78 68.025l1.087-.621 13.593 9.32-14.68-8.699zm-.78-.497l-1.01-.581 1.126-17.788L28 67.53zm-1.218-.06l-4.504 3.727 5.398-3.183-.894-.544z" fill="#fff"/><path fill-rule="evenodd" clip-rule="evenodd" d="M28.274 43.886C14.87 43.886 4 54.753 4 68.16s10.869 24.274 24.274 24.274c13.407 0 24.276-10.867 24.276-24.274S41.68 43.886 28.274 43.886zm.003 47.254c-5.547 0-10.738-1.85-14.605-5.244-3.763-3.305-6.686-8.556-7.408-14.139 1.71 10.616 10.916 18.724 22.013 18.724 12.314 0 22.297-9.983 22.297-22.297 0-5.109-1.908-10.112-4.8-13.871 2.93 2.26 5.459 8.694 5.459 13.87 0 12.678-10.279 22.957-22.956 22.957zm-2.108-24.71l1.963-20.126.142-.001h.05l.194 21.18 3.378-2.02-3.399-19.158c11.969.12 21.637 9.857 21.637 21.855 0 3.855-1 7.475-2.75 10.619L32.212 66.085l-1.436.815L47.28 78.96l-.126.217L28.594 68.5v3.767l18.433 7.125c-3.821 6.365-10.79 10.626-18.754 10.626-7.956 0-14.92-4.252-18.742-10.608l18.423-7.182V68.46L9.37 79.14l-.122-.211L25.696 66.9l-1.437-.815-15.13 12.627A21.754 21.754 0 016.417 68.16c0-11.903 9.515-21.584 21.354-21.852l-2.96 19.307 1.358.815zm2.105-21.24c-12.679 0-22.956 10.278-22.956 22.956 0 5.15 1.868 10.02 4.718 14.227.966 1.807 2.012 2.926 3.407 4.403C7.976 82.41 4.44 75.686 4.44 68.145c0-13.163 10.67-23.835 23.835-23.835 13.165 0 24.038 11.136 23.647 23.835-.33-12.39-11.177-22.955-23.647-22.955zm106.629 24.577c0-4.257-1.882-7.709-6.014-7.709-3.836 0-6.017 3.452-6.017 7.709s1.822 7.709 6.017 7.709c4.073 0 5.27-2.019 5.896-5.247l-1.404-.005c-.119 1.197-.9 3.894-3.893 3.954-3.415.069-3.653-4.313-3.595-6.41l.059-1.198c0-1.317-.118-5.211 3.055-5.211 2.516 0 2.875 3.235 2.875 5.21h-5.93l-.059 1.2h9.01v-.002zm-70.86-13.013l-.061.959h.898c.659 0 1.499.059 1.499.898l-.3 16.235c0 .599-.3 1.257-1.498 1.257h-.898l-.06.959h6.05v-.959h-1.019c-.78 0-1.318-.24-1.318-1.257l.3-15.576 6.47 16.773h.658l6.529-16.953.3 15.756c0 .538-.54 1.257-1.379 1.257h-1.257v.959h7.608v-.959h-.899c-.658 0-1.438-.36-1.438-1.198l-.3-16.055c0-.54.6-1.138 1.198-1.138h1.138v-.958h-5.452l-5.63 14.736-5.632-14.736h-5.507zm42.14 20.32v-.778h-.6c-.538 0-1.497-.18-1.497-1.259V67.19c0-2.456 1.258-3.354 2.515-3.354.48 0 .78.24.659 1.137-.12.899.658 1.498 1.318 1.439.66-.06 1.499-.18 1.378-1.857-.121-1.677-1.078-2.456-2.755-2.456-1.319 0-2.397.839-2.696 1.259-.348.488-.78.299-.839-.24-.059-.539-.299-1.077-.898-.898a14.396 14.396 0 01-3.535.658v.6c2.516-.12 2.277 1.137 2.277 1.736v9.825c0 1.078-.958 1.258-1.498 1.258h-.84v.779h7.011v-.001zm13.345-14.063c-.883-.645-1.994-1.015-3.345-1.015-3.833 0-6.015 3.452-6.015 7.71s1.821 7.689 6.015 7.71c3.714.018 4.614-2.078 5.238-5.308l-1.404-.006c-.12 1.197-.539 3.953-3.234 4.014-3.414.077-3.654-4.314-3.594-6.41 0-1.318.18-6.59 3.055-6.59 2.455 0 3.953 1.738 3.953 3.714h.779v-5.032h-.659l-.789 1.213zm86.663 13.165c-3.415.07-3.654-4.313-3.596-6.409h9.011c0-4.257-1.88-7.709-6.015-7.709-3.833 0-6.014 3.452-6.014 7.709s1.82 7.709 6.014 7.709c4.074 0 5.273-2.019 5.896-5.247l-1.401-.006c-.121 1.198-.899 3.895-3.895 3.953zm-.479-12.819c2.516 0 2.875 3.236 2.875 5.212h-5.93c0-1.317-.12-5.212 3.055-5.212zm-48.77 12.82c-3.415.069-3.653-4.314-3.595-6.41h9.011c0-4.257-1.882-7.709-6.015-7.709-3.834 0-6.017 3.452-6.017 7.709s1.823 7.709 6.017 7.709c4.073 0 5.27-2.019 5.896-5.247l-1.404-.006c-.119 1.198-.897 3.895-3.893 3.953zm-.48-12.82c2.517 0 2.874 3.236 2.874 5.212h-5.93c0-1.317-.117-5.212 3.056-5.212zm-63.098 12.82c-3.414.069-3.653-4.314-3.594-6.41h9.01c0-4.257-1.882-7.709-6.014-7.709-3.835 0-6.016 3.452-6.016 7.709s1.822 7.709 6.016 7.709c4.073 0 5.271-2.019 5.896-5.247l-1.404-.005c-.12 1.197-.898 3.894-3.894 3.952zm-.48-12.82c2.517 0 2.875 3.236 2.875 5.212h-5.93c0-1.317-.118-5.212 3.055-5.212zm55.065 10.59V57.231c0-.689-.357-1.259-.958-1.079a14.35 14.35 0 01-3.534.659v.599c1.737-.12 1.918.42 1.918 1.02v5.151c-.779-.719-1.678-1.438-3.294-1.438-2.037 0-5.811 1.617-5.811 7.308 0 7.489 4.373 7.967 5.691 7.967 1.318 0 3.055-1.077 3.415-1.647.029-.12.209-.27.269 0 .061.54.45 1.347 1.049 1.168a14.406 14.406 0 013.534-.659v-.6c-2.517.122-2.279-1.137-2.279-1.735zm-2.574-1.798c-.06 3.293-1.797 4.313-3.235 4.313-3.234-.06-2.996-4.972-2.996-7.07 0-2.097.121-6.23 3.056-5.87 2.936.359 3.176 3.474 3.176 5.33v3.297h-.001zm37.74-3.65v-1.377h-7.906v1.377h7.906zm-18.798 3.483v5.091h.657l.599-1.318c.599.54 1.858 1.438 3.474 1.438 1.619 0 3.895-.898 4.795-2.575.897-1.677.478-4.433-1.559-5.272-1.784-.734-3.348-1.614-4.553-2.217a1.929 1.929 0 01-1.077-2.037c.18-.959 1.018-1.977 2.934-2.037 1.917-.06 2.875 1.558 3.117 3.414h.657v-4.79h-.599l-.66 1.137c-1.256-.839-1.796-.958-2.934-.958-1.138 0-3.055.599-4.134 2.277-1.077 1.677-.778 4.311 1.799 5.391 2.575 1.077 3.775 1.737 4.492 2.097.719.36 1.138 1.797.66 2.636-.481.838-1.377 1.798-2.816 1.798-1.438 0-3.712-1.02-4.252-4.074h-.6zm30.058-5.883c1.439-.36 2.877-2.936 2.877-4.673s-.66-4.672-4.854-4.672h-8.985v.778c.899 0 2.456.18 2.456 1.678v14.797c0 .839-.06 2.216-2.456 2.216v.839h7.369c2.215 0 7.308-.18 7.429-6.05 0-1.978-.959-4.314-3.836-4.913zm-5.931-8.387h2.996c2.218 0 3.115 1.616 3.115 3.714 0 2.576-.778 4.553-3.115 4.553h-2.996v-8.267zm3.056 18.391h-3.056v-9.165h3.415c1.978 0 3.715 1.377 3.715 4.372 0 2.996-1.799 4.793-4.074 4.793zm31.176-9.931v8.865c0 1.079-.958 1.26-1.498 1.26h-.36v.778h6.53v-.779h-.6c-.539 0-1.498-.18-1.498-1.259v-8.805c-.059-4.014-3.653-4.133-4.911-4.133-1.318 0-2.758.839-3.055 1.259-.35.488-.781.299-.84-.24-.06-.539-.298-1.077-.9-.898a14.376 14.376 0 01-3.533.658v.6c2.515-.12 2.277 1.137 2.277 1.736v9.825c0 1.078-.959 1.258-1.499 1.258h-.837v.779h7.007v-.778h-.599c-.54 0-1.499-.18-1.499-1.26v-7.847c0-1.317.481-3.415 2.937-3.595 2.458-.18 2.878 1.438 2.878 2.576zm6.06.3l1.079-4.073H240l-8.747 13.838h4.671c1.079 0 1.918-.42 3.055-3.176h.481l-.959 4.013h-10.424l8.687-13.836h-3.895c-.959 0-2.035 0-3.533 3.234h-.6z" fill="#fff"/></svg>